<svg width="78" height="78" viewBox="0 0 78 78" fill="none" xmlns="http://www.w3.org/2000/svg">
<g clip-path="url(#clip0_634_7674)">
<path d="M11.7476 77.9909C9.2648 77.9909 6.78204 78.0122 4.29928 77.9879C1.60658 77.9605 0.0579014 76.4167 0.0274754 73.7342C0.00313467 71.2496 -0.0212061 68.762 0.0366032 66.2774C0.118753 62.9098 2.35202 60.3612 5.63802 59.9167C6.33782 59.8223 7.13194 60.0019 7.81348 60.2486C10.2932 61.1498 12.7577 61.2473 15.2465 60.3521C18.1035 59.3229 20.9849 60.3521 22.4788 63.0255C22.8652 63.7197 23.2303 64.5296 23.2577 65.3C23.3703 68.3875 23.4768 71.4871 23.3246 74.5685C23.2242 76.636 21.5234 77.9453 19.3449 77.9787C16.8104 78.0183 14.276 77.9879 11.7445 77.9879L11.7476 77.9909ZM11.6928 75.3663C14.1269 75.3663 16.5579 75.3663 18.992 75.3663C20.0447 75.3663 20.7749 75.0313 20.7658 73.8103C20.7506 71.2222 20.8297 68.631 20.7263 66.049C20.6228 63.4457 18.4139 62.0268 15.9768 62.8732C13.2019 63.8384 10.4119 63.8506 7.62484 62.9433C4.7861 62.0207 2.75364 63.4152 2.65932 66.4601C2.58934 68.7924 2.67149 71.1278 2.6289 73.4602C2.60455 74.8151 3.19178 75.3967 4.54269 75.3723C6.92504 75.3328 9.30739 75.3602 11.6897 75.3602L11.6928 75.3663Z" fill="url(#paint0_linear_634_7674)"/>
<path d="M66.2377 77.9876C63.7549 77.9876 61.2722 78.0119 58.7894 77.9845C56.191 77.9541 54.6028 76.4195 54.5511 73.8344C54.4993 71.3498 54.478 68.8622 54.5572 66.3776C54.6728 62.8638 56.8878 60.3427 60.2255 59.9012C60.8827 59.8129 61.6312 59.9621 62.261 60.1996C64.7286 61.1404 67.1961 61.2561 69.688 60.3792C73.4791 59.0517 77.3979 61.2927 77.8056 65.3423C78.1129 68.4054 78.0004 71.5264 77.8604 74.6139C77.7722 76.5778 76.0714 77.9297 73.9902 77.9693C71.4071 78.018 68.8208 77.9815 66.2377 77.9815V77.9876ZM66.2225 75.366C68.6565 75.366 71.0876 75.366 73.5217 75.366C74.4892 75.366 75.2833 75.1072 75.2894 73.9653C75.3016 71.228 75.3959 68.4785 75.2133 65.7503C75.049 63.2992 72.8432 62.0508 70.5186 62.8669C67.7438 63.8412 64.9567 63.8473 62.1697 62.943C59.3279 62.0234 57.2651 63.4484 57.2073 66.4567C57.1616 68.7891 57.2377 71.1245 57.1799 73.4568C57.1464 74.8331 57.7336 75.3934 59.0785 75.3721C61.4608 75.3386 63.8432 75.3629 66.2255 75.3599L66.2225 75.366Z" fill="url(#paint1_linear_634_7674)"/>
<path d="M38.9514 35.0769C36.4686 35.0769 33.9889 35.0982 31.5062 35.0708C28.92 35.0403 27.3804 33.6093 27.3287 31.0759C27.2709 28.3417 27.2496 25.5982 27.3895 22.867C27.5508 19.6943 29.9849 17.2614 33.1157 17.0118C33.782 16.96 34.5092 17.1427 35.1512 17.3771C37.6279 18.2845 40.0985 18.3515 42.5751 17.4411C46.1167 16.1409 50.1664 18.4855 50.5011 22.322C50.7719 25.4399 50.6776 28.6035 50.5559 31.7397C50.4828 33.6641 48.8672 35.0099 46.85 35.0525C44.2181 35.1104 41.5832 35.0677 38.9484 35.0677C38.9484 35.0708 38.9484 35.0738 38.9484 35.0769H38.9514ZM38.9605 32.5131C41.3916 32.5131 43.8195 32.5131 46.2506 32.5131C47.2181 32.5131 48.0305 32.1995 48.0488 31.1064C48.0914 28.3721 48.2009 25.6226 47.9849 22.9036C47.7841 20.3733 45.6086 19.2101 43.1745 20.0231C40.4514 20.9335 37.71 20.9548 34.9717 20.084C31.9838 19.134 29.9453 20.5895 29.8905 23.7713C29.854 26.0002 29.8692 28.232 29.8875 30.4609C29.8997 32.099 30.3013 32.4979 31.9747 32.5131C34.3023 32.5314 36.6329 32.5192 38.9605 32.5162V32.5131Z" fill="url(#paint2_linear_634_7674)"/>
<path d="M24.1152 11.4823C23.1568 11.0287 22.314 10.8125 21.7359 10.2948C21.316 9.92033 21.246 9.14694 21.0209 8.55319C21.5868 8.35832 22.2653 7.85592 22.6974 8.0173C24.4469 8.66889 26.1355 9.49709 27.815 10.3222C28.6456 10.7303 28.7491 11.4458 28.3566 12.2588C27.5625 13.9 26.8657 15.5959 25.9438 17.161C25.6639 17.636 24.7055 18.0775 24.1913 17.9587C23.2846 17.7486 23.3028 16.8809 23.6558 16.0862C23.8353 15.6842 23.9844 15.2701 24.2795 14.5302C20.2937 16.9448 17.3181 19.8983 14.9874 23.5065C12.1152 27.9519 10.6487 32.8481 10.4266 38.1278C10.4174 38.3319 10.4966 38.5968 10.3961 38.7246C9.9854 39.2514 9.58378 40.0705 9.06653 40.1649C8.12637 40.3354 7.85254 39.4919 7.85254 38.6424C7.85862 35.0556 8.48844 31.5814 9.74199 28.226C12.3252 21.3263 16.7826 15.9826 23.0838 12.1796C23.3759 12.003 23.6527 11.796 24.1183 11.4823H24.1152Z" fill="url(#paint3_linear_634_7674)"/>
<path d="M67.3446 35.5306C65.8142 26.0215 61.2077 18.9909 53.2209 14.2288C52.3538 13.7111 51.4258 13.291 50.5221 12.8403C49.7371 12.4475 49.0708 11.9543 49.5394 10.9616C49.9957 9.99643 50.8051 10.106 51.6174 10.4714C56.7716 12.7916 61.0221 16.2262 64.3081 20.83C67.2442 24.9436 69.1032 29.5018 69.7878 34.5227C69.8396 34.9094 69.9643 35.29 70.0951 35.8381C70.7493 35.2169 71.2209 34.5593 71.8598 34.2335C72.3314 33.9929 73.2503 33.9533 73.5546 34.2517C73.8619 34.5532 73.9166 35.5975 73.6306 35.9325C72.4501 37.3179 71.1692 38.6424 69.7696 39.7994C69.3832 40.1192 68.2452 40.043 67.8162 39.6959C66.5231 38.6485 65.4004 37.3849 64.226 36.1913C63.6144 35.5701 63.3527 34.7541 64.1377 34.2395C64.5667 33.9594 65.4095 34.1452 65.9937 34.337C66.4197 34.477 66.7331 34.9642 67.3477 35.5275L67.3446 35.5306Z" fill="url(#paint4_linear_634_7674)"/>
<path d="M11.7631 42.9171C16.0622 42.9384 19.5521 46.4978 19.5034 50.8185C19.4578 55.0143 15.8827 58.5128 11.6657 58.4915C7.36954 58.4702 3.90403 54.9138 3.94966 50.5688C3.99226 46.3182 7.4882 42.8958 11.7631 42.9171ZM16.8594 50.7454C16.8868 47.8589 14.544 45.4809 11.69 45.4991C8.90301 45.5174 6.57238 47.8345 6.52674 50.6327C6.48111 53.4858 8.8452 55.8547 11.7296 55.8455C14.5744 55.8364 16.832 53.5923 16.8594 50.7454Z" fill="url(#paint5_linear_634_7674)"/>
<path d="M74.0142 50.6174C74.0416 54.9472 70.5456 58.4914 66.2464 58.4914C62.0324 58.4914 58.4878 54.9777 58.4543 50.7697C58.4209 46.4582 61.932 42.917 66.2434 42.917C70.5122 42.917 73.9868 46.3577 74.0142 50.6174ZM66.3073 55.8424C69.1278 55.815 71.4249 53.5131 71.4371 50.7088C71.4493 47.8771 69.0122 45.4594 66.1917 45.499C63.3773 45.5417 61.1105 47.8436 61.1014 50.6722C61.0923 53.5831 63.3955 55.8698 66.3073 55.8424Z" fill="url(#paint6_linear_634_7674)"/>
<path d="M38.9724 15.5744C34.7219 15.5744 31.2351 12.1246 31.1803 7.87094C31.1255 3.60511 34.7006 0 38.9846 0C43.2655 0 46.8406 3.61424 46.7797 7.87703C46.7189 12.1276 43.2229 15.5744 38.9754 15.5714L38.9724 15.5744ZM33.8091 7.79178C33.8061 10.66 36.2036 13.0381 39.0485 12.9863C41.8598 12.9376 44.1448 10.6174 44.1509 7.807C44.157 4.9692 41.9085 2.6886 39.0667 2.64902C36.155 2.60639 33.8152 4.89612 33.8122 7.79178H33.8091Z" fill="url(#paint7_linear_634_7674)"/>
<path d="M32.0113 66.646C37.707 68.0649 43.132 67.7695 48.49 65.9274C48.922 65.7782 49.3541 65.6351 49.7739 65.4585C50.6228 65.1022 51.4078 65.0748 51.8094 66.0522C52.2202 67.054 51.5904 67.6477 50.7384 67.867C47.708 68.6404 44.6928 69.569 41.6107 70.0014C38.1908 70.4825 34.7313 70.1476 31.3693 69.2158C31.0376 69.1245 30.6908 69.0879 30.064 68.9753C30.4443 69.7152 30.8886 70.2145 30.9251 70.7443C30.9646 71.3503 30.6421 71.9775 30.4778 72.5956C29.8784 72.3947 28.9961 72.3733 28.7344 71.9592C27.7851 70.4703 27.0123 68.8626 26.2395 67.2671C25.7313 66.2166 26.1634 65.5042 27.2435 65.1784C28.7466 64.7247 30.2344 64.1857 31.7679 63.9056C32.346 63.799 33.0336 64.3075 33.6725 64.5359C33.3439 65.1235 33.0305 65.7203 32.6746 66.2897C32.5863 66.4298 32.349 66.4724 32.0143 66.646H32.0113Z" fill="url(#paint8_linear_634_7674)"/>
</g>
<defs>
<linearGradient id="paint0_linear_634_7674" x1="11.7006" y1="59.8911" x2="11.7006" y2="77.9996" gradientUnits="userSpaceOnUse">
<stop stop-color="#7263D8"/>
<stop offset="1" stop-color="#CDB9FD"/>
</linearGradient>
<linearGradient id="paint1_linear_634_7674" x1="66.2532" y1="59.8755" x2="66.2532" y2="77.9976" gradientUnits="userSpaceOnUse">
<stop stop-color="#7263D8"/>
<stop offset="1" stop-color="#CDB9FD"/>
</linearGradient>
<linearGradient id="paint2_linear_634_7674" x1="38.9801" y1="17.0029" x2="38.9801" y2="35.0848" gradientUnits="userSpaceOnUse">
<stop stop-color="#7263D8"/>
<stop offset="1" stop-color="#CDB9FD"/>
</linearGradient>
<linearGradient id="paint3_linear_634_7674" x1="18.2147" y1="7.98584" x2="18.2147" y2="40.187" gradientUnits="userSpaceOnUse">
<stop stop-color="#7263D8"/>
<stop offset="1" stop-color="#CDB9FD"/>
</linearGradient>
<linearGradient id="paint4_linear_634_7674" x1="61.6008" y1="10.207" x2="61.6008" y2="40.0022" gradientUnits="userSpaceOnUse">
<stop stop-color="#7263D8"/>
<stop offset="1" stop-color="#CDB9FD"/>
</linearGradient>
<linearGradient id="paint5_linear_634_7674" x1="11.7266" y1="42.917" x2="11.7266" y2="58.4916" gradientUnits="userSpaceOnUse">
<stop stop-color="#7263D8"/>
<stop offset="1" stop-color="#CDB9FD"/>
</linearGradient>
<linearGradient id="paint6_linear_634_7674" x1="66.2342" y1="42.917" x2="66.2342" y2="58.4914" gradientUnits="userSpaceOnUse">
<stop stop-color="#7263D8"/>
<stop offset="1" stop-color="#CDB9FD"/>
</linearGradient>
<linearGradient id="paint7_linear_634_7674" x1="38.9801" y1="0" x2="38.9801" y2="15.5744" gradientUnits="userSpaceOnUse">
<stop stop-color="#7263D8"/>
<stop offset="1" stop-color="#CDB9FD"/>
</linearGradient>
<linearGradient id="paint8_linear_634_7674" x1="38.9828" y1="63.8911" x2="38.9828" y2="72.5956" gradientUnits="userSpaceOnUse">
<stop stop-color="#7263D8"/>
<stop offset="1" stop-color="#CDB9FD"/>
</linearGradient>
<clipPath id="clip0_634_7674">
<rect width="78" height="78" fill="white"/>
</clipPath>
</defs>
</svg>
