<svg width="107" height="96" viewBox="0 0 107 96" fill="none" xmlns="http://www.w3.org/2000/svg">
<g clip-path="url(#clip0_722_210)">
<path d="M55.2956 64.949C55.3544 63.6633 55.3993 62.6046 55.4615 61.2158C58.8701 63.6221 62.0366 65.8565 65.4244 68.249C62.0885 70.614 58.8977 72.8759 55.4857 75.2925C55.4062 73.9622 55.344 72.9069 55.2749 71.7381H40.7385C40.7385 74.2784 41.0496 76.8085 40.6831 79.2354C39.1413 89.4311 29.6832 96.729 19.3539 95.8971C9.65369 95.1168 1.65089 87.7536 0.64492 78.6785C-0.492411 68.4243 5.09745 59.6173 14.6974 56.5304C22.6345 53.9798 31.7504 56.7883 36.7803 63.4536C37.641 64.5949 38.5122 65.0074 39.9226 64.9833C44.9836 64.8974 50.0445 64.949 55.2956 64.949ZM19.0393 60.4424C20.0833 63.3814 18.2857 64.0208 16.1527 64.894C11.5585 66.7709 10.5629 72.5562 14.2168 75.5297C15.2885 76.3994 16.7715 76.7535 18.016 77.4341C18.4792 77.6885 19.0877 78.1766 19.1292 78.6063C19.2674 80.0707 19.181 81.5591 19.181 83.6251C16.972 82.5904 15.1122 81.7173 13.121 80.7822C12.8306 81.3632 12.5264 82.1573 12.0666 82.8516C11.1747 84.1992 11.638 85.1135 12.9516 85.6773C14.929 86.5229 16.9513 87.2654 19.2259 88.1592V91.222H22.8868V87.9048C24.1071 87.4751 25.2306 87.1967 26.247 86.7051C28.8673 85.4367 30.1844 83.357 30.098 80.3869C30.015 77.6025 28.411 76.011 26.0638 74.9453C25.3378 74.6153 24.5289 74.4606 23.8064 74.1272C23.4469 73.9622 22.9456 73.5909 22.9318 73.2884C22.8454 71.6728 22.8903 70.0537 22.8903 68.0977C24.7743 68.8918 26.2712 69.5209 27.813 70.1706C28.169 69.3456 28.4214 68.5102 28.8604 67.7884C29.6451 66.489 29.1266 65.7637 27.8994 65.3168C26.2919 64.7324 24.6672 64.203 22.9629 63.6186C22.911 62.6458 22.8523 61.5836 22.79 60.4458H19.0393V60.4424Z" fill="#362E75"/>
<path d="M51.5312 76.2994C51.6072 77.726 51.6625 78.7813 51.7248 79.926H66.2854C66.2854 77.3032 65.9777 74.7147 66.3407 72.2259C67.6889 63.0271 76.1445 55.8254 85.5405 55.6364C95.4826 55.4336 104.09 62.0405 106.037 71.3631C108.443 82.8823 101.311 93.7414 89.7061 95.6733C81.8416 96.983 75.1801 94.3877 70.1813 88.0901C69.369 87.0658 68.5704 86.7082 67.3086 86.7254C62.7627 86.7907 58.2134 86.7495 53.6641 86.7495C53.0488 86.7495 52.43 86.7495 51.7213 86.7495C51.6625 87.9767 51.6176 88.9839 51.5485 90.3864C48.1434 87.987 44.9595 85.7423 41.5752 83.3566C44.9146 80.9882 48.0708 78.7504 51.5312 76.296V76.2994ZM84.3444 60.4489C85.4748 63.3124 83.9849 64.3505 81.6687 64.8215C81.3991 64.8765 81.1433 65.0415 80.9013 65.1893C78.6785 66.5677 77.5031 68.4962 77.593 71.1706C77.6829 73.8209 79.0207 75.5603 81.368 76.6156C82.0939 76.9422 82.9098 77.0935 83.6012 77.475C84.0091 77.6985 84.5 78.1935 84.5311 78.5957C84.6417 80.0669 84.576 81.5519 84.576 83.6213C82.4051 82.5695 80.5694 81.6791 78.6163 80.7338C78.319 81.3423 78.0528 82.181 77.5584 82.8548C76.5421 84.2435 77.1505 85.1064 78.4227 85.6667C80.3862 86.5295 82.4085 87.2651 84.6693 88.1589V91.2423H88.4098V87.9354C89.8513 87.3751 91.1373 87.0245 92.2746 86.4057C94.5285 85.1785 95.6797 83.1366 95.6555 80.6307C95.6278 78.0766 94.3004 76.1963 91.9151 75.1478C91.0785 74.78 90.1797 74.5462 89.3604 74.1475C88.9767 73.9584 88.472 73.5287 88.4478 73.1815C88.351 71.6106 88.4063 70.0328 88.4063 68.1353C90.1901 68.8778 91.6869 69.5 93.2702 70.16C93.6435 69.2971 93.9236 68.4206 94.3799 67.6471C95.0609 66.4921 94.653 65.8287 93.5468 65.4162C91.8943 64.8008 90.2281 64.2336 88.4651 63.608C88.4167 62.6661 88.3648 61.6039 88.306 60.4558H84.3306L84.3444 60.4489Z" fill="#CDB9FD"/>
<path d="M23.3819 52.7422C21.9749 52.6494 20.7339 52.5669 19.3027 52.4741C19.3027 51.8175 19.3027 51.2022 19.3027 50.5869C19.3027 37.2424 19.3027 23.9013 19.3027 10.5568C19.3062 4.15609 23.458 0.00699225 29.8637 0.00355471C45.6446 0.000117179 61.422 0.000117179 77.2029 0.00355471C83.4876 0.00355471 87.6982 4.19391 87.6982 10.4502C87.7051 23.8497 87.6982 37.2527 87.6982 50.6522C87.6982 51.2159 87.6982 51.7797 87.6982 52.4569C86.3396 52.5566 85.102 52.6494 83.619 52.7559C83.619 52.0547 83.619 51.3947 83.619 50.7347C83.619 37.4486 83.619 24.1625 83.619 10.8765C83.619 6.31487 81.334 4.05984 76.7051 4.05641C61.1558 4.05297 45.6066 4.05297 30.0573 4.05641C25.7084 4.05641 23.3819 6.4008 23.3819 10.7699C23.3819 24.056 23.3819 37.342 23.3819 50.6281C23.3819 51.3053 23.3819 51.9859 23.3819 52.7422Z" fill="#6DA1FA"/>
<path d="M53.4846 29.6933C46.5707 29.6933 39.6603 29.7002 32.7465 29.683C32.0067 29.683 31.0837 29.7724 30.5755 29.3874C29.891 28.8649 29.0544 27.8611 29.1512 27.1839C29.2619 26.4002 30.2471 25.6611 30.9903 25.0836C31.3187 24.8292 31.9928 25.0011 32.5114 25.0011C46.5085 25.0011 60.5056 25.0011 74.5028 25.0011C75.0213 25.0011 75.6989 24.8292 76.0238 25.087C76.7636 25.6749 77.735 26.4242 77.8387 27.2114C77.9286 27.8886 77.0678 28.8546 76.3903 29.4011C75.9409 29.7655 75.0732 29.683 74.3887 29.683C67.4195 29.7002 60.4503 29.6933 53.4777 29.6933H53.4846Z" fill="#7263D8"/>
<path d="M53.4053 52.8138C46.5018 52.8138 39.5983 52.8138 32.6948 52.8138C32.235 52.8138 31.7649 52.8585 31.3155 52.7898C29.9604 52.5869 29.11 51.8238 29.0443 50.4213C28.9855 49.1528 30.0641 48.1181 31.5091 48.0941C33.9808 48.0494 36.456 48.0872 38.9311 48.0872C50.899 48.0872 62.8635 48.0838 74.8314 48.0803C75.0042 48.0803 75.1771 48.0769 75.3499 48.0803C76.909 48.1456 77.9876 49.1185 77.9772 50.4419C77.9668 51.7654 76.9021 52.7863 75.3292 52.7966C70.4964 52.8344 65.6636 52.8138 60.8308 52.8138C58.3556 52.8138 55.8839 52.8138 53.4088 52.8138H53.4053Z" fill="#7263D8"/>
<path d="M53.6987 13.3648C60.6022 13.3648 67.5057 13.3648 74.4092 13.3648C74.7548 13.3648 75.1005 13.3511 75.4462 13.3717C76.9085 13.4645 77.8281 14.207 77.9594 15.6783C78.0735 16.9949 76.9431 18.0743 75.4013 18.0983C72.3523 18.1465 69.3033 18.119 66.2542 18.1155C54.919 18.1155 43.5871 18.1155 32.2518 18.1086C30.2468 18.1086 29.0784 17.263 29.0334 15.8021C28.9885 14.2895 30.2088 13.3683 32.3002 13.3683C39.4353 13.3648 46.567 13.3683 53.7021 13.3683L53.6987 13.3648Z" fill="#CDB9FD"/>
<path d="M53.4114 41.1821C46.3835 41.1821 39.3555 41.1821 32.331 41.1821C30.167 41.1821 28.9951 40.3331 29.0331 38.8137C29.0712 37.3218 30.1981 36.4727 32.2446 36.4727C46.4146 36.4658 60.5846 36.4693 74.7545 36.4727C75.0415 36.4727 75.3353 36.4555 75.6188 36.4933C77.0672 36.6858 78.1251 37.7446 77.9488 38.9821C77.7448 40.4087 76.9013 41.189 75.3595 41.1856C68.0446 41.1684 60.7298 41.1787 53.4149 41.1787V41.189L53.4114 41.1821Z" fill="#CDB9FD"/>
<path d="M22.9697 83.0641V78.8291C24.2281 79.1557 25.3446 79.606 25.3308 80.9707C25.3204 82.2666 24.3905 82.9163 22.9697 83.0676V83.0641Z" fill="black"/>
<path d="M19.1195 68.5273V72.7452C17.875 72.5183 16.9209 72.0302 16.9209 70.7514C16.9209 69.4486 17.7782 68.768 19.1195 68.5273Z" fill="black"/>
<path d="M88.4893 83.0712V78.8877C89.7165 79.1489 90.7777 79.5546 90.7674 80.9743C90.7605 82.339 89.8133 82.8649 88.4893 83.0746V83.0712Z" fill="#CDB9FD"/>
<path d="M84.5206 72.8341C83.1863 72.3838 82.1526 71.7994 82.4741 70.5344C82.6781 69.7265 83.5147 69.0768 84.0643 68.3584C84.2164 68.4615 84.3685 68.5646 84.5206 68.6678V72.8341Z" fill="#CDB9FD"/>
</g>
<defs>
<clipPath id="clip0_722_210">
<rect width="106" height="96" fill="white" transform="translate(0.5)"/>
</clipPath>
</defs>
</svg>
