<svg width="95" height="78" viewBox="0 0 95 78" fill="none" xmlns="http://www.w3.org/2000/svg">
<g clip-path="url(#clip0_716_1529)">
<path d="M25.668 56.3822C27.6519 55.8415 28.747 56.3822 29.7547 58.2053C36.7142 70.7698 51.2523 77.331 65.4965 74.4507C67.9248 73.9585 70.528 73.6431 72.6589 72.5167C75.654 70.9396 78.4811 68.905 81.0319 66.6764C97.4629 52.3338 95.2761 26.5291 77.141 14.7203C76.6092 14.3737 75.9899 14.0825 75.598 13.6146C75.2726 13.2229 75.2201 12.6094 75.0452 12.093C75.6575 11.892 76.4132 11.3547 76.8576 11.5419C81.0948 13.3234 84.2894 16.4533 87.078 19.9436C103.897 40.9895 92.5609 71.7403 65.9794 77.2721C50.0871 80.5787 33.2642 72.333 26.2523 57.7963C26.0319 57.3423 25.8639 56.864 25.668 56.3822Z" fill="#0A5078"/>
<path d="M58.7544 17.9442C61.4101 15.5595 63.6775 13.518 66.0917 11.3518C63.674 9.13348 61.3437 6.99146 58.618 4.48897C58.618 5.74368 58.597 6.61019 58.625 7.47324C58.6635 8.68289 58.0826 9.31025 56.879 9.3761C40.6194 10.2738 29.1358 22.2421 26.3262 34.7337C26.3157 34.7822 26.2632 34.8238 26.1547 34.966H23.499C25.385 20.8591 37.8517 9.80936 55.8013 6.47848C55.8013 4.93263 55.7279 3.32784 55.8398 1.73693C55.8818 1.1373 56.2177 0.281185 56.6726 0.06629C57.1099 -0.141673 58.0372 0.149475 58.464 0.534207C61.9735 3.66405 65.4129 6.86668 68.8769 10.045C69.8496 10.9393 69.8286 11.8127 68.8489 12.6931C65.4409 15.7606 62.0505 18.8488 58.604 21.8747C58.1946 22.2351 57.2499 22.5748 56.9595 22.3669C56.4486 22.0029 56.0393 21.23 55.9693 20.5853C55.8223 19.2232 55.9238 17.8367 55.9238 15.972C53.513 16.6167 51.2877 16.991 49.2338 17.7986C41.991 20.6442 36.809 25.6631 34.0798 32.9175C33.3626 34.8273 32.4633 35.4928 30.4164 34.8862C31.5221 30.37 33.723 26.3979 36.8615 22.9318C41.984 17.2752 48.4325 14.1454 56.0288 13.2927C58.2961 13.0397 58.7265 13.4314 58.7509 15.667C58.7579 16.2354 58.7509 16.8038 58.7509 17.9407L58.7544 17.9442Z" fill="#C80A50"/>
<path d="M16.5153 47.3743C11.8617 47.3743 7.20813 47.3743 2.55453 47.3708C2.03319 47.3708 1.43486 47.454 1.01149 47.2357C0.567125 47.0034 0.0877686 46.487 0.00729277 46.026C-0.0556883 45.6656 0.364186 45.0174 0.738573 44.8268C1.27041 44.5599 1.95621 44.5148 2.57902 44.5148C11.8267 44.4975 21.078 44.5044 30.3257 44.5044C30.6756 44.5044 31.127 44.3762 31.3509 44.546C31.9352 44.9827 32.4146 45.5512 32.9359 46.0676C32.4041 46.4974 31.9142 47.2218 31.3369 47.3015C29.9653 47.4887 28.5517 47.3743 27.1557 47.3743C23.6077 47.3743 20.0598 47.3743 16.5118 47.3743H16.5153Z" fill="url(#paint0_linear_716_1529)"/>
<path d="M58.8099 48.282C55.353 48.282 52.6973 45.6928 52.6798 42.3099C52.6623 38.8543 55.3705 36.123 58.8134 36.123C62.2459 36.123 64.9821 38.8786 64.9576 42.3134C64.9296 45.6824 62.2529 48.2854 58.8134 48.2854L58.8099 48.282ZM62.1339 42.2926C62.1689 40.5284 60.6574 38.9652 58.8764 38.9271C57.0815 38.889 55.5384 40.369 55.5034 42.1644C55.4684 43.9737 56.924 45.4744 58.747 45.5056C60.5664 45.5403 62.0954 44.088 62.1339 42.2926Z" fill="#00A0C8"/>
<path d="M64.1709 36.4703C68.828 33.0007 73.3207 29.604 77.8903 26.3182C78.3626 25.9785 79.5593 25.9924 79.9722 26.3494C80.7629 27.0322 80.399 27.9022 79.5698 28.5191C75.0561 31.8812 70.5495 35.2467 65.9484 38.6816C65.3535 37.9399 64.8252 37.2813 64.1744 36.4703H64.1709Z" fill="#7263D8"/>
<path d="M26.375 39.5237C24.1602 39.5237 21.9454 39.5237 19.727 39.5237C18.6948 39.5237 17.6592 39.2256 17.8551 38.0645C17.9461 37.5238 19.0167 36.7751 19.6606 36.7578C24.1462 36.6434 28.6389 36.6954 33.128 36.6954C34.1532 36.6954 35.1329 36.9553 35.0734 38.1477C35.0174 39.2811 34.0587 39.541 33.0195 39.5306C30.8047 39.5098 28.5899 39.5237 26.3715 39.5237H26.375Z" fill="url(#paint1_linear_716_1529)"/>
<path d="M26.4589 54.5387C24.1881 54.5387 21.9137 54.5318 19.6429 54.5387C18.6877 54.5422 17.7955 54.3793 17.771 53.232C17.7465 52.0016 18.6597 51.7624 19.6919 51.7624C24.1776 51.7659 28.6667 51.7104 33.1489 51.8248C33.7997 51.8421 34.8844 52.5908 34.9718 53.1315C35.1643 54.2891 34.1496 54.556 33.0999 54.5422C30.8851 54.5144 28.6737 54.5318 26.4589 54.5318V54.5387Z" fill="url(#paint2_linear_716_1529)"/>
<path d="M60.2592 68.78C60.2592 69.4732 60.4551 70.2462 60.2032 70.8319C59.9618 71.3969 59.304 72.0416 58.7442 72.1351C58.3698 72.1941 57.5125 71.383 57.453 70.8943C57.2781 69.4143 57.2536 67.8858 57.453 66.4127C57.523 65.8789 58.3313 65.1926 58.9086 65.0748C59.2515 65.002 60.0283 65.8304 60.1997 66.378C60.4272 67.1163 60.2557 67.9759 60.2557 68.7835C60.2557 68.7835 60.2592 68.7835 60.2627 68.7835L60.2592 68.78Z" fill="#7263D8"/>
<path d="M85.4757 43.5752C84.664 43.5752 83.8032 43.7381 83.058 43.5163C82.5786 43.3742 81.9768 42.6775 81.9698 42.2234C81.9628 41.7798 82.6136 40.9757 83.03 40.9375C84.6955 40.785 86.389 40.785 88.0545 40.9306C88.4638 40.9653 89.1531 41.8144 89.0936 42.1922C89.0097 42.7121 88.4148 43.388 87.897 43.5509C87.1587 43.7832 86.291 43.6099 85.4792 43.6099C85.4792 43.5995 85.4792 43.5891 85.4792 43.5787L85.4757 43.5752Z" fill="#7263D8"/>
<path d="M38.1143 63.9212C37.8414 63.7167 37.2326 63.488 37.1171 63.1137C36.9702 62.6423 37.0471 61.8936 37.3516 61.5401C38.3313 60.4067 39.4054 59.3322 40.5671 58.386C40.9415 58.0844 41.8757 58.022 42.2501 58.2785C42.628 58.5385 42.9569 59.6129 42.7469 59.8521C41.5433 61.2385 40.1752 62.4863 38.8491 63.7653C38.7441 63.8658 38.5167 63.8415 38.1108 63.9247L38.1143 63.9212Z" fill="#7263D8"/>
<path d="M76.057 57.793C76.5399 58.0495 76.9423 58.1742 77.2187 58.4307C78.2299 59.37 79.2971 60.2851 80.1403 61.363C80.4587 61.7685 80.4657 62.7148 80.2068 63.2C79.7484 64.0596 78.9402 64.0804 78.2054 63.3456C77.1872 62.3266 76.106 61.363 75.1788 60.2712C74.8779 59.9177 74.7799 59.1829 74.9234 58.7253C75.0388 58.3441 75.6442 58.1118 76.057 57.7964V57.793Z" fill="#7263D8"/>
<path d="M11.7149 54.5275C11.1341 54.5275 10.4833 54.6904 9.98642 54.4824C9.44758 54.2606 8.61483 53.5951 8.68481 53.3005C8.81777 52.7321 9.43008 51.9488 9.95492 51.8552C11.1376 51.6368 12.4147 51.6368 13.5973 51.8552C14.1327 51.9522 14.5351 52.7702 14.9969 53.2589C14.4861 53.6853 14.0312 54.2468 13.4434 54.4928C12.95 54.7008 12.2957 54.5344 11.7149 54.5344C11.7149 54.5344 11.7149 54.531 11.7149 54.5275Z" fill="url(#paint3_linear_716_1529)"/>
<path d="M11.8996 36.7472C12.5329 36.7472 13.1802 36.6779 13.803 36.7645C14.8457 36.9066 14.9996 37.5652 14.7827 38.5045C14.5728 39.4126 14.2998 39.4923 13.3796 39.1942C12.6833 38.9689 11.7771 39.475 10.9583 39.5096C9.92615 39.5547 8.69452 39.6379 8.63854 38.1475C8.58256 36.612 9.82818 36.7437 10.8639 36.6952C11.2103 36.6779 11.5567 36.6952 11.9031 36.6952C11.9031 36.7125 11.9031 36.7333 11.9031 36.7507L11.8996 36.7472Z" fill="url(#paint4_linear_716_1529)"/>
</g>
<defs>
<linearGradient id="paint0_linear_716_1529" x1="50.6248" y1="43.3336" x2="-4.3747" y2="44.5956" gradientUnits="userSpaceOnUse">
<stop stop-color="#CDB9FD"/>
<stop offset="1" stop-color="#7263D8"/>
</linearGradient>
<linearGradient id="paint1_linear_716_1529" x1="44.338" y1="35.5986" x2="15.5292" y2="35.9574" gradientUnits="userSpaceOnUse">
<stop stop-color="#CDB9FD"/>
<stop offset="1" stop-color="#7263D8"/>
</linearGradient>
<linearGradient id="paint2_linear_716_1529" x1="44.2467" y1="50.6886" x2="15.4715" y2="51.0537" gradientUnits="userSpaceOnUse">
<stop stop-color="#CDB9FD"/>
<stop offset="1" stop-color="#7263D8"/>
</linearGradient>
<linearGradient id="paint3_linear_716_1529" x1="18.3893" y1="50.5841" x2="7.83616" y2="50.6312" gradientUnits="userSpaceOnUse">
<stop stop-color="#CDB9FD"/>
<stop offset="1" stop-color="#7263D8"/>
</linearGradient>
<linearGradient id="paint4_linear_716_1529" x1="18.2144" y1="35.605" x2="7.80361" y2="35.6519" gradientUnits="userSpaceOnUse">
<stop stop-color="#CDB9FD"/>
<stop offset="1" stop-color="#7263D8"/>
</linearGradient>
<clipPath id="clip0_716_1529">
<rect width="95" height="78" fill="white"/>
</clipPath>
</defs>
</svg>
