<svg width="81" height="63" viewBox="0 0 81 63" fill="none" xmlns="http://www.w3.org/2000/svg">
<g clip-path="url(#clip0_726_1084)">
<path d="M55.3985 32.4715C50.0067 30.5517 45.1985 31.2168 41.2009 35.2044C37.2342 39.1641 36.7041 43.9509 38.578 49.3078C37.2679 49.3078 36.1486 49.3078 35.0265 49.3078C31.475 49.3106 27.9235 49.3274 24.372 49.3162C21.533 49.3078 20.2145 48.0419 20.2005 45.2643C20.1781 40.7597 20.1753 36.2579 20.2005 31.7533C20.2173 29.0651 21.5723 27.7769 24.3075 27.7713C28.7062 27.7629 33.1049 27.6902 37.4979 27.8048C39.5767 27.8579 40.8811 27.123 41.5993 25.1976C41.9219 24.3341 42.41 23.5321 42.814 22.6994C43.3638 21.5649 44.2503 20.9781 45.5295 20.9808C47.6868 20.9864 49.844 20.9557 51.9985 20.9948C53.735 21.0284 55.2582 22.0874 55.3508 23.6802C55.5191 26.5557 55.3985 29.4479 55.3985 32.4743V32.4715ZM29.8255 40.117C30.9223 40.117 32.0332 40.212 33.1133 40.0723C33.5565 40.0164 33.9352 39.4575 34.342 39.125C33.9408 38.7729 33.5565 38.1357 33.1385 38.1162C30.9897 38.0128 28.8324 38.0128 26.6835 38.1162C26.2628 38.1357 25.8672 38.7561 25.4632 39.0998C25.8616 39.4379 26.2291 40.008 26.6667 40.0667C27.7019 40.2092 28.7707 40.1142 29.8255 40.1142V40.117ZM29.7694 43.6156C30.9111 43.6156 32.0613 43.6966 33.189 43.5737C33.5986 43.529 33.9549 42.998 34.3336 42.6878C33.9745 42.3441 33.6266 41.7182 33.2507 41.7014C31.0149 41.6092 28.7707 41.6064 26.5349 41.7014C26.159 41.7182 25.8111 42.3441 25.4492 42.6878C25.8307 42.998 26.187 43.5206 26.6022 43.5737C27.643 43.7022 28.709 43.6156 29.7666 43.6156H29.7694Z" fill="#CDB9FD"/>
<path d="M50.1358 33.4462C56.0381 33.3931 60.765 38.0318 60.8351 43.9476C60.9053 49.8046 56.0774 54.6474 50.1554 54.6557C44.4242 54.6669 39.557 49.8829 39.4728 44.1599C39.3859 38.314 44.1801 33.4965 50.133 33.4434L50.1358 33.4462ZM50.2031 52.2581C54.8795 52.233 58.4815 48.6366 58.4675 44.0034C58.4534 39.3675 54.728 35.732 50.0235 35.7599C45.5575 35.7851 41.8377 39.5603 41.8573 44.0482C41.877 48.6226 45.5968 52.2833 50.2031 52.2609V52.2581Z" fill="#57A4FF"/>
<path d="M40.6514 23.1267C40.2979 23.8617 40.0006 24.4094 39.7677 24.9878C39.4535 25.7618 38.9037 26.0245 38.0817 26.0189C33.3492 25.9966 28.6139 26.0161 23.8813 26.0022C23.3483 26.0022 22.6049 26.2425 22.5993 25.2644C22.5937 24.3758 22.4703 23.4341 23.6008 23.0792C23.8365 23.0066 24.103 23.0149 24.3554 23.0149C29.5116 23.0149 34.6677 23.0205 39.8238 23.0289C40.0286 23.0289 40.2362 23.0764 40.6514 23.1295V23.1267Z" fill="#6FA2FA"/>
<path d="M48.8792 42.6178C48.8792 41.5168 48.8877 40.6003 48.8792 39.6837C48.8708 38.8174 49.2019 38.1328 50.1248 38.0937C51.1487 38.049 51.4657 38.8118 51.5106 39.6921C51.5415 40.2789 51.5751 40.8741 51.5106 41.4553C51.4012 42.4446 51.8585 42.7128 52.7618 42.6318C53.3902 42.5759 54.0298 42.5871 54.6581 42.643C55.4941 42.7184 56.1506 43.0957 56.1225 44.0458C56.0945 44.9959 55.4492 45.3032 54.5796 45.3284C53.6202 45.3563 52.3185 45.0769 51.8024 45.5771C51.2946 46.0717 51.5779 47.3767 51.5246 48.3268C51.4741 49.221 51.1796 49.9392 50.136 49.9056C49.0784 49.8721 48.8652 49.1204 48.8764 48.2318C48.8905 47.318 48.8792 46.4015 48.8792 45.3228C47.816 45.3228 46.9015 45.3088 45.987 45.3256C45.0332 45.3452 44.2393 45.1048 44.2561 43.9871C44.273 42.8945 45.0893 42.6318 46.015 42.6178C46.8959 42.6038 47.7768 42.615 48.8821 42.615L48.8792 42.6178Z" fill="#6FA2FA"/>
<circle cx="57" cy="8" r="3" fill="#D9777B"/>
<circle cx="63.5" cy="7.5" r="3.5" fill="#00E499"/>
<circle cx="70" cy="8" r="3" fill="#FFC780"/>
<path d="M40.486 0.078569C51.393 0.078569 62.3027 0.223878 73.2041 0.000325475C77.1315 -0.0807124 81.0225 3.63306 81 7.78276C80.9579 15.3975 80.986 23.0151 80.9888 30.6299C80.9888 38.5828 80.9972 46.5357 80.9888 54.4885C80.986 59.6163 77.5719 62.9947 72.399 62.9947C51.1349 62.9975 29.8708 62.9975 8.60664 62.9947C3.36635 62.9975 0 59.6247 0 54.3796C0 38.9377 0 23.4957 0 8.05382C0 5.10013 1.19225 2.70811 3.70579 1.15721C4.69606 0.54803 5.98088 0.131663 7.13105 0.126074C18.2484 0.0506249 29.3658 0.0813634 40.486 0.0813634V0.078569ZM78.6323 13.1844H2.43499C2.40133 13.5281 2.35364 13.774 2.35364 14.0199C2.35084 27.4889 2.33961 40.9608 2.35925 54.4299C2.36486 58.261 4.76619 60.6307 8.65433 60.6335C29.8399 60.6502 51.0283 60.6558 72.2138 60.639C76.3096 60.6363 78.6323 58.2359 78.6323 54.1616C78.6323 40.944 78.6323 27.7265 78.6323 14.5089C78.6323 14.0981 78.6323 13.6874 78.6323 13.1844ZM57.127 10.1608C58.4651 10.1552 59.6012 8.99833 59.6097 7.63466C59.6181 6.29613 58.4342 5.1113 57.1101 5.13366C55.7664 5.15601 54.619 6.31849 54.6218 7.65422C54.6218 8.97877 55.8085 10.1664 57.127 10.158V10.1608ZM67.2569 7.562C67.226 8.95362 68.2836 10.1049 69.647 10.1636C70.9767 10.2195 72.1549 9.10172 72.2166 7.72687C72.2756 6.36041 71.1899 5.18955 69.8153 5.13645C68.4463 5.08336 67.2877 6.17877 67.2569 7.562ZM60.9842 7.69055C61.0039 9.0654 62.1344 10.1887 63.4641 10.1608C64.7798 10.1329 65.9019 8.94803 65.8879 7.60112C65.8739 6.24863 64.7069 5.10292 63.38 5.13645C62.0194 5.16999 60.9646 6.29613 60.9842 7.68775V7.69055Z" fill="#7263D8"/>
</g>
<defs>
<clipPath id="clip0_726_1084">
<rect width="81" height="63" fill="white"/>
</clipPath>
</defs>
</svg>
