<svg width="140" height="135" viewBox="0 0 140 135" fill="none" xmlns="http://www.w3.org/2000/svg">
<g filter="url(#filter0_f_726_976)">
<path d="M4 35C4 21.1929 15.1929 10 29 10H103C116.807 10 128 21.1929 128 35V106C128 119.807 116.807 131 103 131H4V35Z" fill="black" fill-opacity="0.5"/>
</g>
<path d="M4 35C4 21.1929 15.1929 10 29 10H103C116.807 10 128 21.1929 128 35V106C128 119.807 116.807 131 103 131H4V35Z" fill="url(#paint0_linear_726_976)"/>
<g style="mix-blend-mode:overlay">
<mask id="mask0_726_976" style="mask-type:alpha" maskUnits="userSpaceOnUse" x="4" y="10" width="124" height="121">
<rect x="4" y="10" width="124" height="121" rx="25" fill="url(#paint1_linear_726_976)"/>
</mask>
<g mask="url(#mask0_726_976)">
<path opacity="0.3" d="M4 10H128V131L62.9 71.71L4 10Z" fill="url(#paint2_linear_726_976)"/>
</g>
</g>
<path fill-rule="evenodd" clip-rule="evenodd" d="M58.7155 41.2255C44.5494 42.9785 33.4435 53.8193 31.2619 68.0236C30.9134 70.2926 30.9126 74.7024 31.2601 76.9813C31.8043 80.5493 32.8036 83.6783 34.3909 86.7857C39.2071 96.2138 48.3294 102.558 58.8326 103.784C64.79 104.48 70.7787 103.485 76.17 100.904L78.0623 99.9974L78.7743 100.568C80.3874 101.859 82.7112 102.985 84.9997 103.582C86.1246 103.876 86.6223 103.919 88.8262 103.913C91.0936 103.907 91.5081 103.866 92.7749 103.526C95.5662 102.777 98.2222 101.265 100.187 99.307C106.607 92.9102 106.604 82.7123 100.182 76.3318C98.8027 74.962 97.2815 73.9208 95.4028 73.0607L94.0377 72.4357L94.0369 71.1326C94.0366 70.416 93.9085 68.9628 93.7525 67.9037C92.7223 60.9161 89.6091 54.8772 84.4633 49.885C81.9038 47.4019 79.7281 45.857 76.5649 44.2761C71.192 41.5908 64.7123 40.4835 58.7155 41.2255ZM66.5432 43.5423C79.2856 45.316 89.4265 55.2046 91.4273 67.8069C91.805 70.1861 91.8678 71.8687 91.5767 71.804C91.4572 71.7776 90.5415 71.7195 89.5416 71.6751C86.5475 71.5422 83.7207 72.1704 81.1537 73.5393C79.947 74.1828 78.4109 75.278 77.7609 75.9583C77.5271 76.2031 77.2848 76.4033 77.2226 76.4033C77.1603 76.4033 76.6232 76.0866 76.0291 75.6996C74.6967 74.8314 72.7906 74.0179 71.1651 73.6236C70.4883 73.4593 69.8472 73.3021 69.7402 73.2742C69.6322 73.2461 69.9361 72.9308 70.4233 72.5651C72.374 71.1016 73.8594 68.9289 74.7135 66.2898C75.2917 64.5035 75.3894 61.673 74.9401 59.7321C73.8633 55.0819 70.345 51.4858 65.6405 50.2273C63.9553 49.7765 61.0444 49.7791 59.3669 50.2329C54.828 51.4608 51.385 54.8971 50.1546 59.4271C49.6999 61.1013 49.6973 64.0065 50.149 65.6884C50.7551 67.9451 51.7123 69.6569 53.32 71.3596C53.816 71.8848 54.4826 72.4949 54.8014 72.7154C55.1201 72.9357 55.3509 73.1646 55.3143 73.2238C55.2775 73.2829 54.9874 73.3729 54.6695 73.4236C52.9245 73.702 50.305 74.8095 48.3763 76.084C46.963 77.018 44.7532 79.2572 43.7468 80.7751C41.9699 83.4555 41.1369 86.0554 40.8752 89.7376L40.713 92.0192L40.3731 91.6158C36.6987 87.256 34.539 82.6305 33.574 77.0535C33.2243 75.0324 33.2243 69.9725 33.574 67.9513C34.636 61.8136 37.2397 56.6127 41.4118 52.2949C46.0339 47.5112 51.9091 44.4984 58.483 43.5408C60.3579 43.2676 64.5761 43.2685 66.5432 43.5423ZM65.7365 52.6259C68.747 53.6361 71.0853 55.8413 72.2822 58.7988C73.3748 61.4985 73.2232 64.4917 71.8516 67.3012C71.357 68.3143 71.01 68.7708 69.8695 69.909C68.729 71.0474 68.2716 71.3937 67.2565 71.8872C65.5241 72.7297 64.451 72.9808 62.5517 72.9882C60.6599 72.9954 59.5794 72.7485 57.9193 71.9299C55.2986 70.6375 53.5329 68.6194 52.5425 65.7842C52.1739 64.7295 52.1389 64.4513 52.1418 62.6056C52.1447 60.8044 52.1874 60.4564 52.5313 59.4271C53.7329 55.831 56.6481 53.1972 60.3802 52.3357C61.785 52.0115 64.3139 52.1484 65.7365 52.6259ZM91.5466 74.1766C94.0694 74.6955 96.3731 75.9004 98.272 77.6943C101.407 80.6558 102.901 84.3456 102.682 88.5835C102.505 92.0012 101.258 94.8472 98.8151 97.4071C97.0325 99.2749 95.1364 100.441 92.6317 101.208C91.4626 101.567 91.1544 101.599 88.8262 101.607C86.5714 101.614 86.1654 101.577 85.1347 101.273C79.9887 99.7561 76.2125 95.7593 75.1516 90.7067C74.1714 86.0388 75.5721 81.3637 78.9659 77.9761C81.0853 75.8607 83.2968 74.7391 86.7271 74.0398C87.5087 73.8805 90.5224 73.966 91.5466 74.1766ZM70.0351 75.676C70.7273 75.8288 71.7908 76.1525 72.3985 76.3953C73.5289 76.847 75.4242 77.885 75.5809 78.1381C75.629 78.2157 75.478 78.5559 75.2454 78.8944C74.1925 80.4256 73.2083 82.8578 72.8184 84.8915C72.5445 86.3196 72.5547 89.3582 72.8381 90.8496C73.2581 93.0584 74.4166 95.6928 75.73 97.425L76.3873 98.2918L75.1152 98.9021C72.5041 100.155 69.4715 101.056 66.4449 101.478C63.8462 101.841 59.2916 101.702 56.8335 101.186C52.126 100.196 47.9949 98.2645 44.1566 95.2578L43.0501 94.3909L43.1219 91.2846C43.199 87.9566 43.4441 86.5223 44.2581 84.6386C46.2887 79.9395 50.3715 76.5824 55.2412 75.6076C55.9227 75.471 57.918 75.4163 62.4793 75.4087C68.183 75.3992 68.8952 75.4245 70.0351 75.676ZM87.1173 78.2223C85.6061 78.9739 85.0623 80.1192 85.0623 82.5503V84.0217L83.2684 84.0906C81.6077 84.1545 81.4171 84.1919 80.6989 84.5946C78.0606 86.0737 78.0746 89.6309 80.7247 91.0616C81.4518 91.4541 81.6588 91.4935 83.289 91.5486L85.0623 91.6084V93.0818C85.0623 95.5332 85.6117 96.6746 87.1537 97.4276C88.7012 98.1832 90.4129 97.8434 91.5496 96.5545C92.2812 95.725 92.4453 95.1106 92.4453 93.1997V91.6084L94.2186 91.5433C96.1949 91.4706 96.8359 91.2786 97.6382 90.5188C99.2038 89.0365 99.1773 86.4872 97.5816 85.0891C96.7007 84.3172 96.1822 84.1633 94.2186 84.091L92.4453 84.0259V82.4346C92.4453 80.5237 92.2812 79.9093 91.5496 79.0798C90.4218 77.801 88.6525 77.4588 87.1173 78.2223ZM89.4238 80.2416C90.15 80.6165 90.2738 81.1509 90.2738 83.9116V86.3724H92.8144C95.4999 86.3724 96.0232 86.4781 96.3495 87.0868C96.6144 87.5808 96.5238 88.3497 96.1496 88.7843L95.8004 89.1897L93.0372 89.2346L90.2738 89.2794V91.7315C90.2738 94.4828 90.1495 95.0181 89.4238 95.3927C88.8795 95.6736 88.7686 95.6739 88.1805 95.3953C87.4522 95.0505 87.3786 94.725 87.3786 91.8558V89.2619H84.7589C81.9185 89.2619 81.4989 89.1656 81.166 88.4367C80.8878 87.8271 80.9829 87.3808 81.5012 86.8636L81.9934 86.3724H84.686H87.3786V83.7785C87.3786 80.928 87.4528 80.5912 88.1578 80.244C88.7285 79.9631 88.8837 79.9629 89.4238 80.2416Z" fill="white"/>
<path fill-rule="evenodd" clip-rule="evenodd" d="M107.729 11.0133L107.344 31.5526L106.635 31.5393L107.021 11.0001L107.729 11.0133Z" fill="white"/>
<path fill-rule="evenodd" clip-rule="evenodd" d="M106.649 30.8309L127.258 31.2176L127.245 31.9258L106.635 31.5391L106.649 30.8309Z" fill="white"/>
<path d="M116.271 17.0127V27H114.624V18.9678L112.184 19.7949V18.4346L116.073 17.0127H116.271Z" fill="white"/>
<defs>
<filter id="filter0_f_726_976" x="0" y="6" width="132" height="129" filterUnits="userSpaceOnUse" color-interpolation-filters="sRGB">
<feFlood flood-opacity="0" result="BackgroundImageFix"/>
<feBlend mode="normal" in="SourceGraphic" in2="BackgroundImageFix" result="shape"/>
<feGaussianBlur stdDeviation="2" result="effect1_foregroundBlur_726_976"/>
</filter>
<linearGradient id="paint0_linear_726_976" x1="48.64" y1="45.09" x2="65.1901" y2="150.487" gradientUnits="userSpaceOnUse">
<stop stop-color="#7263D8"/>
<stop offset="1" stop-color="#362E75"/>
</linearGradient>
<linearGradient id="paint1_linear_726_976" x1="6.88372" y1="67.3158" x2="123.674" y2="67.3158" gradientUnits="userSpaceOnUse">
<stop stop-color="#07569E"/>
<stop offset="1" stop-color="#0093DD"/>
</linearGradient>
<linearGradient id="paint2_linear_726_976" x1="120.56" y1="120.715" x2="-9.27571" y2="-21.0038" gradientUnits="userSpaceOnUse">
<stop offset="0.116225" stop-color="white" stop-opacity="0"/>
<stop offset="1" stop-color="white"/>
</linearGradient>
</defs>
</svg>
