<svg width="140" height="135" viewBox="0 0 140 135" fill="none" xmlns="http://www.w3.org/2000/svg">
<g filter="url(#filter0_f_726_1008)">
<path d="M4 35C4 21.1929 15.1929 10 29 10H103C116.807 10 128 21.1929 128 35V106C128 119.807 116.807 131 103 131H4V35Z" fill="black" fill-opacity="0.5"/>
</g>
<path d="M4 35C4 21.1929 15.1929 10 29 10H103C116.807 10 128 21.1929 128 35V106C128 119.807 116.807 131 103 131H4V35Z" fill="url(#paint0_linear_726_1008)"/>
<g style="mix-blend-mode:overlay">
<mask id="mask0_726_1008" style="mask-type:alpha" maskUnits="userSpaceOnUse" x="4" y="10" width="124" height="121">
<rect x="4" y="10" width="124" height="121" rx="25" fill="url(#paint1_linear_726_1008)"/>
</mask>
<g mask="url(#mask0_726_1008)">
<path opacity="0.3" d="M4 10H128V131L62.9 71.71L4 10Z" fill="url(#paint2_linear_726_1008)"/>
</g>
</g>
<path fill-rule="evenodd" clip-rule="evenodd" d="M107.729 11.0133L107.343 31.5526L106.635 31.5393L107.021 11.0001L107.729 11.0133Z" fill="white"/>
<path fill-rule="evenodd" clip-rule="evenodd" d="M106.649 30.8309L127.258 31.2176L127.245 31.9258L106.635 31.5391L106.649 30.8309Z" fill="white"/>
<path d="M118.445 26.6875V28H111.773V26.8721L115.014 23.3379C115.369 22.9368 115.649 22.5905 115.854 22.2988C116.06 22.0072 116.203 21.7451 116.285 21.5127C116.372 21.2757 116.415 21.0456 116.415 20.8223C116.415 20.5078 116.356 20.2321 116.237 19.9951C116.123 19.7536 115.955 19.5645 115.731 19.4277C115.508 19.2865 115.237 19.2158 114.918 19.2158C114.549 19.2158 114.239 19.2956 113.988 19.4551C113.738 19.6146 113.549 19.8356 113.421 20.1182C113.293 20.3962 113.229 20.7152 113.229 21.0752H111.582C111.582 20.4964 111.714 19.9678 111.979 19.4893C112.243 19.0062 112.626 18.6234 113.127 18.3408C113.628 18.0537 114.232 17.9102 114.938 17.9102C115.604 17.9102 116.169 18.0218 116.634 18.2451C117.099 18.4684 117.452 18.7852 117.693 19.1953C117.939 19.6055 118.062 20.0908 118.062 20.6514C118.062 20.9613 118.012 21.2689 117.912 21.5742C117.812 21.8796 117.668 22.1849 117.481 22.4902C117.299 22.791 117.083 23.0941 116.832 23.3994C116.581 23.7002 116.306 24.0055 116.005 24.3154L113.852 26.6875H118.445Z" fill="white"/>
<path d="M58.1428 89.1834C58.557 89.1834 58.8928 88.8476 58.8928 88.4334C58.8928 88.0192 58.557 87.6834 58.1428 87.6834V89.1834ZM58.1428 87.6834H35.3571V89.1834H58.1428V87.6834ZM35.3571 87.6834C28.3992 87.6834 22.75 82.048 22.75 75.1167H21.25C21.25 82.8807 27.5751 89.1834 35.3571 89.1834V87.6834ZM22.75 75.1167C22.75 68.1854 28.3992 62.55 35.3571 62.55V61.05C27.5751 61.05 21.25 67.3527 21.25 75.1167H22.75ZM35.3571 62.55H57.9071V61.05H35.3571V62.55Z" fill="white"/>
<path d="M74.8943 87.6834C74.4801 87.6834 74.1443 88.0192 74.1443 88.4334C74.1443 88.8476 74.4801 89.1834 74.8943 89.1834V87.6834ZM73.9672 62.55H96.6428V61.05H73.9672V62.55ZM96.6428 62.55C103.601 62.55 109.25 68.1854 109.25 75.1167H110.75C110.75 67.3527 104.425 61.05 96.6428 61.05V62.55ZM109.25 75.1167C109.25 82.048 103.601 87.6834 96.6428 87.6834V89.1834C104.425 89.1834 110.75 82.8807 110.75 75.1167H109.25ZM96.6428 87.6834H74.8943V89.1834H96.6428V87.6834Z" fill="white"/>
<path d="M65.9999 64.9333C72.0751 64.9333 76.9999 60.0234 76.9999 53.9667C76.9999 47.9099 72.0751 43 65.9999 43C59.9248 43 54.9999 47.9099 54.9999 53.9667C54.9999 60.0234 59.9248 64.9333 65.9999 64.9333Z" stroke="white" stroke-width="1.5"/>
<path d="M70.9028 54.3111L63.8313 58.3845C63.5642 58.5411 63.2342 58.3532 63.2342 58.0398V49.8932C63.2342 49.5955 63.5642 49.4075 63.8313 49.5485L70.9028 53.6218C71.1699 53.7785 71.1699 54.1545 70.9028 54.2955V54.3111Z" stroke="white"/>
<path d="M44.5028 81.3835H41.4699V80.4121H44.5028C45.4614 80.4121 46.2942 80.1928 46.9856 79.7698C47.6928 79.3311 48.2271 78.7358 48.6042 77.9681C48.9814 77.2005 49.1699 76.3231 49.1699 75.3048V74.0515C49.1699 73.2838 49.0599 72.5788 48.8399 71.9521C48.6199 71.3255 48.3214 70.7928 47.9128 70.3541C47.5042 69.8998 47.0171 69.5708 46.4514 69.3201C45.8856 69.0851 45.2728 68.9598 44.5657 68.9598H41.3914V67.9885H44.5657C45.3985 67.9885 46.1685 68.1295 46.8599 68.4271C47.5671 68.7091 48.1642 69.1165 48.6671 69.6648C49.1856 70.1975 49.5785 70.8398 49.8614 71.5761C50.1442 72.3281 50.2856 73.1585 50.2856 74.0671V75.2891C50.2856 76.2135 50.1442 77.0438 49.8614 77.7801C49.5785 78.5321 49.1856 79.1588 48.6671 79.6915C48.1485 80.2241 47.5356 80.6315 46.8285 80.9291C46.1214 81.2111 45.3357 81.3521 44.4714 81.3521L44.5028 81.3835ZM41.9728 68.0198V81.3835H40.8414V68.0198H41.9728ZM61.5213 80.4121V81.3835H53.9785V80.4121H61.5213ZM54.3242 68.0198V81.3835H53.1928V68.0198H54.3242ZM60.5785 74.0045V74.9758H53.9785V74.0045H60.5785ZM61.4742 68.0198V68.9911H53.9785V68.0198H61.4742ZM64.2713 68.0198H65.4185L70.3685 79.7855L75.3342 68.0198H76.4656L70.8085 81.3835H69.9442L64.2871 68.0198H64.2713ZM63.9256 68.0198H64.9313L65.0571 75.5398V81.3835H63.9413V68.0198H63.9256ZM75.837 68.0198H76.8428V81.3835H75.7113V75.5398L75.837 68.0198ZM90.137 73.9888V75.4145C90.137 76.3545 90.0113 77.2005 89.7756 77.9525C89.5399 78.7045 89.1785 79.3468 88.7227 79.8951C88.267 80.4278 87.717 80.8508 87.0885 81.1328C86.4442 81.4148 85.737 81.5715 84.9356 81.5715C84.1342 81.5715 83.4427 81.4305 82.7985 81.1328C82.1542 80.8508 81.6042 80.4278 81.1485 79.8951C80.6927 79.3625 80.3313 78.7045 80.0799 77.9525C79.8285 77.2005 79.7028 76.3388 79.7028 75.4145V73.9888C79.7028 73.0488 79.8285 72.2028 80.0642 71.4508C80.3156 70.6988 80.677 70.0408 81.1328 69.5081C81.5885 68.9755 82.1385 68.5525 82.7827 68.2705C83.427 67.9885 84.1342 67.8318 84.9042 67.8318C85.6742 67.8318 86.4127 67.9728 87.057 68.2705C87.7013 68.5525 88.2513 68.9755 88.707 69.5081C89.1627 70.0408 89.5242 70.6988 89.7599 71.4508C90.0113 72.2028 90.1213 73.0488 90.1213 73.9888H90.137ZM89.0213 75.4145V73.9575C89.0213 73.1741 88.927 72.4535 88.7385 71.8268C88.5656 71.2001 88.2985 70.6518 87.937 70.2131C87.5913 69.7588 87.1513 69.4298 86.6485 69.1791C86.1456 68.9441 85.5642 68.8188 84.9042 68.8188C84.2442 68.8188 83.7099 68.9441 83.207 69.1791C82.7042 69.4141 82.2799 69.7588 81.9185 70.2131C81.5728 70.6675 81.3056 71.2001 81.1013 71.8268C80.9128 72.4535 80.8185 73.1741 80.8185 73.9575V75.4145C80.8185 76.2135 80.9128 76.9185 81.1013 77.5608C81.2899 78.1875 81.557 78.7358 81.9185 79.1901C82.2799 79.6445 82.7042 79.9735 83.207 80.2241C83.7099 80.4591 84.2913 80.5845 84.9199 80.5845C85.5485 80.5845 86.1613 80.4591 86.6642 80.2241C87.167 79.9891 87.5913 79.6445 87.937 79.1901C88.2827 78.7358 88.5499 78.2031 88.7227 77.5608C88.9113 76.9185 89.0056 76.2135 89.0056 75.4145H89.0213Z" fill="white"/>
<path d="M62.3856 90C63.2534 90 63.957 89.2986 63.957 88.4334C63.957 87.5681 63.2534 86.8667 62.3856 86.8667C61.5177 86.8667 60.8141 87.5681 60.8141 88.4334C60.8141 89.2986 61.5177 90 62.3856 90Z" fill="white"/>
<path d="M71.1786 89.6867C71.8295 89.6867 72.3571 89.1606 72.3571 88.5117C72.3571 87.8627 71.8295 87.3367 71.1786 87.3367C70.5277 87.3367 70 87.8627 70 88.5117C70 89.1606 70.5277 89.6867 71.1786 89.6867Z" fill="white"/>
<path d="M67.1 89.8434C67.8811 89.8434 68.5143 89.2122 68.5143 88.4334C68.5143 87.6547 67.8811 87.0234 67.1 87.0234C66.3189 87.0234 65.6857 87.6547 65.6857 88.4334C65.6857 89.2122 66.3189 89.8434 67.1 89.8434Z" fill="white"/>
<defs>
<filter id="filter0_f_726_1008" x="0" y="6" width="132" height="129" filterUnits="userSpaceOnUse" color-interpolation-filters="sRGB">
<feFlood flood-opacity="0" result="BackgroundImageFix"/>
<feBlend mode="normal" in="SourceGraphic" in2="BackgroundImageFix" result="shape"/>
<feGaussianBlur stdDeviation="2" result="effect1_foregroundBlur_726_1008"/>
</filter>
<linearGradient id="paint0_linear_726_1008" x1="48.64" y1="45.09" x2="65.1901" y2="150.487" gradientUnits="userSpaceOnUse">
<stop stop-color="#7263D8"/>
<stop offset="1" stop-color="#362E75"/>
</linearGradient>
<linearGradient id="paint1_linear_726_1008" x1="6.88372" y1="67.3158" x2="123.674" y2="67.3158" gradientUnits="userSpaceOnUse">
<stop stop-color="#07569E"/>
<stop offset="1" stop-color="#0093DD"/>
</linearGradient>
<linearGradient id="paint2_linear_726_1008" x1="120.56" y1="120.715" x2="-9.27571" y2="-21.0038" gradientUnits="userSpaceOnUse">
<stop offset="0.116225" stop-color="white" stop-opacity="0"/>
<stop offset="1" stop-color="white"/>
</linearGradient>
</defs>
</svg>
