<svg width="140" height="135" viewBox="0 0 140 135" fill="none" xmlns="http://www.w3.org/2000/svg">
<g filter="url(#filter0_f_726_988)">
<path d="M4 35C4 21.1929 15.1929 10 29 10H103C116.807 10 128 21.1929 128 35V106C128 119.807 116.807 131 103 131H4V35Z" fill="black" fill-opacity="0.5"/>
</g>
<path d="M4 35C4 21.1929 15.1929 10 29 10H103C116.807 10 128 21.1929 128 35V106C128 119.807 116.807 131 103 131H4V35Z" fill="url(#paint0_linear_726_988)"/>
<g style="mix-blend-mode:overlay">
<mask id="mask0_726_988" style="mask-type:alpha" maskUnits="userSpaceOnUse" x="4" y="10" width="124" height="121">
<rect x="4" y="10" width="124" height="121" rx="25" fill="url(#paint1_linear_726_988)"/>
</mask>
<g mask="url(#mask0_726_988)">
<path opacity="0.3" d="M4 10H128V131L62.9 71.71L4 10Z" fill="url(#paint2_linear_726_988)"/>
</g>
</g>
<path fill-rule="evenodd" clip-rule="evenodd" d="M107.729 11.0133L107.343 31.5526L106.635 31.5393L107.021 11.0001L107.729 11.0133Z" fill="white"/>
<path fill-rule="evenodd" clip-rule="evenodd" d="M106.649 30.8309L127.258 31.2176L127.245 31.9258L106.635 31.5391L106.649 30.8309Z" fill="white"/>
<path d="M118.63 24.4521V25.7646H111.452L111.397 24.7734L115.69 18.0469H117.01L115.581 20.4941L113.113 24.4521H118.63ZM117.386 18.0469V28H115.738V18.0469H117.386Z" fill="white"/>
<g clip-path="url(#clip0_726_988)">
<path d="M95.2187 34.7436C94.7919 39.0858 94.5802 43.4654 93.9121 47.7509C92.6233 56.0141 89.5332 63.5964 84.0632 70.0518C83.1332 71.1613 83.0128 71.9193 83.8297 73.1857C86.5525 77.4073 86.0043 81.5593 82.9853 85.3842C79.9663 89.2092 75.9273 91.4971 71.2316 92.6568C70.5353 92.8295 69.3522 92.7045 69.0048 92.2472C68.6608 91.8126 68.9131 90.6881 69.2326 90.0162C70.7262 86.7415 70.8665 85.3329 69.7871 82.9259C66.857 84.0547 63.9008 85.1642 61.0035 86.3576C60.5873 86.535 60.3134 87.2001 60.1071 87.6933C57.4869 93.2631 52.1412 94.7505 46.8866 96.2244C46.3725 96.3701 44.8552 95.0919 44.8557 94.4674C44.7955 89.0411 44.7219 83.5243 49.4829 79.5101C49.8756 79.1743 50.2641 78.654 50.3109 78.1845C50.6202 75.2475 50.8089 72.2822 51.0645 68.9831C48.6124 68.4682 46.6703 69.8204 44.7451 71.2858C43.9919 71.8601 43.065 72.2059 42.2233 72.6546C41.867 71.6667 41.1883 70.7036 41.1806 69.7102C41.1255 65.4164 42.1564 61.3778 44.5018 57.7222C47.3034 53.3745 51.2643 51.8151 56.377 52.837C57.1693 52.997 58.5299 52.7487 58.8923 52.2092C66.2222 41.3377 76.8475 35.2504 89.1548 31.55C89.4899 31.454 89.772 31.1577 90.0709 30.9746C91.5521 30.7547 93.0562 30.5314 94.5375 30.3115L95.1959 34.747L95.2187 34.7436ZM77.1761 39.5035C76.5522 39.8506 76.2077 40.0405 75.8861 40.227C65.3874 46.2262 58.8673 55.3353 55.2302 66.6069C55.0052 67.2879 55.5258 68.5984 56.1078 69.0671C60.1091 72.1737 64.1916 75.1989 68.3678 78.0714C69.0181 78.5299 70.5524 78.5103 71.2313 78.0626C80.7565 71.4678 87.4906 62.8589 90.3227 51.4986C90.7196 49.9363 90.5718 48.9406 89.1209 47.9533C85.7224 45.6129 82.4599 43.0905 79.1163 40.6495C78.466 40.1909 77.7379 39.8364 77.1761 39.5035ZM44.3208 67.4862C46.9535 66.8642 49.609 66.2387 52.424 65.5895C52.9812 64.1654 53.5993 62.524 54.2891 60.8951C54.9823 59.2888 55.77 57.6917 56.5121 56.1012C50.0578 53.7288 44.0828 59.4497 44.3242 67.5089L44.3208 67.4862ZM72.8033 80.651C72.9625 83.449 73.1344 86.1758 73.2961 88.8347C81.186 86.5996 84.9485 79.3107 80.7875 74.0305C78.071 76.2841 75.3316 78.541 72.8033 80.651ZM66.3157 81.0358C62.2105 78.014 58.0007 74.9152 53.8693 71.8741C52.7962 75.2098 54.5323 78.537 59.0776 81.8558C61.872 83.8927 62.3734 83.8182 66.3157 81.0358ZM52.6264 80.9169C48.5787 83.4606 46.6761 88.5306 48.1818 93.0254C52.5402 91.4764 56.9449 90.0824 57.9646 85.0278C56.0196 83.5356 54.3361 82.2359 52.6264 80.9169ZM81.0986 37.3716C84.7264 40.0017 88.2008 42.539 91.6979 45.0728C91.8388 41.6289 92.0137 37.7867 92.2026 33.4105C87.9776 34.9165 84.3739 36.2147 81.0986 37.3716Z" fill="white"/>
<path d="M77.4598 61.341C73.5595 61.8968 70.1797 59.3687 69.6053 55.499C69.0409 51.6971 71.6377 48.1661 75.4139 47.5593C79.2585 46.9424 83.0305 49.7592 83.5037 53.5746C83.977 57.39 81.3144 60.7919 77.4598 61.341ZM80.6974 53.9681C80.4298 51.6949 78.171 49.9718 75.8727 50.3361C73.6394 50.6676 72.1045 52.7226 72.3915 54.9697C72.6886 57.2848 74.5686 58.8097 76.8642 58.5846C79.2739 58.3425 80.975 56.3091 80.6974 53.9681Z" fill="white"/>
<path d="M70.752 62.7532C69.9991 64.1139 69.2166 65.4327 68.3852 66.7357C67.994 67.3951 67.6585 68.1157 67.0842 68.6404C66.5099 69.1651 65.8834 69.6513 65.0477 69.9835L64.9169 69.8872C65.0171 68.9935 65.3527 68.2729 65.7439 67.6135C66.1318 66.9315 66.7617 66.4679 67.3065 65.9013C68.3765 64.7942 69.4955 63.7029 70.644 62.6536L70.7748 62.7498L70.752 62.7532Z" fill="white"/>
<path d="M36.683 85.2264C37.7401 83.4042 38.8267 81.6239 39.9394 79.8629C40.4827 78.9727 40.9476 78.0248 41.6705 77.2468C42.3969 76.4914 43.1721 75.7518 44.16 75.1889L44.2907 75.2851C44.0384 76.4096 43.5702 77.3349 43.0302 78.2476C42.4903 79.1604 41.7117 79.8773 41.0115 80.652C39.6406 82.2432 38.2403 83.7926 36.7876 85.3034L36.6569 85.2072L36.683 85.2264Z" fill="white"/>
<path d="M58.086 102.634C59.143 100.811 60.2296 99.0312 61.3424 97.2701C61.8857 96.38 62.3505 95.4321 63.0735 94.654C63.7998 93.8986 64.5751 93.159 65.5629 92.5961L65.6937 92.6923C65.4413 93.8168 64.9731 94.7421 64.4332 95.6549C63.8933 96.5676 63.1146 97.2846 62.4144 98.0592C61.0436 99.6505 59.6432 101.2 58.1905 102.711L58.0598 102.614L58.086 102.634Z" fill="white"/>
<path d="M49.1843 105.898C50.2414 104.076 51.328 102.295 52.4408 100.534C52.9841 99.6441 53.4489 98.6962 54.1719 97.9182C54.8982 97.1627 55.6735 96.4232 56.6613 95.8602L56.792 95.9565C56.5397 97.081 56.0715 98.0062 55.5316 98.919C54.9916 99.8318 54.213 100.549 53.5128 101.323C52.142 102.915 50.7416 104.464 49.2889 105.975L49.1582 105.879L49.1843 105.898Z" fill="white"/>
<path d="M36.4229 108.579C37.48 106.757 38.5665 104.976 39.6793 103.215C40.2226 102.325 40.6874 101.377 41.4104 100.599C42.1367 99.8437 42.912 99.1041 43.8998 98.5411L44.0306 98.6374C43.7783 99.7619 43.31 100.687 42.7701 101.6C42.2302 102.513 41.4515 103.23 40.7514 104.004C39.3805 105.596 37.9801 107.145 36.5275 108.656L36.3967 108.559L36.4229 108.579Z" fill="white"/>
<path d="M34.7299 97.1732C35.787 95.351 36.8736 93.5707 37.9863 91.8097C38.5296 90.9195 38.9944 89.9716 39.7174 89.1936C40.4438 88.4381 41.219 87.6986 42.2068 87.1356L42.3376 87.2319C42.0853 88.3564 41.6171 89.2816 41.0771 90.1944C40.5372 91.1072 39.7585 91.8241 39.0584 92.5988C37.6875 94.19 36.2871 95.7394 34.8345 97.2502L34.7037 97.154L34.7299 97.1732Z" fill="white"/>
</g>
<defs>
<filter id="filter0_f_726_988" x="0" y="6" width="132" height="129" filterUnits="userSpaceOnUse" color-interpolation-filters="sRGB">
<feFlood flood-opacity="0" result="BackgroundImageFix"/>
<feBlend mode="normal" in="SourceGraphic" in2="BackgroundImageFix" result="shape"/>
<feGaussianBlur stdDeviation="2" result="effect1_foregroundBlur_726_988"/>
</filter>
<linearGradient id="paint0_linear_726_988" x1="48.64" y1="45.09" x2="65.1901" y2="150.487" gradientUnits="userSpaceOnUse">
<stop stop-color="#7263D8"/>
<stop offset="1" stop-color="#362E75"/>
</linearGradient>
<linearGradient id="paint1_linear_726_988" x1="6.88372" y1="67.3158" x2="123.674" y2="67.3158" gradientUnits="userSpaceOnUse">
<stop stop-color="#07569E"/>
<stop offset="1" stop-color="#0093DD"/>
</linearGradient>
<linearGradient id="paint2_linear_726_988" x1="120.56" y1="120.715" x2="-9.27571" y2="-21.0038" gradientUnits="userSpaceOnUse">
<stop offset="0.116225" stop-color="white" stop-opacity="0"/>
<stop offset="1" stop-color="white"/>
</linearGradient>
<clipPath id="clip0_726_988">
<rect width="69" height="69" fill="white" transform="translate(26.3081 40.4397) rotate(-8.44356)"/>
</clipPath>
</defs>
</svg>
