<svg width="85" height="103" viewBox="0 0 85 103" fill="none" xmlns="http://www.w3.org/2000/svg">
<g clip-path="url(#clip0_706_1104)">
<path d="M80.6093 56.9289C80.6093 51.6155 80.5646 46.302 80.6252 40.9918C80.6699 37.0114 78.956 34.1715 75.4451 32.2539C71.8129 30.2733 68.2509 28.1662 64.657 26.1128C64.3346 25.9296 64.0059 25.7527 63.6995 25.5442C62.7164 24.8777 62.4132 23.971 63.0196 22.9507C63.6357 21.9177 64.6347 21.7566 65.6496 22.3157C67.9317 23.5635 70.1755 24.8714 72.4353 26.1602C74.1875 27.1585 75.9302 28.1694 77.6889 29.1581C82.0902 31.6316 84.4298 35.3782 84.4553 40.3757C84.5192 51.4733 84.5223 62.5709 84.4553 73.6685C84.4266 78.5902 82.17 82.321 77.8229 84.7945C68.4201 90.149 59.0045 95.4846 49.6399 100.909C44.814 103.704 40.1445 103.695 35.3186 100.893C26.0051 95.4909 16.6374 90.1806 7.27285 84.8608C2.75017 82.2926 0.54149 78.4354 0.512765 73.3178C0.493614 70.1051 0.509573 66.8956 0.509573 63.6829C0.509573 56.1676 0.54149 48.6523 0.50319 41.1402C0.474464 35.6214 2.82677 31.5684 7.73885 28.9022C11.3295 26.9531 14.8405 24.865 18.3865 22.8401C18.6163 22.7074 18.8461 22.5716 19.0759 22.4452C20.1962 21.8229 21.275 21.7787 21.9772 22.9791C22.6762 24.1764 22.1272 25.0893 21.0069 25.7338C17.4641 27.765 13.9978 29.9479 10.3561 31.7864C6.06319 33.9535 4.25028 37.1978 4.33008 41.9616C4.49924 52.2157 4.42902 62.4761 4.35242 72.7366C4.3205 76.8243 5.91637 79.7496 9.54856 81.7871C18.9418 87.0563 28.2745 92.4235 37.6103 97.7906C40.9137 99.6892 44.1214 99.6766 47.4216 97.7812C56.8022 92.3887 66.189 87.0058 75.6174 81.6892C79.0677 79.7432 80.6795 76.9191 80.6412 73.024C80.5869 67.6601 80.6284 62.2961 80.6284 56.9321H80.622L80.6093 56.9289Z" fill="#7263D8"/>
<path d="M42.4714 73.1761C44.2811 73.1761 46.0908 73.1508 47.8973 73.1792C51.737 73.2424 54.718 75.9908 54.8872 79.7847C55.0149 82.6215 55.0085 85.4741 54.8617 88.3109C54.8234 89.0596 54.2265 90.0515 53.5818 90.4527C50.7954 92.1901 47.9101 93.7791 45.0311 95.3681C43.3236 96.3095 41.549 96.2652 39.8478 95.3175C37.0199 93.7412 34.1729 92.1964 31.4407 90.4716C30.7673 90.0452 30.1672 88.9932 30.1194 88.194C29.9598 85.4646 29.9917 82.7194 30.0811 79.9837C30.2055 76.0855 33.1292 73.2677 37.0486 73.1824C38.8551 73.1445 40.6648 73.1761 42.4746 73.1729L42.4714 73.1761Z" fill="#FE6B89"/>
<path d="M20.2636 65.9482C22.0701 65.9482 23.8798 65.9292 25.6864 65.9545C27.6971 65.983 29.4143 66.719 30.7836 68.1943C31.7028 69.1862 31.773 70.1686 30.6176 71.0216C27.0748 73.6435 25.6512 77.1911 25.8587 81.4842C25.9162 82.6909 25.9034 83.9071 25.8523 85.1139C25.7981 86.4059 25.0735 86.8829 23.9692 86.2606C19.3029 83.6323 14.6334 81.0072 10.0437 78.2525C7.90522 76.97 7.219 73.9721 8.06481 70.9742C8.85635 68.1627 11.3555 66.1219 14.3621 65.9798C16.325 65.885 18.2943 65.9608 20.2636 65.9608C20.2636 65.9577 20.2636 65.9514 20.2636 65.9482Z" fill="#A18BFD"/>
<path d="M64.7656 65.9482C66.5722 65.9482 68.3819 65.9166 70.1884 65.9514C75.8058 66.0588 78.5412 71.527 76.6038 76.2624C76.2208 77.1974 75.2696 78.063 74.3664 78.6063C70.0894 81.1588 65.7423 83.6007 61.4047 86.0584C59.844 86.9429 59.1418 86.5354 59.1099 84.7632C59.0875 83.3954 59.0812 82.0275 59.1099 80.6597C59.1897 76.8215 57.7374 73.7067 54.7181 71.2901C53.1509 70.036 53.1286 69.1735 54.568 67.831C55.9054 66.5832 57.5108 65.9703 59.3429 65.9545C61.1494 65.9419 62.9591 65.9545 64.7656 65.9514V65.9482Z" fill="#13CEB1"/>
<path d="M27.821 57.1789C27.7923 61.273 24.3069 64.6815 20.1736 64.6499C16.0435 64.6183 12.5039 61.1529 12.5039 57.141C12.5039 53.009 16.0148 49.5688 20.2311 49.5688C24.5304 49.5688 27.8529 52.9016 27.8242 57.182L27.821 57.1789Z" fill="#A18BFD"/>
<path d="M64.781 49.5688C68.975 49.5688 72.4604 53.0532 72.454 57.2452C72.4476 61.175 68.9207 64.6089 64.8417 64.6531C60.6733 64.7005 57.1975 61.3203 57.1624 57.1852C57.1273 52.8953 60.4531 49.5688 64.781 49.5688Z" fill="#13CEB1"/>
<path d="M42.6086 56.8058C46.8632 56.9069 50.2432 60.385 50.122 64.5359C50.0039 68.6142 46.3717 72.0038 42.2831 71.8585C38.1147 71.71 34.7442 68.1909 34.8655 64.1189C34.9868 60.028 38.5009 56.7079 42.6086 56.8058Z" fill="#FE6B89"/>
</g>
<path d="M60.8883 19.2124L53.3129 25.8237L55.5822 35.6666C55.7023 36.1812 55.668 36.7197 55.4837 37.2149C55.2993 37.7101 54.9731 38.14 54.5458 38.4508C54.1185 38.7616 53.6091 38.9395 53.0812 38.9624C52.5533 38.9852 52.0304 38.8519 51.5778 38.5792L42.9929 33.3722L34.4265 38.5792C33.974 38.8519 33.451 38.9852 32.9232 38.9624C32.3953 38.9395 31.8858 38.7616 31.4585 38.4508C31.0312 38.14 30.705 37.7101 30.5207 37.2149C30.3363 36.7197 30.3021 36.1812 30.4221 35.6666L32.688 25.8337L25.111 19.2124C24.7102 18.8668 24.4204 18.4105 24.2779 17.9008C24.1355 17.3911 24.1466 16.8507 24.3101 16.3474C24.4735 15.844 24.7819 15.4001 25.1966 15.0713C25.6113 14.7426 26.1138 14.5435 26.6412 14.4992L36.6286 13.6342L40.5271 4.33543C40.7307 3.8475 41.0741 3.43073 41.5141 3.13757C41.9541 2.84441 42.471 2.68799 42.9996 2.68799C43.5283 2.68799 44.0452 2.84441 44.4852 3.13757C44.9252 3.43073 45.2686 3.8475 45.4721 4.33543L49.3825 13.6342L59.3665 14.4992C59.8939 14.5435 60.3964 14.7426 60.8111 15.0713C61.2258 15.4001 61.5342 15.844 61.6976 16.3474C61.8611 16.8507 61.8722 17.3911 61.7297 17.9008C61.5873 18.4105 61.2975 18.8668 60.8967 19.2124H60.8883Z" fill="#F9B149"/>
<defs>
<clipPath id="clip0_706_1104">
<rect width="84" height="81" fill="white" transform="translate(0.5 22)"/>
</clipPath>
</defs>
</svg>
