<svg width="223" height="56" viewBox="0 0 223 56" fill="none" xmlns="http://www.w3.org/2000/svg">
<path d="M23.4294 43.8582C29.3981 42.8271 29.7237 42.8569 32.1292 47.3509C33.2989 49.5442 34.7458 50.1462 37.2358 50.4204C42.4448 50.9985 45.194 49.0019 47.6599 44.5019C54.7017 31.6517 62.3163 19.1055 70.0032 5.92756C66.1748 5.92756 62.7443 5.83219 59.3199 6.01696C58.6929 6.05272 57.9995 7.1494 57.5655 7.88846C52.1032 17.1506 46.6229 26.4008 41.2993 35.7404C40.0453 37.9397 38.5199 38.8218 36.0059 38.7384C31.6891 38.5954 27.3603 38.6669 23.0376 38.7146C21.1927 38.7324 19.9748 38.0351 19.0343 36.4139C13.0114 26.0015 6.89801 15.6427 0.856986 5.24214C-0.969791 2.10111 0.175712 0.0984905 3.79912 0.0627294C9.13476 0.0150479 14.4704 0.110411 19.8 0.021008C21.7835 -0.00879291 23.0376 0.69451 24.0323 2.39912C27.1493 7.75138 30.2603 13.1215 33.6365 18.3128C35.1377 20.6194 35.3969 22.5148 33.6184 24.6485C33.1059 25.2624 32.7743 26.0253 32.1353 27.1041C30.2844 24.0763 28.5782 21.3347 26.9142 18.5751C24.7016 14.9096 22.5552 11.2023 20.2883 7.56661C19.8603 6.87523 19.0404 5.99312 18.3591 5.95736C15.0793 5.79047 11.7875 5.87988 8.14601 5.87988C8.67656 6.95271 8.98403 7.67389 9.38195 8.34739C13.7529 15.8215 18.1722 23.2598 22.4769 30.7696C23.3511 32.2895 24.2976 33.0285 26.1485 32.9153C29.4403 32.7127 33.3652 33.8153 35.8793 32.3908C38.3873 30.9723 39.5388 27.1458 41.1968 24.3326C45.4111 17.1923 49.6434 10.058 53.7129 2.84018C54.8946 0.730271 56.3717 -0.0564744 58.7773 0.00312748C63.926 0.146172 69.0748 0.00908766 74.2235 0.0627294C77.7143 0.0984905 78.9201 2.07131 77.1897 5.05141C67.7182 21.3645 58.2226 37.6537 48.6185 53.8892C48.0457 54.8607 46.5083 55.7726 45.3749 55.8322C41.1546 56.0647 36.9162 56.0408 32.6899 55.8501C31.6047 55.8024 30.1698 55.0395 29.579 54.1574C27.4146 50.9032 25.5396 47.4641 23.4174 43.8523L23.4294 43.8582Z" fill="white"/>
<path d="M94.4731 33.3088H76.9607C73.5286 33.3088 73.3893 38.7576 76.9607 38.7576H94.4731V44.1335H76.9607C73.4553 44.1335 73.492 49.5458 76.9607 49.5458H94.4731V54.8852H76.9607C69.8105 54.8852 66.9211 47.1419 70.8959 41.329C66.5618 36.3464 70.0672 27.9912 76.9607 27.9912H94.4731V33.3015V33.3088Z" fill="white"/>
<path d="M117.544 46.0349C119.062 49.2619 120.793 49.2983 120.683 44.4178L120.61 27.7802H125.956C125.956 32.5151 125.956 46.1733 125.919 46.1733C126.205 51.7313 123.572 54.8491 120.214 54.8855C116.496 54.9947 114.508 52.1611 111.912 46.7779C110.614 43.8715 109.382 40.9358 108.157 38.2042C106.566 34.6931 104.08 32.5005 104.256 38.2406L104.293 54.9146H98.9172V36.4851C98.7706 30.8542 101.337 27.5544 104.696 27.7729C107.761 27.9914 110.438 30.4244 112.998 35.8732L117.544 46.0204V46.0349Z" fill="white"/>
<path d="M129.747 27.999H140.432C145.236 27.999 148.66 29.2519 151.117 31.2989C156.786 36.0701 156.896 45.4306 152.166 50.5224C149.746 52.9991 146.211 54.7182 140.938 54.9003H129.747V49.5609H140.726C144.407 49.4516 146.827 48.4099 148.272 46.8729C151.124 43.7188 150.692 38.0879 147.656 35.4C146.211 34.1106 143.864 33.3166 140.44 33.3166H129.755V28.0063L129.747 27.999Z" fill="white"/>
<path d="M164.948 27.999V54.9295H159.573V27.999H164.948Z" fill="white"/>
<path d="M169.422 27.999V54.9295H174.804V27.999H169.422Z" fill="white"/>
<path d="M223 42.0505C223 49.9031 216.319 56.0002 208.846 56.0002C200.904 56.0002 194.656 49.5462 194.656 42.0505C194.656 34.5549 201.439 28.2466 208.846 28.2466C216.253 28.2466 223 34.7006 223 42.0505ZM200.002 42.0505C200.002 47.1059 204.336 50.6243 208.846 50.6243C213.723 50.6243 217.654 46.7126 217.654 42.0505C217.654 37.1408 213.21 33.5861 208.846 33.5861C204.043 33.5861 200.002 37.4614 200.002 42.0505Z" fill="white"/>
<path d="M191.385 53.2104C191.385 54.0262 191.385 54.5653 191.297 54.9295H186.575C186.538 54.609 186.531 54.1355 186.531 53.4362C186.531 47.5431 185.189 46.1008 176.696 45.8094V40.6812C185.049 40.0329 186.714 37.3886 186.773 30.1406C186.773 28.895 186.78 28.2904 186.905 27.999H191.356C191.627 28.2977 191.627 28.9023 191.627 30.1042C191.627 35.9754 190.608 41.7666 185.541 43.2526C190.469 44.4035 191.312 48.6795 191.385 53.2031V53.2104Z" fill="white"/>
</svg>
