<svg width="71" height="79" viewBox="0 0 71 79" fill="none" xmlns="http://www.w3.org/2000/svg">
<g clip-path="url(#clip0_634_7645)">
<path d="M56.251 66.8057C56.251 68.2403 56.2494 69.572 56.251 70.9053C56.2526 72.3768 55.7558 72.8876 54.2989 72.8908C52.9741 72.894 51.651 72.8908 50.2052 72.8908C50.2052 74.2515 50.2116 75.5543 50.2036 76.857C50.1925 78.539 49.7323 79 48.0748 79C32.7653 79 17.4558 79 2.14635 79C0.517481 79 0 78.4795 0 76.8474C0 55.9946 0 35.1418 0 14.2874C0 12.7324 0.549326 12.1894 2.11769 12.1878C3.3899 12.1878 4.66051 12.1878 6.0601 12.1878C6.0601 11.1501 6.0601 10.1461 6.0601 9.14368C6.0601 8.71477 6.05373 8.28747 6.06169 7.85855C6.08398 6.72925 6.66834 6.12363 7.7861 6.11078C9.18728 6.09472 10.5901 6.10757 12.0915 6.10757C12.0915 4.69072 12.0884 3.33491 12.0915 1.9791C12.0963 0.567062 12.6632 0 14.0819 0C29.498 0 44.9126 0 60.3287 0C61.7618 0 62.2792 0.525296 62.2808 1.98552C62.284 10.9525 62.284 19.9211 62.284 28.8881C62.284 30.4061 61.2873 31.0455 59.8941 30.4286C52.2337 27.0407 43.6117 31.778 42.357 40.0655C41.3507 46.7128 45.9189 53.095 52.5347 54.2999C59.7444 55.6123 66.0481 50.4814 67.0353 44.0622C67.1324 43.4325 67.1722 42.7915 67.2104 42.1522C67.2773 41.0341 67.919 40.3144 68.8377 40.361C69.7517 40.4076 70.3042 41.0968 70.2691 42.2116C70.0892 47.8148 67.6005 52.1183 62.9894 55.1802C62.4496 55.5384 62.2633 55.8918 62.2697 56.5199C62.2999 59.3038 62.2856 62.0877 62.2808 64.8716C62.2776 66.2901 61.7777 66.7929 60.3622 66.8009C59.0374 66.809 57.7111 66.8025 56.2542 66.8025L56.251 66.8057ZM47.1577 15.3027H3.10807V75.8723H47.1003C47.121 75.6635 47.1513 75.5077 47.1513 75.3518C47.1529 68.9535 47.1608 62.5552 47.1274 56.1553C47.1274 55.85 46.8265 55.4372 46.5494 55.2605C36.7173 48.9505 36.7236 34.8237 46.5844 28.5748C47.0255 28.2953 47.1704 27.9933 47.164 27.4808C47.1385 25.1516 47.1561 22.8223 47.1561 20.493C47.1561 18.7837 47.1561 17.0729 47.1561 15.3027H47.1577ZM15.163 6.10757C15.5324 6.10757 15.8445 6.10757 16.1566 6.10757C28.8404 6.10757 41.5259 6.10757 54.2097 6.10757C55.7829 6.10757 56.2494 6.57664 56.2494 8.16377C56.2494 13.9468 56.2494 19.7299 56.2494 25.513C56.2494 25.7491 56.2717 25.9837 56.2828 26.2343C57.2732 26.4303 58.219 26.6166 59.211 26.8126V3.12768H15.163V6.10757ZM9.14429 12.1926C9.50254 12.1926 9.76686 12.1926 10.0312 12.1926C22.7134 12.1926 35.3973 12.191 48.0796 12.1894C49.7419 12.1894 50.2132 12.6569 50.2148 14.3227C50.218 18.1781 50.2148 22.0319 50.218 25.8873C50.218 26.1909 50.245 26.4929 50.2609 26.827C51.2943 26.6182 52.2162 26.4303 53.1318 26.2455V9.24649H9.14429V12.1926ZM50.2673 69.7599H53.1429V57.5625C52.1557 57.3697 51.2322 57.1882 50.2673 57.0002V69.7599ZM59.2062 56.997C58.2126 57.1946 57.2653 57.3842 56.3003 57.5769V63.7006H59.2062V56.9986V56.997Z" fill="url(#paint0_linear_634_7645)"/>
<path d="M54.9727 43.6687C57.5521 41.2559 60.0918 38.8768 62.6346 36.5009C64.5023 34.7563 66.37 33.0134 68.2409 31.272C69.045 30.5235 69.9144 30.4897 70.5545 31.1741C71.2105 31.8761 71.1515 32.7291 70.3363 33.4937C65.5198 38.0093 60.6984 42.5169 55.8675 47.0181C55.0173 47.81 54.1193 47.7136 53.4219 46.7594C51.457 44.0703 49.5081 41.3683 47.5671 38.6631C46.9716 37.8326 47.0847 36.9346 47.8012 36.3981C48.5193 35.86 49.3982 36.0174 50.0113 36.8511C51.4936 38.8688 52.9537 40.9041 54.4234 42.933C54.5937 43.1675 54.7705 43.3988 54.9743 43.6703L54.9727 43.6687Z" fill="url(#paint1_linear_634_7645)"/>
<path d="M23.9667 57.6044C19.7265 57.6044 15.4848 57.606 11.2446 57.5996C10.9039 57.5996 10.544 57.5932 10.2256 57.4887C9.54725 57.2638 9.20333 56.7402 9.22243 56.0221C9.24154 55.304 9.6205 54.8141 10.302 54.6085C10.5743 54.5265 10.8768 54.5185 11.1666 54.5185C19.701 54.5137 28.2355 54.5137 36.7699 54.5169C37.9641 54.5169 38.609 54.9779 38.6886 55.8631C38.7841 56.9233 38.1584 57.5916 37.0072 57.5996C34.6745 57.614 32.3419 57.6044 30.0093 57.6044C27.9951 57.6044 25.9809 57.6044 23.9667 57.6044Z" fill="url(#paint2_linear_634_7645)"/>
<path d="M23.9476 67.0128C19.6262 67.0128 15.3064 67.0144 10.9851 67.0112C10.0536 67.0112 9.46449 66.6224 9.26227 65.906C8.97089 64.8779 9.75268 63.9445 10.9485 63.9381C13.8639 63.9269 16.7809 63.9349 19.6963 63.9349C25.422 63.9349 31.1477 63.9349 36.8735 63.9349C37.9594 63.9349 38.6218 64.4441 38.6918 65.31C38.7762 66.3461 38.168 67.0032 37.0693 67.0064C33.4119 67.016 29.7529 67.0112 26.0955 67.0112C25.379 67.0112 24.6641 67.0112 23.9476 67.0112V67.0128Z" fill="url(#paint3_linear_634_7645)"/>
<path d="M23.9613 29.2931C19.7737 29.2931 15.5861 29.2931 11.3985 29.2931C11.1071 29.2931 10.8125 29.2979 10.5259 29.2561C9.75051 29.1437 9.23144 28.5477 9.21711 27.7879C9.20278 27.0184 9.68682 26.4096 10.4607 26.2586C10.6915 26.2136 10.9351 26.2136 11.1724 26.2136C19.7068 26.212 28.2413 26.212 36.7742 26.2136C38.0798 26.2136 38.7151 26.7453 38.696 27.8007C38.6817 28.559 38.2231 29.1116 37.4748 29.2449C37.2423 29.2867 37.0003 29.2915 36.763 29.2915C32.4958 29.2947 28.2286 29.2931 23.9613 29.2931Z" fill="url(#paint4_linear_634_7645)"/>
<path d="M22.7273 38.7113C18.8024 38.7113 14.8759 38.7145 10.9511 38.7081C9.93679 38.7081 9.29034 38.1795 9.21869 37.3314C9.13589 36.3595 9.81896 35.6607 10.9065 35.6543C13.3203 35.6414 15.7342 35.6495 18.148 35.6495C23.6126 35.6495 29.0756 35.6495 34.5402 35.6511C35.5911 35.6511 36.228 36.1298 36.3331 36.9651C36.4589 37.9739 35.8204 38.6984 34.744 38.7048C32.0914 38.7193 29.4403 38.7097 26.7876 38.7097C25.4342 38.7097 24.0823 38.7097 22.7289 38.7097L22.7273 38.7113Z" fill="url(#paint5_linear_634_7645)"/>
<path d="M22.8245 45.1015C26.7765 45.1015 30.7285 45.1079 34.6804 45.0967C35.4638 45.0951 36.0386 45.4019 36.2774 46.1521C36.4876 46.8188 36.3284 47.4581 35.7218 47.8501C35.4288 48.0396 35.0323 48.1505 34.682 48.1521C26.751 48.1681 18.82 48.1681 10.8906 48.1601C9.86362 48.1601 9.22035 47.5432 9.21876 46.6276C9.21558 45.7232 9.86999 45.1079 10.8906 45.1047C14.8697 45.0967 18.8471 45.1015 22.8261 45.1015H22.8245Z" fill="url(#paint6_linear_634_7645)"/>
</g>
<defs>
<linearGradient id="paint0_linear_634_7645" x1="35.1354" y1="0" x2="35.1354" y2="79" gradientUnits="userSpaceOnUse">
<stop stop-color="#7263D8"/>
<stop offset="1" stop-color="#CDB9FD"/>
</linearGradient>
<linearGradient id="paint1_linear_634_7645" x1="59.0928" y1="30.6846" x2="59.0928" y2="47.5503" gradientUnits="userSpaceOnUse">
<stop stop-color="#7263D8"/>
<stop offset="1" stop-color="#CDB9FD"/>
</linearGradient>
<linearGradient id="paint2_linear_634_7645" x1="23.9599" y1="54.5146" x2="23.9599" y2="57.6076" gradientUnits="userSpaceOnUse">
<stop stop-color="#7263D8"/>
<stop offset="1" stop-color="#CDB9FD"/>
</linearGradient>
<linearGradient id="paint3_linear_634_7645" x1="23.9504" y1="63.9321" x2="23.9504" y2="67.0132" gradientUnits="userSpaceOnUse">
<stop stop-color="#7263D8"/>
<stop offset="1" stop-color="#CDB9FD"/>
</linearGradient>
<linearGradient id="paint4_linear_634_7645" x1="23.9566" y1="26.2124" x2="23.9566" y2="29.2935" gradientUnits="userSpaceOnUse">
<stop stop-color="#7263D8"/>
<stop offset="1" stop-color="#CDB9FD"/>
</linearGradient>
<linearGradient id="paint5_linear_634_7645" x1="22.7804" y1="35.647" x2="22.7804" y2="38.7128" gradientUnits="userSpaceOnUse">
<stop stop-color="#7263D8"/>
<stop offset="1" stop-color="#CDB9FD"/>
</linearGradient>
<linearGradient id="paint6_linear_634_7645" x1="22.7921" y1="45.0967" x2="22.7921" y2="48.1654" gradientUnits="userSpaceOnUse">
<stop stop-color="#7263D8"/>
<stop offset="1" stop-color="#CDB9FD"/>
</linearGradient>
<clipPath id="clip0_634_7645">
<rect width="71" height="79" fill="white"/>
</clipPath>
</defs>
</svg>
