<svg width="83" height="81" viewBox="0 0 83 81" fill="none" xmlns="http://www.w3.org/2000/svg">
<g clip-path="url(#clip0_706_1084)">
<path d="M82.4997 40.7416C82.4997 44.2502 82.0549 47.6531 81.2196 50.899L73.7813 49.193L68.422 47.9671C69.0454 45.6633 69.3783 43.2417 69.3783 40.7416C69.3783 38.2414 69.0635 35.9467 68.4704 33.6972C67.5928 30.3607 66.104 27.2717 64.1339 24.5542C63.6618 26.6648 61.8734 28.2863 59.6612 28.5037C59.522 28.5188 59.3798 28.5248 59.2376 28.5278C56.4202 28.5701 54.0992 26.3267 54.0568 23.5155C54.0538 23.3042 54.0628 23.0958 54.0871 22.8905C54.317 20.7014 55.9481 18.9169 58.0786 18.461C55.3823 16.4802 52.3107 14.9735 48.991 14.0707C46.6578 13.4336 44.2006 13.0924 41.6646 13.0924C39.4344 13.0924 37.2646 13.3551 35.1887 13.8533L33.6968 8.5662L31.6299 1.241C34.8406 0.428763 38.2027 0 41.6646 0C45.1266 0 48.6763 0.452919 51.9687 1.31045C66.0434 4.96097 77.1676 15.9125 81.029 29.8745C81.9883 33.3348 82.4997 36.9793 82.4997 40.7416Z" fill="#13CEB1"/>
<path d="M26.3648 60.1206C29.1826 60.1206 31.4669 57.8413 31.4669 55.0298C31.4669 52.2182 29.1826 49.939 26.3648 49.939C23.547 49.939 21.2627 52.2182 21.2627 55.0298C21.2627 57.8413 23.547 60.1206 26.3648 60.1206Z" fill="#FE466C"/>
<path opacity="0.67" d="M73.8391 48.3081C72.6377 52.8796 70.48 57.0645 67.5901 60.6365C67.6869 60.6305 67.7837 60.6245 67.8836 60.6245C70.701 60.5792 73.022 62.8226 73.0644 65.6368C73.0674 65.7515 73.0644 65.8662 73.0583 65.981C72.9282 68.5505 70.8795 70.6279 68.2952 70.794C68.2104 70.8 68.1287 70.8061 68.044 70.8061C65.2236 70.8484 62.9056 68.6049 62.8602 65.7938C62.8571 65.6639 62.8602 65.5341 62.8692 65.4073C59.2681 68.3784 55.0315 70.6038 50.3924 71.8508C47.6295 72.5966 44.7213 72.9922 41.7224 72.9922C38.8929 72.9922 36.1452 72.6389 33.5215 71.9746L34.7077 66.6151L35.9878 60.8268C37.8156 61.322 39.7372 61.5877 41.7224 61.5877C43.5623 61.5877 45.3477 61.3612 47.0545 60.9324C54.6048 59.0362 60.5905 53.2057 62.6907 45.7536C63.2203 43.8785 63.5017 41.9008 63.5017 39.8566C63.5017 38.0238 63.2747 36.2423 62.845 34.5424L68.5282 32.8122L73.7876 31.2119C74.5351 33.9687 74.9315 36.8674 74.9315 39.8566C74.9315 42.8459 74.5533 45.6087 73.8391 48.3081Z" fill="#F2CA03"/>
<path opacity="0.8" d="M52.2293 79.5327C48.7613 80.4899 45.1057 81.0002 41.332 81.0002C37.9367 81.0002 34.6412 80.5865 31.4879 79.8075C27.0455 78.7115 22.8936 76.8907 19.1593 74.4721L7.10007 74.605L6.92152 62.195C4.71847 58.7679 3.0208 54.9906 1.92532 50.9657C0.996291 47.5506 0.5 43.9605 0.5 40.2556C0.5 36.5508 1.04471 32.6194 2.0615 29.0625L9.43021 31.0221L14.7442 32.4352C14.0118 34.9142 13.6184 37.5411 13.6184 40.2556C13.6184 42.6531 13.9241 44.9781 14.496 47.1943C15.074 49.4227 15.9244 51.5424 17.0077 53.5171L17.1439 62.9589L17.1621 64.2784L18.4421 64.2633L27.4087 64.1667C29.5451 65.4107 31.8662 66.377 34.3174 67.0141C36.5568 67.5968 38.9081 67.9078 41.332 67.9078C43.756 67.9078 46.1437 67.5938 48.3981 67.002L50.002 72.2498L52.2293 79.5327Z" fill="#FE466C"/>
<path opacity="0.78" d="M33.4063 8.94975C28.8187 10.1273 24.6153 12.2591 21.0202 15.1245C21.0263 15.0279 21.0324 14.9313 21.0324 14.8317C21.0898 12.0205 18.8535 9.69555 16.0331 9.63819C15.9181 9.63517 15.8031 9.63819 15.6881 9.6412C13.1129 9.75896 11.0218 11.7941 10.8402 14.3697C10.8342 14.4542 10.8281 14.5357 10.8281 14.6203C10.7737 17.4344 13.01 19.7564 15.8273 19.8168C15.9575 19.8198 16.0876 19.8168 16.2147 19.8107C13.2188 23.3888 10.9704 27.607 9.69634 32.2298C8.93677 34.9835 8.52521 37.8822 8.51008 40.8745C8.49797 43.6977 8.8369 46.4424 9.49056 49.0633L14.8681 47.9038L20.6753 46.6537C20.1881 44.827 19.9308 42.9096 19.9399 40.9288C19.949 39.093 20.185 37.3115 20.6208 35.6116C22.5575 28.0871 28.4283 22.1418 35.909 20.0825C37.7913 19.5631 39.7734 19.2914 41.8221 19.3005C43.659 19.3095 45.4444 19.545 47.1451 19.9798L48.9064 14.3183L50.5344 9.07959C47.7746 8.3217 44.8725 7.91105 41.8766 7.89596C38.9503 7.88086 36.1087 8.24621 33.4003 8.94673L33.4063 8.94975Z" fill="#866AFC"/>
</g>
<defs>
<clipPath id="clip0_706_1084">
<rect width="82" height="81" fill="white" transform="translate(0.5)"/>
</clipPath>
</defs>
</svg>
