<svg width="70" height="62" viewBox="0 0 70 62" fill="none" xmlns="http://www.w3.org/2000/svg">
<g clip-path="url(#clip0_634_7661)">
<path d="M53.2185 53.7881C50.6732 51.2746 48.248 48.8768 45.7167 46.377C40.615 49.2677 35.1645 49.9146 29.5102 47.7866C25.4942 46.2752 22.441 43.6075 20.3228 39.9295C16.0472 32.5075 17.7552 23.1473 24.3639 17.5836C30.8945 12.0886 40.5508 11.9041 47.274 17.1128C53.8101 22.1755 56.7629 31.7697 51.6165 40.4829C54.0864 42.9413 56.5256 45.3694 59.0151 47.8499C64.1084 40.6095 65.607 32.6011 63.5 23.4997C62.7325 24.7881 62.2497 25.7875 61.5799 26.6436C61.3008 26.9988 60.6282 27.0566 60.137 27.2493C60.0672 26.7262 59.7686 26.0903 59.9667 25.7021C60.8012 24.0668 61.792 22.5114 62.7129 20.9202C63.1706 20.1273 63.7679 19.9621 64.5689 20.4246C66.1736 21.3496 67.8202 22.2086 69.3719 23.2107C69.7431 23.4502 70.1087 24.2513 69.9719 24.6009C69.6677 25.3773 68.9589 25.1735 68.3365 24.8102C67.463 24.3008 66.5755 23.8136 65.4898 23.1997C67.6583 32.7966 66.0145 41.4795 60.2123 49.5567C61.951 51.2223 63.7176 52.8356 65.3838 54.5452C66.7429 55.9382 66.8657 57.8212 65.861 59.3574C64.8982 60.8247 63.0339 61.5432 61.351 60.9376C60.6393 60.6816 59.964 60.1888 59.4114 59.663C57.8736 58.2011 56.4112 56.6677 54.8651 55.1068C54.3906 55.4344 54.0222 55.6849 53.6539 55.9382C44.6143 62.1847 34.8603 63.6107 24.3863 60.164C23.9899 60.0346 23.5211 59.9465 23.2504 59.6795C22.9741 59.4042 22.695 58.8591 22.7983 58.559C22.8987 58.2699 23.4709 58.0194 23.8588 57.9836C24.2383 57.9478 24.6486 58.2039 25.0421 58.336C34.6901 61.5322 43.7129 60.2714 52.1217 54.6388C52.5012 54.3855 52.8445 54.0799 53.2213 53.7853L53.2185 53.7881ZM36.1106 47.0818C45.0357 47.0736 52.2696 39.9433 52.2612 31.1668C52.2528 22.3848 45.0218 15.2793 36.0911 15.2821C27.1604 15.2821 19.9516 22.3848 19.9516 31.1861C19.9516 39.9681 27.1911 47.0901 36.1106 47.0818ZM47.4749 45.2538C49.5429 47.2718 51.6221 49.2897 53.6901 51.3159C56.1265 53.7055 58.5071 56.1557 61.0189 58.4627C61.5212 58.9252 62.579 59.1426 63.2488 58.972C63.779 58.8371 64.4349 57.9423 64.4461 57.3725C64.46 56.7145 63.966 55.9106 63.4581 55.3986C59.3611 51.2801 55.2084 47.2112 51.0695 43.134C50.8156 42.8835 50.5281 42.6715 50.3607 42.5311C49.395 43.4424 48.4936 44.293 47.4777 45.2511L47.4749 45.2538Z" fill="url(#paint0_linear_634_7661)"/>
<path d="M4.07157 38.5198C3.95156 35.1529 3.55805 31.7254 3.75341 28.331C4.54601 14.6707 15.8824 2.54377 29.5883 0.429473C35.0193 -0.407435 40.3274 -0.0550528 45.5184 1.77293C45.8254 1.8803 46.2273 1.90783 46.4143 2.11705C46.7603 2.50798 46.9836 3.00627 47.2571 3.46051C46.7436 3.60917 46.1799 3.97257 45.7222 3.87071C43.6011 3.4027 41.5359 2.64563 39.3981 2.27948C24.001 -0.355128 8.41691 10.7229 5.97492 25.9524C5.35815 29.8011 5.39443 33.6195 6.26517 37.4241C6.31262 37.6361 6.39913 37.8426 6.56658 38.3574C7.24755 37.2066 7.72199 36.2321 8.36947 35.3924C8.65972 35.0152 9.40208 34.6133 9.76489 34.7317C10.5575 34.9905 10.4152 35.698 10.0468 36.3284C9.13695 37.8728 8.22435 39.4173 7.33407 40.9727C6.85404 41.8151 6.2568 42.0298 5.38605 41.5205C3.7869 40.5873 2.13751 39.7311 0.588591 38.729C0.228572 38.4978 0.183918 37.793 -0.00585938 37.3085C0.524401 37.2424 1.1356 36.9781 1.56539 37.1516C2.53102 37.5397 3.40735 38.1454 4.06598 38.5198H4.07157Z" fill="url(#paint1_linear_634_7661)"/>
<path d="M13.1308 61.0394C7.83941 61.0614 3.52197 56.8741 3.48848 51.682C3.45499 46.4843 7.72498 42.2392 13.0108 42.2145C18.3023 42.1897 22.6114 46.366 22.6616 51.5664C22.709 56.731 18.3972 61.0174 13.1308 61.0394ZM13.1113 44.1553C8.88876 44.1388 5.4616 47.4809 5.45881 51.6214C5.45323 55.6958 8.83016 59.06 12.9634 59.0985C17.1915 59.1398 20.6299 55.8445 20.6913 51.6985C20.7526 47.5938 17.3115 44.1718 13.1113 44.1553Z" fill="url(#paint2_linear_634_7661)"/>
<path d="M56.978 19.761C51.6921 19.7803 47.3775 15.5875 47.344 10.3954C47.3077 5.22525 51.6168 0.955372 56.8859 0.936101C62.1745 0.91683 66.492 5.11789 66.5143 10.3045C66.5394 15.4994 62.261 19.7417 56.978 19.761ZM56.8803 17.8202C61.1028 17.8394 64.5356 14.5028 64.544 10.3651C64.5523 6.28791 61.181 2.921 57.0505 2.87971C52.8224 2.83566 49.3813 6.12273 49.3115 10.266C49.2445 14.3679 52.6829 17.8009 56.8803 17.8202Z" fill="url(#paint3_linear_634_7661)"/>
<path d="M42.2702 31.2108C42.2702 28.601 42.3148 25.9884 42.2506 23.3813C42.2199 22.1067 42.6246 21.5533 44.0005 21.5864C47.2993 21.6717 47.2323 21.1899 47.2211 24.8129C47.2044 29.4847 47.2211 34.1537 47.2155 38.8256C47.2155 40.5682 47.0425 40.7334 45.3289 40.7499C43.2897 40.7719 42.2702 39.79 42.2702 37.8042C42.2702 35.6073 42.2702 33.4077 42.2702 31.2108ZM44.2321 38.6741C44.394 38.7347 44.5559 38.7953 44.7177 38.8558C44.8936 38.4979 45.2229 38.1401 45.2257 37.7822C45.2619 33.3801 45.2619 28.9781 45.2257 24.5761C45.2229 24.2375 44.8712 23.9016 44.6815 23.5657C44.5335 23.8851 44.2572 24.2044 44.2545 24.5265C44.2182 27.0951 44.2349 29.6636 44.2349 32.2294C44.2349 34.3767 44.2349 36.5268 44.2349 38.6741H44.2321Z" fill="url(#paint4_linear_634_7661)"/>
<path d="M35.6639 33.6032C35.6639 35.4807 35.6387 37.3583 35.6722 39.2358C35.6918 40.2544 35.3178 40.7582 34.221 40.7582C30.205 40.7554 30.8106 40.9316 30.7883 37.5097C30.7687 34.3492 30.8301 31.1888 30.7631 28.0311C30.7352 26.751 31.112 26.2032 32.4935 26.2389C35.8871 26.327 35.6667 25.8976 35.6639 29.3443C35.6639 30.7649 35.6639 32.1826 35.6639 33.6032ZM32.753 33.3279C32.753 34.8806 32.7307 36.4305 32.7753 37.9832C32.7837 38.2447 33.0907 38.4952 33.2609 38.7513C33.4061 38.509 33.6712 38.2695 33.674 38.0272C33.7047 35.0155 33.7075 32.0037 33.674 28.9919C33.6712 28.7359 33.3475 28.4826 33.1716 28.2294C33.0321 28.5157 32.7809 28.7965 32.7725 29.0855C32.7307 30.4978 32.753 31.9156 32.7558 33.3279H32.753Z" fill="url(#paint5_linear_634_7661)"/>
<path d="M41.4304 35.2767C41.4304 36.6477 41.4053 38.0215 41.4388 39.3924C41.4611 40.3147 41.0425 40.6919 40.1215 40.7579C36.5772 41.0112 36.5158 40.9727 36.5186 37.5149C36.5186 35.3648 36.5353 33.2147 36.5158 31.0674C36.5074 30.0571 36.8814 29.5588 37.9893 29.5725C41.796 29.6193 41.4332 29.2449 41.436 32.8073C41.436 33.6304 41.436 34.4536 41.436 35.2767H41.4304ZM39.3903 31.6263C39.262 31.5712 39.1336 31.5134 39.008 31.4583C38.835 31.808 38.5308 32.1493 38.5112 32.5072C38.2405 37.4241 38.3912 38.484 39.3931 38.7125V31.6263H39.3903Z" fill="url(#paint6_linear_634_7661)"/>
<path d="M29.9456 36.3338C29.9456 37.3882 30.0126 38.4453 29.9093 39.4887C29.8675 39.9017 29.4795 40.5816 29.1893 40.6147C28.0506 40.7441 26.8757 40.7413 25.737 40.6092C25.4495 40.5761 25.0421 39.8769 25.0309 39.4722C24.9612 37.3221 24.9946 35.1693 25.0002 33.0164C25.003 32.1795 25.43 31.8189 26.2952 31.7666C29.9484 31.5436 29.9484 31.5271 29.9484 35.095C29.9484 35.5079 29.9484 35.9181 29.9484 36.331L29.9456 36.3338ZM27.9781 36.254C27.9781 35.6125 28.0255 34.9656 27.9529 34.3324C27.9278 34.1176 27.6041 33.9387 27.4171 33.7432C27.2664 33.9304 26.9929 34.1149 26.9873 34.3048C26.9482 35.5877 26.9427 36.8734 26.9929 38.1535C27.0013 38.36 27.3445 38.5555 27.5343 38.7564C27.6822 38.5637 27.9418 38.382 27.9585 38.1783C28.0143 37.5424 27.9781 36.8954 27.9808 36.254H27.9781Z" fill="url(#paint7_linear_634_7661)"/>
<path d="M11.9167 53.0255C13.4684 51.448 14.7885 50.0991 16.1197 48.7584C16.6137 48.2628 17.1551 47.6709 17.8807 48.3619C18.6091 49.0529 18.0426 49.5925 17.5347 50.0963C16.0276 51.5884 14.4954 53.0585 13.0135 54.5754C12.26 55.3463 11.632 55.3242 10.912 54.5506C10.1585 53.744 9.26818 53.0475 8.59 52.1858C8.27743 51.7894 8.04858 50.9139 8.27464 50.6056C8.84676 49.821 9.49424 50.3799 9.99101 50.9002C10.5938 51.5334 11.166 52.1941 11.9195 53.0255H11.9167Z" fill="url(#paint8_linear_634_7661)"/>
<path d="M55.6967 10.3431C54.5748 9.297 53.5673 8.48212 52.7328 7.51857C52.4118 7.14967 52.4872 6.44766 52.3839 5.89707C52.9449 5.98516 53.6621 5.88881 54.0361 6.19714C55.0297 7.01202 55.8753 8.00035 57.0279 9.17312C57.9991 8.11322 58.8252 7.07259 59.8104 6.20265C60.1704 5.88605 60.9044 5.9769 61.4653 5.8833C61.3677 6.4339 61.4514 7.14141 61.1332 7.50206C60.2876 8.45734 59.2662 9.26397 58.1135 10.3156C59.1657 11.2929 60.0504 12.083 60.8988 12.9089C61.443 13.4402 62.2886 14.0239 61.4179 14.8278C60.6727 15.5188 60.0643 14.8498 59.548 14.3074C58.7219 13.4402 57.9126 12.562 56.9135 11.4884C55.8446 12.6309 55.0018 13.6687 53.9998 14.5304C53.6482 14.8333 52.9114 14.7011 52.3477 14.7672C52.4425 14.2496 52.3616 13.5834 52.663 13.242C53.5086 12.2785 54.5106 11.4498 55.6939 10.3404L55.6967 10.3431Z" fill="url(#paint9_linear_634_7661)"/>
</g>
<defs>
<linearGradient id="paint0_linear_634_7661" x1="43.9904" y1="13.3306" x2="43.9904" y2="61.9948" gradientUnits="userSpaceOnUse">
<stop stop-color="#7263D8"/>
<stop offset="1" stop-color="#CDB9FD"/>
</linearGradient>
<linearGradient id="paint1_linear_634_7661" x1="23.6256" y1="-0.000488281" x2="23.6256" y2="41.7936" gradientUnits="userSpaceOnUse">
<stop stop-color="#7263D8"/>
<stop offset="1" stop-color="#CDB9FD"/>
</linearGradient>
<linearGradient id="paint2_linear_634_7661" x1="13.0751" y1="42.2144" x2="13.0751" y2="61.0395" gradientUnits="userSpaceOnUse">
<stop stop-color="#7263D8"/>
<stop offset="1" stop-color="#CDB9FD"/>
</linearGradient>
<linearGradient id="paint3_linear_634_7661" x1="56.9291" y1="0.936035" x2="56.9291" y2="19.7611" gradientUnits="userSpaceOnUse">
<stop stop-color="#7263D8"/>
<stop offset="1" stop-color="#CDB9FD"/>
</linearGradient>
<linearGradient id="paint4_linear_634_7661" x1="44.7361" y1="21.585" x2="44.7361" y2="40.7503" gradientUnits="userSpaceOnUse">
<stop stop-color="#7263D8"/>
<stop offset="1" stop-color="#CDB9FD"/>
</linearGradient>
<linearGradient id="paint5_linear_634_7661" x1="33.2173" y1="26.2373" x2="33.2173" y2="40.7591" gradientUnits="userSpaceOnUse">
<stop stop-color="#7263D8"/>
<stop offset="1" stop-color="#CDB9FD"/>
</linearGradient>
<linearGradient id="paint6_linear_634_7661" x1="38.9799" y1="29.5723" x2="38.9799" y2="40.85" gradientUnits="userSpaceOnUse">
<stop stop-color="#7263D8"/>
<stop offset="1" stop-color="#CDB9FD"/>
</linearGradient>
<linearGradient id="paint7_linear_634_7661" x1="27.4771" y1="31.6846" x2="27.4771" y2="40.71" gradientUnits="userSpaceOnUse">
<stop stop-color="#7263D8"/>
<stop offset="1" stop-color="#CDB9FD"/>
</linearGradient>
<linearGradient id="paint8_linear_634_7661" x1="13.2057" y1="48.0474" x2="13.2057" y2="55.1423" gradientUnits="userSpaceOnUse">
<stop stop-color="#7263D8"/>
<stop offset="1" stop-color="#CDB9FD"/>
</linearGradient>
<linearGradient id="paint9_linear_634_7661" x1="57.0703" y1="5.8833" x2="57.0703" y2="15.1227" gradientUnits="userSpaceOnUse">
<stop stop-color="#7263D8"/>
<stop offset="1" stop-color="#CDB9FD"/>
</linearGradient>
<clipPath id="clip0_634_7661">
<rect width="70" height="62" fill="white"/>
</clipPath>
</defs>
</svg>
