<svg width="140" height="135" viewBox="0 0 140 135" fill="none" xmlns="http://www.w3.org/2000/svg">
<g filter="url(#filter0_f_726_1028)">
<path d="M4 35C4 21.1929 15.1929 10 29 10H103C116.807 10 128 21.1929 128 35V106C128 119.807 116.807 131 103 131H4V35Z" fill="black" fill-opacity="0.5"/>
</g>
<path d="M4 35C4 21.1929 15.1929 10 29 10H103C116.807 10 128 21.1929 128 35V106C128 119.807 116.807 131 103 131H4V35Z" fill="url(#paint0_linear_726_1028)"/>
<g style="mix-blend-mode:overlay">
<mask id="mask0_726_1028" style="mask-type:alpha" maskUnits="userSpaceOnUse" x="4" y="10" width="124" height="121">
<rect x="4" y="10" width="124" height="121" rx="25" fill="url(#paint1_linear_726_1028)"/>
</mask>
<g mask="url(#mask0_726_1028)">
<path opacity="0.3" d="M4 10H128V131L62.9 71.71L4 10Z" fill="url(#paint2_linear_726_1028)"/>
</g>
</g>
<path fill-rule="evenodd" clip-rule="evenodd" d="M107.729 11.0133L107.343 31.5526L106.635 31.5393L107.021 11.0001L107.729 11.0133Z" fill="white"/>
<path fill-rule="evenodd" clip-rule="evenodd" d="M106.649 30.8309L127.258 31.2176L127.245 31.9258L106.635 31.5391L106.649 30.8309Z" fill="white"/>
<path d="M113.708 22.2783H114.692C115.075 22.2783 115.392 22.2122 115.643 22.0801C115.898 21.9479 116.087 21.7656 116.21 21.5332C116.333 21.3008 116.395 21.0342 116.395 20.7334C116.395 20.4189 116.338 20.1501 116.224 19.9268C116.114 19.6989 115.946 19.5234 115.718 19.4004C115.494 19.2773 115.21 19.2158 114.863 19.2158C114.572 19.2158 114.307 19.2751 114.07 19.3936C113.838 19.5075 113.653 19.6715 113.517 19.8857C113.38 20.0954 113.312 20.346 113.312 20.6377H111.657C111.657 20.109 111.796 19.6396 112.074 19.2295C112.352 18.8193 112.73 18.498 113.209 18.2656C113.692 18.0286 114.234 17.9102 114.836 17.9102C115.479 17.9102 116.039 18.0173 116.518 18.2314C117.001 18.4411 117.377 18.7555 117.646 19.1748C117.914 19.5941 118.049 20.1136 118.049 20.7334C118.049 21.016 117.983 21.3031 117.851 21.5947C117.718 21.8864 117.522 22.153 117.263 22.3945C117.003 22.6315 116.679 22.8252 116.292 22.9756C115.905 23.1214 115.456 23.1943 114.945 23.1943H113.708V22.2783ZM113.708 23.5635V22.6611H114.945C115.529 22.6611 116.025 22.7295 116.436 22.8662C116.85 23.0029 117.188 23.1921 117.447 23.4336C117.707 23.6706 117.896 23.9417 118.015 24.2471C118.138 24.5524 118.199 24.876 118.199 25.2178C118.199 25.6826 118.115 26.0973 117.946 26.4619C117.782 26.8219 117.548 27.1273 117.242 27.3779C116.937 27.6286 116.579 27.8177 116.169 27.9453C115.763 28.0729 115.321 28.1367 114.843 28.1367C114.414 28.1367 114.004 28.0775 113.612 27.959C113.22 27.8405 112.869 27.665 112.56 27.4326C112.25 27.1956 112.004 26.9017 111.821 26.5508C111.644 26.1953 111.555 25.7852 111.555 25.3203H113.202C113.202 25.6165 113.271 25.8786 113.407 26.1064C113.549 26.3298 113.744 26.5052 113.995 26.6328C114.25 26.7604 114.542 26.8242 114.87 26.8242C115.216 26.8242 115.515 26.7627 115.766 26.6396C116.016 26.5166 116.208 26.3343 116.34 26.0928C116.477 25.8512 116.545 25.5596 116.545 25.2178C116.545 24.8304 116.47 24.516 116.319 24.2744C116.169 24.0329 115.955 23.8551 115.677 23.7412C115.399 23.6227 115.071 23.5635 114.692 23.5635H113.708Z" fill="white"/>
<g clip-path="url(#clip0_726_1028)">
<path d="M48.385 98.704H26V48.2961H47.7546V50.2601H27.9699V96.74H48.385V98.704Z" fill="white"/>
<path d="M32.5664 51.5693H29.9398V54.1879H32.5664V51.5693Z" fill="white"/>
<path d="M86.0173 51.5693H83.3907V54.1879H86.0173V51.5693Z" fill="white"/>
<path d="M52.8108 45.9524H50.1842V48.571H52.8108V45.9524Z" fill="white"/>
<path d="M56.9542 45.9524H54.3276V48.571H56.9542V45.9524Z" fill="white"/>
<path d="M54.8857 95.7908H52.2592V98.4094H54.8857V95.7908Z" fill="white"/>
<path d="M59.0227 95.7908H56.3961V98.4094H59.0227V95.7908Z" fill="white"/>
<path d="M35.193 90.1936H32.5664V92.8122H35.193V90.1936Z" fill="white"/>
<path d="M40.4462 90.1936H37.8196V92.8122H40.4462V90.1936Z" fill="white"/>
<path d="M32.5664 55.4973H26V57.4613H32.5664V55.4973Z" fill="white"/>
<path d="M45.0426 85.6111H32.5664V87.575H45.0426V85.6111Z" fill="white"/>
<path d="M91.9534 89.5715H89.3268V92.1901H91.9534V89.5715Z" fill="white"/>
<path d="M97.2065 89.5715H94.58V92.1901H97.2065V89.5715Z" fill="white"/>
<path d="M96.5498 84.989H84.0736V86.953H96.5498V84.989Z" fill="white"/>
<path d="M76.1742 80.4983H52.3052V82.4622H76.1742V80.4983Z" fill="white"/>
<path d="M76.1742 85.6111H52.3052V87.575H76.1742V85.6111Z" fill="white"/>
<path d="M76.1742 90.7239H52.3052V92.6878H76.1742V90.7239Z" fill="white"/>
<path d="M47.8137 55.4973H34.5364V57.4613H47.8137V55.4973Z" fill="white"/>
<path d="M101.008 55.4973H81.2828V57.4613H101.008V55.4973Z" fill="white"/>
<path d="M81.2829 50.1094H48.385V52.0733H81.2829V50.1094Z" fill="white"/>
<path d="M36.3636 72.4977H37.3982C37.3982 73.0671 38.1062 73.5478 38.9523 73.5478C39.7983 73.5478 40.5063 73.0671 40.5063 72.4977C40.5063 71.9284 39.9684 71.709 38.8281 71.4337C37.7292 71.1536 36.3682 70.8083 36.3682 69.3475C36.3682 68.4094 37.1269 67.6114 38.1798 67.3407V66.1973H39.7339V67.3407C40.7822 67.6067 41.5455 68.4048 41.5455 69.3475H40.5109C40.5109 68.7781 39.8029 68.2974 38.9569 68.2974C38.1108 68.2974 37.4028 68.7781 37.4028 69.3475C37.4028 69.9169 37.9407 70.1362 39.081 70.4116C40.1799 70.6916 41.5409 71.037 41.5409 72.4977C41.5409 73.4358 40.7822 74.2339 39.7293 74.5046V75.648H38.1752V74.5046C37.1269 74.2385 36.3636 73.4405 36.3636 72.4977Z" fill="white"/>
<path d="M88.1818 72.4977H89.2163C89.2163 73.0671 89.9244 73.5478 90.7704 73.5478C91.6164 73.5478 92.3245 73.0671 92.3245 72.4977C92.3245 71.9284 91.7865 71.709 90.6462 71.4337C89.5473 71.1536 88.1864 70.8083 88.1864 69.3475C88.1864 68.4094 88.945 67.6114 89.9979 67.3407V66.1973H91.552V67.3407C92.6003 67.6067 93.3636 68.4048 93.3636 69.3475H92.3291C92.3291 68.7781 91.621 68.2974 90.775 68.2974C89.929 68.2974 89.2209 68.7781 89.2209 69.3475C89.2209 69.9169 89.7588 70.1362 90.8991 70.4116C91.998 70.6916 93.359 71.037 93.359 72.4977C93.359 73.4358 92.6003 74.2339 91.5474 74.5046V75.648H89.9933V74.5046C88.945 74.2385 88.1818 73.4405 88.1818 72.4977Z" fill="white"/>
<path d="M102 98.704H79.615V96.74H100.03V50.2601H80.2454V48.2961H102V98.704Z" fill="white"/>
<path d="M59.6818 67.3413H61.7517C61.7517 68.2196 63.1702 68.9646 64.8613 68.9646C66.5523 68.9646 67.9708 68.2196 67.9708 67.3413C67.9708 66.4629 66.8943 66.1226 64.6118 65.6949C62.4171 65.2672 59.6818 64.7292 59.6818 62.4758C59.6818 61.0226 61.2065 59.7901 63.3088 59.3762V57.6057H66.4184V59.3762C68.5207 59.7901 70.0454 61.0226 70.0454 62.4758H67.9754C67.9754 61.5974 66.557 60.8524 64.8659 60.8524C63.1748 60.8524 61.7563 61.5974 61.7563 62.4758C61.7563 63.3542 62.8329 63.6945 65.1154 64.1221C67.3101 64.5498 70.0454 65.0879 70.0454 67.3413C70.0454 68.7945 68.5207 70.0269 66.4184 70.4408V72.2113H63.3088V70.4408C61.2065 70.0269 59.6818 68.7945 59.6818 67.3413Z" fill="white"/>
<path d="M69.5487 102.036H66.7908V104H69.5487V102.036Z" fill="white"/>
<path d="M81.6046 104H70.9341V102.036H79.6347V44.9639H48.7987V102.036H65.4118V104H46.8287V43H81.6046V104Z" fill="white"/>
</g>
<defs>
<filter id="filter0_f_726_1028" x="0" y="6" width="132" height="129" filterUnits="userSpaceOnUse" color-interpolation-filters="sRGB">
<feFlood flood-opacity="0" result="BackgroundImageFix"/>
<feBlend mode="normal" in="SourceGraphic" in2="BackgroundImageFix" result="shape"/>
<feGaussianBlur stdDeviation="2" result="effect1_foregroundBlur_726_1028"/>
</filter>
<linearGradient id="paint0_linear_726_1028" x1="48.64" y1="45.09" x2="65.1901" y2="150.487" gradientUnits="userSpaceOnUse">
<stop stop-color="#7263D8"/>
<stop offset="1" stop-color="#362E75"/>
</linearGradient>
<linearGradient id="paint1_linear_726_1028" x1="6.88372" y1="67.3158" x2="123.674" y2="67.3158" gradientUnits="userSpaceOnUse">
<stop stop-color="#07569E"/>
<stop offset="1" stop-color="#0093DD"/>
</linearGradient>
<linearGradient id="paint2_linear_726_1028" x1="120.56" y1="120.715" x2="-9.27571" y2="-21.0038" gradientUnits="userSpaceOnUse">
<stop offset="0.116225" stop-color="white" stop-opacity="0"/>
<stop offset="1" stop-color="white"/>
</linearGradient>
<clipPath id="clip0_726_1028">
<rect width="76" height="61" fill="white" transform="translate(26 43)"/>
</clipPath>
</defs>
</svg>
