<svg width="143" height="36" viewBox="0 0 143 36" fill="none" xmlns="http://www.w3.org/2000/svg">
<path d="M15.0243 28.1946C18.8517 27.5318 19.0605 27.5509 20.603 30.4399C21.3531 31.8499 22.2809 32.2369 23.8776 32.4132C27.218 32.7848 28.9809 31.5013 30.5621 28.6084C35.0778 20.3476 39.9607 12.2822 44.8899 3.81058C42.435 3.81058 40.2351 3.74928 38.0392 3.86805C37.6371 3.89104 37.1925 4.59605 36.9142 5.07116C33.4115 11.0254 29.8972 16.972 26.4834 22.976C25.6792 24.3899 24.7011 24.957 23.089 24.9033C20.3208 24.8114 17.545 24.8573 14.773 24.888C13.5899 24.8995 12.809 24.4512 12.2059 23.409C8.34362 16.7153 4.42339 10.056 0.549547 3.36995C-0.621884 1.35072 0.112676 0.0633155 2.43621 0.0403261C5.85771 0.00967365 9.27922 0.0709786 12.6969 0.0135052C13.9688 -0.0056526 14.773 0.446471 15.4109 1.5423C17.4096 4.98304 19.4046 8.43527 21.5696 11.7726C22.5322 13.2554 22.6985 14.4738 21.558 15.8455C21.2294 16.2402 21.0167 16.7306 20.6069 17.4241C19.42 15.4777 18.3259 13.7152 17.2589 11.9412C15.84 9.58474 14.4637 7.20151 13.01 4.86426C12.7355 4.4198 12.2097 3.85273 11.7729 3.82974C9.6697 3.72246 7.5588 3.77993 5.22367 3.77993C5.56389 4.46961 5.76106 4.93323 6.01622 5.36619C8.81915 10.171 11.653 14.9528 14.4134 19.7805C14.974 20.7576 15.581 21.2327 16.7679 21.1599C18.8788 21.0296 21.3956 21.7385 23.0078 20.8227C24.6161 19.9108 25.3545 17.4509 26.4177 15.6424C29.1201 11.0522 31.8341 6.46585 34.4437 1.82583C35.2015 0.469461 36.1487 -0.0363051 37.6912 0.00201052C40.9929 0.093968 44.2946 0.00584208 47.5962 0.0403261C49.8347 0.0633155 50.6079 1.33156 49.4983 3.24734C43.4247 13.7343 37.3356 24.206 31.1769 34.6431C30.8096 35.2677 29.8237 35.8539 29.0969 35.8922C26.3906 36.0417 23.6727 36.0263 20.9626 35.9037C20.2667 35.8731 19.3466 35.3826 18.9677 34.8156C17.5798 32.7235 16.3774 30.5127 15.0165 28.1908L15.0243 28.1946Z" fill="#5743DF"/>
<path d="M60.5814 21.4129H49.3515C47.1506 21.4129 47.0613 24.9156 49.3515 24.9156H60.5814V28.3716H49.3515C47.1036 28.3716 47.1271 31.8509 49.3515 31.8509H60.5814V35.2834H49.3515C44.7664 35.2834 42.9135 30.3056 45.4624 26.5687C42.6831 23.3656 44.931 17.9944 49.3515 17.9944H60.5814V21.4082V21.4129Z" fill="#5743DF"/>
<path d="M75.3759 29.5939C76.3494 31.6684 77.4592 31.6918 77.3887 28.5543L77.3416 17.8587H80.7699C80.7699 20.9025 80.7699 29.6828 80.7463 29.6828C80.9298 33.2559 79.2415 35.2601 77.0877 35.2835C74.7034 35.3538 73.429 33.5321 71.7643 30.0715C70.9319 28.2031 70.1419 26.3159 69.3565 24.5598C68.3361 22.3027 66.7419 20.8931 66.8547 24.5832L66.8782 35.3023H63.4312V23.4547C63.3372 19.8348 64.9831 17.7135 67.1369 17.854C69.1026 17.9945 70.8191 19.5585 72.4603 23.0613L75.3759 29.5845V29.5939Z" fill="#5743DF"/>
<path d="M83.2012 17.9993H90.0529C93.1332 17.9993 95.3293 18.8047 96.9047 20.1206C100.54 23.1879 100.61 29.2053 97.5772 32.4786C96.0253 34.0708 93.7586 35.1759 90.3774 35.293H83.2012V31.8605H90.241C92.6018 31.7902 94.1536 31.1206 95.0801 30.1325C96.9094 28.1048 96.6319 24.485 94.685 22.757C93.7586 21.9282 92.2538 21.4177 90.0576 21.4177H83.2059V18.0039L83.2012 17.9993Z" fill="#5743DF"/>
<path d="M105.774 17.9993V35.3117H102.327V17.9993H105.774Z" fill="#5743DF"/>
<path d="M108.642 17.9993V35.3117H112.094V17.9993H108.642Z" fill="#5743DF"/>
<path d="M143 27.0324C143 32.0805 138.716 36.0001 133.924 36.0001C128.831 36.0001 124.824 31.8511 124.824 27.0324C124.824 22.2138 129.174 18.1584 133.924 18.1584C138.674 18.1584 143 22.3074 143 27.0324ZM128.252 27.0324C128.252 30.2823 131.032 32.5441 133.924 32.5441C137.051 32.5441 139.572 30.0295 139.572 27.0324C139.572 23.8762 136.722 21.591 133.924 21.591C130.844 21.591 128.252 24.0822 128.252 27.0324Z" fill="#5743DF"/>
<path d="M122.727 34.2066C122.727 34.7311 122.727 35.0776 122.67 35.3117H119.642C119.618 35.1057 119.614 34.8013 119.614 34.3518C119.614 30.5633 118.753 29.6361 113.307 29.4488V26.1521C118.664 25.7353 119.731 24.0355 119.769 19.376C119.769 18.5753 119.774 18.1866 119.854 17.9993H122.708C122.882 18.1913 122.882 18.5799 122.882 19.3526C122.882 23.127 122.228 26.8498 118.979 27.8051C122.139 28.545 122.68 31.2939 122.727 34.2019V34.2066Z" fill="#5743DF"/>
</svg>
