<svg width="91" height="87" viewBox="0 0 91 87" fill="none" xmlns="http://www.w3.org/2000/svg">
<g clip-path="url(#clip0_703_1059)">
<path d="M34.8454 33.0033C33.3986 31.5398 32.1108 30.2444 30.7473 28.865C32.0919 27.2295 34.2546 25.8845 33.107 23.2097C32.0123 20.6572 29.6072 21.1921 27.4824 20.9781V15.2158C29.6641 15.0553 32.1563 15.533 33.1789 12.8658C34.1713 10.2827 32.1752 8.92239 30.7019 7.33279C32.0729 5.93425 33.3872 4.59303 34.8151 3.13717C36.4514 4.55481 37.8035 6.60295 40.345 5.62474C42.9622 4.61595 42.4547 2.18952 42.6403 0H48.3898C48.6132 2.10546 48.0489 4.55099 50.6169 5.60181C53.1583 6.63734 54.5484 4.6962 56.1353 3.14863C57.4799 4.66563 58.7222 6.07181 60.0517 7.5697C58.8813 8.9606 56.7376 10.3248 57.8814 12.9881C58.9647 15.5101 61.3394 15.0783 63.4984 15.2158V20.9743C61.3963 21.2036 58.9646 20.6495 57.8928 23.202C56.8057 25.7851 58.6616 27.199 60.2827 28.7886C58.8434 30.0839 57.4534 31.3335 55.8816 32.7511C54.6506 31.6735 53.3098 29.591 50.7987 30.5463C48.1928 31.536 48.5186 33.8898 48.5072 36.1825H42.7009C42.2918 34.3445 43.1023 31.7194 40.5647 30.6074C37.9323 29.4534 36.5271 31.513 34.8454 33.0071V33.0033ZM45.5377 29.4955C51.7948 29.4687 56.8474 24.356 56.8323 18.0664C56.8133 11.7768 51.7418 6.71377 45.4658 6.72523C39.2201 6.73669 34.141 11.8685 34.1675 18.1428C34.194 24.4325 39.2883 29.5184 45.5377 29.4955Z" fill="#C80A50"/>
<path d="M25.5166 48.8838V39.457H65.4186V48.8838H25.5166ZM55.5558 45.5671H63.1763V42.8731H55.5558V45.5671Z" fill="#7263D8"/>
<path d="M25.5664 86.9999V77.5884H65.4457V86.9999H25.5664ZM63.2564 81.0694H55.6245V83.6143H63.2564V81.0694Z" fill="#7263D8"/>
<path d="M25.5205 67.9173V58.5249H65.4187V67.9173H25.5205ZM63.2257 61.9678H55.5824V64.612H63.2257V61.9678Z" fill="#7263D8"/>
<path d="M5.06738 17.3823H24.9294V20.3437H8.12016V65.846H5.06738V17.3823Z" fill="#FAB400"/>
<path d="M66.0547 20.5118V17.4014H85.9545V65.865H83.0571V20.5118H66.0547Z" fill="#FAB400"/>
<path d="M58.4648 52.1167V55.2577H32.5654V52.1167H58.4648Z" fill="#CDB9FD"/>
<path d="M58.4501 71.2686V74.3675H32.5508V71.2686H58.4501Z" fill="#CDB9FD"/>
<path d="M13.0255 67.3213C10.8818 71.4214 8.80999 75.3801 6.53367 79.7439C4.29522 75.4909 2.20448 71.5131 0.00390625 67.3213H13.0293H13.0255Z" fill="#C80A50"/>
<path d="M84.4812 79.7552C82.2086 75.4182 80.1406 71.4595 77.959 67.2944H90.9996C88.8634 71.3792 86.7764 75.3685 84.4812 79.7552Z" fill="#C80A50"/>
<path d="M53.8747 18.0128C53.9088 22.7281 50.1705 26.5913 45.5534 26.6104C40.9402 26.6333 37.1375 22.793 37.1299 18.1007C37.1223 13.4121 40.9326 9.56803 45.5534 9.60624C50.125 9.64445 53.8406 13.4006 53.8747 18.009V18.0128Z" fill="#00A0C8"/>
</g>
<defs>
<clipPath id="clip0_703_1059">
<rect width="91" height="87" fill="white"/>
</clipPath>
</defs>
</svg>
