<svg width="73" height="80" viewBox="0 0 73 80" fill="none" xmlns="http://www.w3.org/2000/svg">
<g clip-path="url(#clip0_634_7653)">
<path d="M38.8281 59.2761C38.8281 61.7213 38.8281 63.948 38.8281 66.1746C38.8281 69.6098 38.8551 73.045 38.8161 76.4803C38.7922 78.5726 37.5047 79.9998 35.7651 79.9998C34.0135 79.9998 32.762 78.6038 32.747 76.4678C32.7111 71.418 32.735 66.3713 32.732 61.3216C32.732 60.7095 32.732 60.1005 32.732 59.2854C31.6422 59.2854 30.6781 59.1355 29.7918 59.3479C29.3636 59.4509 28.8996 60.1786 28.7648 60.7126C27.3935 66.1371 26.0911 71.5835 24.7557 77.0205C24.1838 79.344 22.6837 80.387 20.7196 79.8749C18.8093 79.3783 17.9201 77.8887 18.3931 75.8838C19.1656 72.6203 19.971 69.3662 20.7705 66.0872C19.3573 66.1902 18.0728 66.4682 16.8272 66.337C13.4289 65.9747 11.0845 64.001 10.0485 60.6252C9.68619 59.4416 9.16521 59.198 8.16218 59.2667C7.36574 59.3198 6.56631 59.2948 5.76687 59.2729C2.20385 59.1699 0.0241215 56.8714 0.012145 53.1364C-0.00881395 46.5252 0.00615673 39.917 0.00615673 33.3058C0.00615673 28.256 0.00615673 23.2094 0.00615673 18.1596C0.00915086 14.1779 1.52119 12.2573 5.3417 11.4422C5.37464 8.88453 7.66515 9.79642 8.85682 9.00632C8.38973 7.89456 7.39568 6.66725 7.59629 5.70851C7.82384 4.61549 9.09635 3.74419 9.94968 2.80731C11.6833 0.908575 12.5935 3.48811 13.9409 3.58492C14.357 2.49814 14.5008 0.90233 15.2972 0.371432C16.2014 -0.231292 17.6895 0.0872461 18.9231 0.0528939C21.4202 -0.0158105 20.3303 2.48253 21.2106 3.57243C22.2646 3.09462 23.4383 2.07343 24.3455 2.28579C25.3994 2.53562 26.2318 3.85037 27.133 4.73416C28.9624 6.53609 26.4563 7.48546 26.3725 9.05941C27.0761 9.2343 27.8995 9.28426 28.5672 9.64964C29.181 9.9838 29.6241 10.6583 29.9385 11.4953C30.3727 11.5203 30.8068 11.5671 31.241 11.5671C40.2743 11.5702 49.3046 11.5859 58.3379 11.5359C58.9816 11.5328 59.6254 11.0237 60.2691 10.7583C61.0835 10.421 61.8859 9.85264 62.7153 9.80267C64.9549 9.66838 67.2035 9.7246 69.4491 9.76207C71.6468 9.79955 72.9343 11.1736 72.9792 13.5065C73.0151 15.4833 72.9882 17.4632 72.9882 19.44C72.9882 22.0758 72.2876 23.3437 70.539 23.8964C68.9611 24.3961 67.7934 23.7809 66.3232 21.6261C65.928 22.0133 65.5358 22.3849 65.1585 22.7753C60.2871 27.8532 55.4216 32.9342 50.5472 38.0089C48.9004 39.7265 47.9213 39.7265 46.2715 38.0058C44.7236 36.3881 43.1906 34.7548 41.5198 32.9904C39.1874 35.4325 36.9508 37.7778 34.7082 40.1232C33.8968 40.9695 33.1183 41.8564 32.259 42.6465C30.8757 43.9206 28.8696 43.8457 27.66 42.5465C26.4204 41.2162 26.3815 39.1863 27.672 37.7622C29.2499 36.0259 30.8667 34.3208 32.5614 32.7093C32.9117 32.3752 33.8459 32.2503 34.2201 32.5001C34.9687 33.0029 34.6603 33.7524 34.0974 34.3426C32.6841 35.8135 31.2679 37.2813 29.8667 38.7647C29.3247 39.3393 28.4924 39.9264 29.3127 40.8352C30.1511 41.7596 30.732 40.9164 31.2859 40.3386C33.9746 37.5467 36.6484 34.7455 39.3371 31.9536C41.0408 30.1829 41.921 30.1798 43.6067 31.9286C45.1607 33.5431 46.6997 35.1764 48.3405 36.9003C48.7776 36.4725 49.1758 36.104 49.5501 35.7136C55.0204 30.0111 60.4787 24.293 65.9789 18.6218C66.455 18.1284 67.2065 17.9254 67.8323 17.5881C68.0868 18.3064 68.3682 19.0153 68.5808 19.7461C68.6796 20.0833 68.5179 20.5643 68.6946 20.8047C68.9581 21.1608 69.4072 21.5417 69.7964 21.5667C70.0599 21.5855 70.6019 21.0171 70.6079 20.7017C70.6737 18.1534 70.6767 15.6019 70.5899 13.0568C70.5809 12.7476 69.9432 12.2198 69.5839 12.2073C67.2904 12.1292 64.9939 12.1199 62.7003 12.2073C62.3261 12.2229 61.9728 12.8288 61.6105 13.1629C61.9398 13.5408 62.2093 14.0655 62.6195 14.256C63.0387 14.4496 63.6225 14.2247 64.0926 14.3528C64.5717 14.4839 65.2484 14.7244 65.3831 15.0991C65.5238 15.4801 65.2484 16.2203 64.922 16.5638C60.0116 21.7479 55.0743 26.9007 50.113 32.0348C48.9243 33.2652 47.8285 33.2152 46.5919 31.9505C44.9212 30.2391 43.2954 28.484 41.442 26.5291C40.3731 27.697 39.391 28.7713 38.4059 29.8456C37.843 30.4577 37.1993 30.9261 36.4897 30.1673C35.7801 29.4084 36.2681 28.7526 36.84 28.1655C37.7981 27.1786 38.7323 26.1637 39.7054 25.1924C40.945 23.9558 42.0917 23.9651 43.3493 25.2518C45.017 26.9569 46.6488 28.6995 48.2027 30.3297C51.631 26.7508 54.9635 23.2687 58.3349 19.7461C58.0205 19.7148 57.6073 19.643 57.1971 19.643C47.8644 19.6368 38.5347 19.6211 29.202 19.6742C28.5732 19.6774 27.9474 20.2176 27.3276 20.5205C27.2438 20.5611 27.1869 20.6673 27.118 20.7423C25.3934 22.641 23.4612 23.0095 21.3214 21.8478C20.8513 22.9908 20.6657 24.6428 19.8363 25.1487C18.8572 25.7452 17.3182 25.4392 16.0308 25.3705C13.8151 25.2487 14.896 22.9346 13.9948 21.904C13.9169 21.8978 13.8061 21.8447 13.7403 21.8853C10.827 23.6091 10.7491 23.6872 8.54543 21.1514C7.50646 19.9584 6.45253 19.4369 4.95846 19.6211C4.13806 19.7211 3.29372 19.6399 2.37751 19.6399C2.34757 20.3269 2.30266 20.8328 2.30266 21.3388C2.29966 31.8006 2.29667 42.2624 2.30266 52.7242C2.30266 55.8721 3.30869 56.8995 6.3657 56.9026C7.41065 56.9026 8.45561 56.9026 9.46163 56.9026C11.7432 51.5312 14.2582 49.4669 18.1356 49.7449C21.7645 50.0041 24.3395 52.4212 25.63 56.9026C26.118 56.9026 26.6569 56.9026 27.1929 56.9026C39.8671 56.9026 52.5442 56.9026 65.2184 56.9026C68.2096 56.9026 69.2276 55.8315 69.2306 52.6586C69.2365 45.0074 69.2306 37.3562 69.2365 29.7051C69.2365 29.1867 69.1497 28.6121 69.3354 28.1655C69.5 27.7689 70.018 27.2286 70.3174 27.2692C70.7366 27.3254 71.2007 27.7938 71.4522 28.2092C71.6348 28.5121 71.5121 29.018 71.5121 29.4334C71.5121 37.1876 71.5151 44.945 71.5121 52.6992C71.5121 57.1119 69.4222 59.2698 65.1406 59.2792C60.4008 59.2854 55.6581 59.2792 50.9184 59.2792C50.3795 59.2792 49.8405 59.2792 49.098 59.2792C50.0591 63.2359 50.9693 66.9959 51.8855 70.7528C52.2897 72.4142 52.7179 74.0694 53.1101 75.737C53.6012 77.8387 52.8377 79.2628 50.9454 79.8312C49.0561 80.3964 47.4362 79.497 46.9242 77.4577C45.5679 72.0801 44.1936 66.7055 42.987 61.2935C42.6187 59.6446 41.966 58.9856 40.394 59.2698C39.9629 59.3479 39.5048 59.2823 38.8221 59.2823L38.8281 59.2761ZM24.8605 19.7742C24.5102 18.0472 23.7017 16.4889 24.1299 15.5301C24.594 14.4871 26.2018 13.9999 27.4324 13.191V11.8294C27.3426 11.9294 27.2528 12.0293 27.163 12.1292C26.1 11.4141 24.4772 10.9113 24.1299 9.92446C23.7496 8.84393 24.5491 7.31057 24.8904 5.71788C24.7557 5.58672 24.3694 5.20572 23.9473 4.79037C23.2945 5.22446 22.7256 5.64293 22.1208 5.9927C20.8962 6.70473 19.4381 6.08326 19.0159 4.68107C18.8812 4.23761 18.9321 3.69423 18.7015 3.33197C18.453 2.9416 17.968 2.47004 17.5967 2.47941C17.2194 2.48878 16.8062 3.00094 16.5098 3.37569C16.3451 3.58492 16.399 3.97529 16.3272 4.27821C15.8781 6.17695 14.396 6.82027 12.8211 5.80532C12.318 5.48054 11.818 5.14639 11.3569 4.84346C9.97363 5.58672 10.0545 6.41117 10.8509 7.5729C12.0426 9.30925 11.3749 10.9019 9.39576 11.3891C8.87179 11.5172 8.3538 11.6639 7.82983 11.8013V13.6751C8.21009 13.7688 8.49752 13.8406 8.78795 13.9093C11.6204 14.6057 12.1474 15.833 10.5365 18.3751C9.6832 19.7211 10.6743 20.0209 11.294 20.6205C11.5336 20.4862 11.6683 20.4237 11.7941 20.3394C14.7942 18.3751 15.4529 18.653 16.5487 22.1882C16.6655 22.5692 17.2614 22.9752 17.6775 23.0314C18.9441 23.2094 18.6955 22.0477 18.8602 21.3231C19.3333 19.237 20.8034 18.575 22.528 19.7148C22.9861 20.0178 23.4442 20.3176 24.0521 20.7173C24.4263 20.2801 24.7796 19.8647 24.8635 19.7648L24.8605 19.7742ZM61.5805 16.7481C60.9398 16.1485 60.1643 15.7425 59.9038 15.1054C59.4248 13.9468 58.6792 13.8562 57.6582 13.8593C48.9333 13.8906 40.2084 13.8781 31.4865 13.8781H29.8637C29.8158 16.6138 27.4145 15.577 26.3126 16.57C27.1809 17.4101 60.1613 17.5725 61.5835 16.7481H61.5805ZM11.8989 58.0956C11.9078 61.3715 14.4439 64.0448 17.5668 64.0697C20.7765 64.0947 23.3514 61.4153 23.3424 58.0581C23.3335 54.7509 20.8423 52.1402 17.6686 52.1214C14.393 52.0996 11.8869 54.6947 11.8989 58.0987V58.0956ZM44.9242 59.4509C44.9391 59.6727 44.9212 59.8788 44.9661 60.0662C46.2805 65.4407 47.6039 70.8121 48.9243 76.1867C49.113 76.9518 49.2417 77.8481 50.3016 77.5858C51.4873 77.2922 50.9334 76.3397 50.7747 75.6745C49.583 70.6966 48.2956 65.7405 47.1548 60.7501C46.8224 59.2948 46.1787 59.02 44.9212 59.4509H44.9242ZM26.8336 59.0294C26.115 59.3729 25.6419 59.4385 25.5162 59.6883C24.8575 61.0155 24.1 62.3365 23.7167 63.7575C22.5999 67.9078 21.6238 72.0988 20.6657 76.296C20.5818 76.6645 21.0459 77.1673 21.2585 77.6076C21.6597 77.3266 22.3304 77.1205 22.4232 76.752C23.8934 71.037 25.2886 65.3002 26.8336 59.0325V59.0294ZM35.0854 59.426C35.0585 59.8288 35.0076 60.2348 35.0076 60.6408C35.0016 65.7405 34.9836 70.8403 35.0345 75.94C35.0405 76.4803 35.4657 77.4577 35.7352 77.4702C36.849 77.5327 36.5077 76.5052 36.5106 75.8619C36.5346 70.8153 36.5256 65.7655 36.5196 60.7188C36.5196 60.2691 36.4687 59.8163 36.4388 59.3541C36.0645 59.3291 35.819 59.301 35.5705 59.3042C35.4298 59.3073 35.292 59.3697 35.0824 59.426H35.0854ZM2.42841 17.0853C5.47943 17.6037 8.37476 17.3164 8.82987 16.4451C7.58132 15.6988 5.36865 16.492 5.30877 13.978C3.26378 14.3278 2.50327 15.1679 2.43141 17.0853H2.42841Z" fill="url(#paint0_linear_634_7653)"/>
<path d="M15.5669 36.0606C13.8214 36.0606 12.0758 36.0325 10.3302 36.0699C9.11159 36.098 8.60558 35.5297 8.65349 34.2774C8.6984 33.1344 8.68343 31.9883 8.65648 30.8453C8.63253 29.7491 9.10859 29.1839 10.1655 29.1808C13.7555 29.1808 17.3455 29.1745 20.9384 29.187C21.8187 29.187 22.3666 29.6305 22.3816 30.5954C22.4026 31.9477 22.4026 33.2999 22.3816 34.6521C22.3666 35.7233 21.7409 36.0699 20.8037 36.0606C19.0581 36.045 17.3125 36.0574 15.5669 36.0574V36.0606ZM11.0338 33.659H19.9713V31.6604H11.0338V33.659Z" fill="url(#paint1_linear_634_7653)"/>
<path d="M52.909 49.0769C56.1936 49.0769 59.4812 49.0769 62.7657 49.0769C63.631 49.0769 64.6191 49.0176 64.6161 50.2824C64.6161 51.4566 63.667 51.4285 62.8585 51.4285C56.2385 51.4347 49.6155 51.4347 42.9955 51.4285C42.193 51.4285 41.2469 51.4785 41.2259 50.2949C41.205 49.0082 42.187 49.0738 43.0523 49.0738C46.3369 49.0738 49.6245 49.0738 52.909 49.0738V49.0769Z" fill="url(#paint2_linear_634_7653)"/>
<path d="M57.2566 46.2882C55.3164 46.2882 53.3733 46.2788 51.4331 46.2944C50.6097 46.3007 49.7713 46.1289 49.927 45.114C49.9959 44.6643 50.8372 44.0272 51.3402 44.0147C55.2715 43.9241 59.2058 43.9241 63.1371 44.0147C63.6461 44.0272 64.4965 44.6393 64.5713 45.089C64.739 46.0914 63.9096 46.3007 63.0832 46.2976C61.143 46.2882 59.1998 46.2944 57.2596 46.2944L57.2566 46.2882Z" fill="url(#paint3_linear_634_7653)"/>
<path d="M13.8124 38.1683C15.0071 38.1683 16.2167 38.059 17.3904 38.2214C17.8755 38.2901 18.2857 38.9459 18.7288 39.3363C18.2916 39.7391 17.8665 40.4699 17.4144 40.4886C14.9292 40.6011 12.4351 40.6011 9.94998 40.4855C9.51284 40.4637 9.10863 39.7017 8.68945 39.2832C9.15055 38.9116 9.5847 38.2839 10.0817 38.2214C11.3093 38.0653 12.5669 38.1714 13.8094 38.1714L13.8124 38.1683Z" fill="url(#paint4_linear_634_7653)"/>
<path d="M17.6351 17.6508C15.0123 17.6602 12.8685 15.4585 12.8565 12.7447C12.8445 10.034 14.9733 7.8136 17.5962 7.80423C20.2161 7.79486 22.3689 9.99965 22.3838 12.7041C22.3958 15.4054 20.252 17.6414 17.6351 17.6508ZM20.0724 12.6573C20.0424 11.2394 18.9256 10.0965 17.5872 10.1152C16.2429 10.1339 15.162 11.2925 15.159 12.7197C15.156 14.2094 16.3207 15.3961 17.722 15.3305C19.0753 15.2649 20.1023 14.0969 20.0724 12.6573Z" fill="url(#paint5_linear_634_7653)"/>
<path d="M16.4709 57.9272C16.6385 57.0559 15.9708 55.3977 17.6625 55.4226C19.1925 55.4445 18.6775 57.006 18.7674 58.0115C18.8093 58.4737 18.9081 59.014 18.7344 59.395C18.4949 59.9259 18.0218 60.3444 17.6475 60.8097C17.2553 60.3131 16.7852 59.8572 16.5008 59.3013C16.3361 58.9765 16.4709 58.4862 16.4709 57.9272Z" fill="url(#paint6_linear_634_7653)"/>
</g>
<defs>
<linearGradient id="paint0_linear_634_7653" x1="29.6779" y1="17.8572" x2="97.9442" y2="65.5838" gradientUnits="userSpaceOnUse">
<stop stop-color="#7263D8"/>
<stop offset="1" stop-color="#CDB9FD"/>
</linearGradient>
<linearGradient id="paint1_linear_634_7653" x1="15.5239" y1="29.1792" x2="15.5239" y2="36.0709" gradientUnits="userSpaceOnUse">
<stop stop-color="#7263D8"/>
<stop offset="1" stop-opacity="0"/>
</linearGradient>
<linearGradient id="paint2_linear_634_7653" x1="52.9208" y1="49.0732" x2="52.9208" y2="51.4332" gradientUnits="userSpaceOnUse">
<stop stop-color="#7263D8"/>
<stop offset="1" stop-opacity="0"/>
</linearGradient>
<linearGradient id="paint3_linear_634_7653" x1="57.2507" y1="43.9468" x2="57.2507" y2="46.2976" gradientUnits="userSpaceOnUse">
<stop stop-color="#7263D8"/>
<stop offset="1" stop-opacity="0"/>
</linearGradient>
<linearGradient id="paint4_linear_634_7653" x1="13.7091" y1="38.1323" x2="13.7091" y2="40.5726" gradientUnits="userSpaceOnUse">
<stop stop-color="#7263D8"/>
<stop offset="1" stop-opacity="0"/>
</linearGradient>
<linearGradient id="paint5_linear_634_7653" x1="17.6202" y1="7.8042" x2="17.6202" y2="17.6508" gradientUnits="userSpaceOnUse">
<stop stop-color="#7263D8"/>
<stop offset="1" stop-opacity="0"/>
</linearGradient>
<linearGradient id="paint6_linear_634_7653" x1="17.6262" y1="55.4224" x2="17.6262" y2="60.8097" gradientUnits="userSpaceOnUse">
<stop stop-color="#7263D8"/>
<stop offset="1" stop-opacity="0"/>
</linearGradient>
<clipPath id="clip0_634_7653">
<rect width="73" height="80" fill="white"/>
</clipPath>
</defs>
</svg>
