<svg width="962" height="964" viewBox="0 0 962 964" fill="none" xmlns="http://www.w3.org/2000/svg">
<g opacity="0.6">
<path d="M390.605 495.249C388.999 502.193 385.145 506.928 377.757 506.612C369.727 506.296 364.909 500.93 365.873 493.039C366.836 486.095 371.975 481.676 379.363 482.307C386.429 483.254 390.284 488.305 390.605 495.249Z" fill="#555A63" fill-opacity="0.06"/>
<path d="M564.695 469.366C572.404 470.628 577.543 474.732 577.221 482.939C576.9 490.198 572.082 494.617 564.695 494.617C556.665 494.302 551.847 489.567 552.168 481.36C552.168 474.1 556.986 470.313 564.695 469.366Z" fill="#555A63" fill-opacity="0.06"/>
<path d="M532.575 475.994C531.611 483.886 527.436 488.62 519.085 488.305C510.733 487.989 506.237 483.254 506.558 475.363C506.879 467.156 511.697 462.737 519.727 463.053C528.078 463.053 531.933 468.103 532.575 475.994Z" fill="#555A63" fill-opacity="0.06"/>
<path d="M560.841 569.741C560.198 577.001 556.344 581.736 549.277 582.367C541.247 582.999 536.108 577.948 536.108 570.373C536.108 563.429 540.926 558.694 547.993 558.378C555.38 558.063 559.235 562.797 560.841 569.741Z" fill="#555A63" fill-opacity="0.06"/>
<path d="M422.082 491.146C431.076 492.408 436.215 496.511 435.894 504.718C435.573 512.609 430.434 517.028 422.404 516.713C415.016 516.397 410.84 511.663 410.519 504.403C410.198 496.196 415.658 492.724 422.082 491.146Z" fill="#555A63" fill-opacity="0.06"/>
<path d="M506.237 576.686C499.17 575.739 494.031 571.951 494.031 564.691C493.71 556.8 498.849 551.75 506.879 551.75C514.909 551.75 519.727 557.115 519.406 565.007C518.763 572.267 513.624 576.054 506.237 576.686Z" fill="#555A63" fill-opacity="0.06"/>
<path d="M481.183 510.716C480.22 518.607 476.044 523.341 467.693 523.026C459.342 522.71 454.845 517.976 455.166 510.084C455.487 501.878 460.305 497.458 468.335 497.774C476.686 497.774 480.541 502.824 481.183 510.716Z" fill="#555A63" fill-opacity="0.06"/>
<path d="M475.401 453.268C485.037 453.584 490.177 457.371 490.498 465.578C490.819 474.416 486.322 479.467 477.329 479.467C468.977 479.467 464.481 474.732 464.481 466.841C464.159 458.003 469.62 454.531 475.401 453.268Z" fill="#555A63" fill-opacity="0.06"/>
<path d="M445.851 458.002C445.209 467.472 441.354 472.522 433.003 472.522C424.652 472.522 419.834 467.787 419.834 459.896C419.834 452.636 424.331 448.217 431.718 447.586C440.07 446.639 443.924 452.005 445.851 458.002Z" fill="#555A63" fill-opacity="0.06"/>
<path d="M474.438 554.591C473.474 562.166 469.299 567.216 460.948 566.901C453.56 566.585 449.063 561.85 449.063 554.591C449.063 546.699 454.202 541.649 462.232 541.965C469.62 542.596 473.474 547.331 474.438 554.591Z" fill="#555A63" fill-opacity="0.06"/>
<path d="M429.47 548.277C428.506 555.537 424.652 560.272 417.264 560.588C409.234 560.903 404.095 555.853 404.416 547.646C404.738 540.386 409.556 535.967 416.943 535.967C424.331 536.283 428.185 541.018 429.47 548.277Z" fill="#555A63" fill-opacity="0.06"/>
<path d="M388.357 466.209C380.969 465.578 375.83 461.79 375.187 454.846C374.545 446.955 379.684 441.589 387.714 441.589C395.102 441.589 399.92 446.324 399.92 453.583C400.241 460.528 395.423 464.631 388.357 466.209Z" fill="#555A63" fill-opacity="0.06"/>
<path d="M586.858 438.117C585.252 445.693 581.076 450.427 573.689 450.112C565.659 449.796 560.841 444.43 561.804 436.539C562.768 429.595 567.907 425.176 575.295 425.807C582.361 426.438 585.894 431.489 586.858 438.117Z" fill="#555A63" fill-opacity="0.06"/>
<path d="M426.258 416.022C427.222 408.446 431.397 403.08 439.427 403.396C446.815 403.396 451.633 408.131 451.633 415.391C451.633 423.282 446.815 428.332 438.785 428.332C431.397 428.016 427.543 423.282 426.258 416.022Z" fill="#555A63" fill-opacity="0.06"/>
<path d="M381.611 409.393C382.575 402.449 386.429 397.398 393.817 397.398C401.847 397.398 406.986 402.449 406.344 410.34C406.022 417.284 400.883 422.019 393.817 421.703C386.429 421.388 382.575 416.337 381.611 409.393Z" fill="#555A63" fill-opacity="0.06"/>
<path d="M558.592 538.808C550.883 538.177 545.423 534.074 545.423 526.182C545.423 518.923 549.92 514.188 557.307 513.872C565.337 513.557 570.476 518.291 570.476 526.182C570.476 533.442 565.658 537.546 558.592 538.808Z" fill="#555A63" fill-opacity="0.06"/>
<path d="M526.151 519.554C525.509 527.445 521.654 532.495 513.303 532.495C505.273 532.495 500.455 528.076 500.134 520.185C499.813 512.294 504.631 507.559 512.661 507.243C521.012 506.928 525.187 511.662 526.151 519.554Z" fill="#555A63" fill-opacity="0.06"/>
<path d="M497.243 424.86C495.637 433.698 491.14 438.432 482.789 437.801C474.759 437.17 470.262 431.804 471.226 423.913C471.868 416.653 476.686 412.549 484.395 412.865C492.746 412.865 496.279 418.231 497.243 424.86Z" fill="#555A63" fill-opacity="0.06"/>
<path d="M547.993 387.298C547.029 394.242 543.175 399.292 535.787 399.292C527.757 399.292 522.618 394.242 522.939 386.351C523.26 379.407 528.399 374.672 535.787 374.988C543.175 375.303 547.029 380.354 547.993 387.298Z" fill="#555A63" fill-opacity="0.06"/>
<path d="M529.684 444.43C521.654 443.799 516.515 440.011 516.194 431.804C516.194 423.913 521.012 419.178 529.042 419.178C536.429 419.178 540.926 423.597 541.569 430.857C542.211 438.748 537.393 442.852 529.684 444.43Z" fill="#555A63" fill-opacity="0.06"/>
<path d="M503.025 381.932C501.419 388.876 497.564 393.927 489.855 393.295C481.825 392.98 477.008 387.614 477.971 379.722C478.935 372.778 484.074 368.359 491.461 368.99C498.849 369.622 502.703 374.356 503.025 381.932Z" fill="#555A63" fill-opacity="0.06"/>
<path d="M451.633 586.471C459.341 588.049 464.481 591.837 464.159 599.097C463.838 606.041 459.02 610.775 451.633 610.46C444.566 610.144 439.748 605.409 439.748 598.15C440.069 591.205 445.53 587.733 451.633 586.471Z" fill="#555A63" fill-opacity="0.06"/>
<path d="M609.663 503.772C602.596 502.825 597.457 499.037 597.136 492.093C596.815 484.833 601.633 480.098 608.699 479.782C616.087 479.467 620.905 484.202 621.226 491.146C621.868 498.406 616.729 502.193 609.663 503.772Z" fill="#555A63" fill-opacity="0.06"/>
<path d="M419.192 592.784C417.907 600.044 413.731 604.778 406.344 604.147C399.277 603.516 394.459 598.465 395.102 591.206C395.744 584.893 400.241 580.474 406.986 580.474C414.374 580.789 418.228 585.84 419.192 592.784Z" fill="#555A63" fill-opacity="0.06"/>
<path d="M344.673 488.621C343.71 495.565 339.855 499.668 333.11 499.668C325.723 499.668 321.226 494.618 321.868 487.358C322.511 481.045 327.329 476.942 334.074 477.257C340.498 477.573 344.031 481.992 344.673 488.621Z" fill="#555A63" fill-opacity="0.06"/>
<path d="M496.601 596.256C504.309 597.834 509.127 601.622 508.806 608.882C508.485 615.826 503.667 620.561 496.279 620.245C489.213 619.929 484.395 615.195 484.716 607.935C485.037 600.675 490.498 597.203 496.601 596.256Z" fill="#555A63" fill-opacity="0.06"/>
<path d="M373.581 582.683C373.26 588.996 369.727 593.415 362.982 594.046C356.237 594.677 351.419 590.89 350.776 584.261C350.134 577.001 354.309 571.951 361.697 571.951C368.442 571.635 372.297 576.054 373.581 582.683Z" fill="#555A63" fill-opacity="0.06"/>
<path d="M541.89 626.242C534.181 624.664 529.684 620.56 530.648 613.301C531.29 606.988 536.108 602.884 542.853 603.516C549.92 604.147 554.416 608.882 553.774 616.141C552.489 622.454 547.671 625.611 541.89 626.242Z" fill="#555A63" fill-opacity="0.06"/>
<path d="M592.96 568.479C599.706 569.11 604.202 572.582 604.845 578.895C605.487 586.155 600.99 590.89 593.603 591.206C586.858 591.521 582.361 587.102 581.719 581.105C581.076 573.845 585.573 569.426 592.96 568.479Z" fill="#555A63" fill-opacity="0.06"/>
<path d="M615.123 535.336C614.159 542.28 610.305 547.015 603.239 547.331C595.851 547.646 591.033 542.912 590.712 535.967C590.391 528.708 595.209 523.973 602.275 523.657C609.663 523.657 613.838 528.392 615.123 535.336Z" fill="#555A63" fill-opacity="0.06"/>
<path d="M636.964 403.08C636.322 409.709 632.468 414.128 625.723 414.128C618.335 414.128 613.517 409.393 614.159 402.134C614.481 395.505 619.299 391.402 626.044 391.717C632.468 392.348 636.322 396.452 636.964 403.08Z" fill="#555A63" fill-opacity="0.06"/>
<path d="M360.733 399.608C360.412 405.921 356.879 410.34 350.134 410.971C343.389 411.603 338.571 407.815 337.928 401.186C337.286 393.927 341.461 388.876 348.849 388.561C355.594 388.561 359.449 392.664 360.733 399.608Z" fill="#555A63" fill-opacity="0.06"/>
<path d="M443.603 327.325C444.245 320.696 448.1 316.277 454.845 316.277C462.232 316.277 467.05 321.012 466.408 328.272C466.087 334.9 461.269 339.004 454.524 338.688C448.1 338.057 444.245 333.954 443.603 327.325Z" fill="#555A63" fill-opacity="0.06"/>
<path d="M445.209 359.205C452.918 360.783 458.057 364.571 457.735 371.831C457.414 379.091 452.596 383.825 445.209 383.51C437.821 383.194 433.324 378.459 433.324 371.2C433.646 363.94 438.785 360.468 445.209 359.205Z" fill="#555A63" fill-opacity="0.06"/>
<path d="M343.067 432.435C350.776 434.013 355.273 438.117 354.309 445.377C353.346 451.689 348.849 455.793 342.104 455.162C335.037 454.53 330.541 449.796 331.504 442.536C332.147 436.223 336.965 433.066 343.067 432.435Z" fill="#555A63" fill-opacity="0.06"/>
<path d="M403.132 353.208C410.198 353.839 415.016 357.627 415.658 364.887C415.98 371.515 411.804 375.935 405.38 376.881C397.992 377.828 392.853 373.409 391.89 366.465C390.926 359.205 395.744 354.786 403.132 353.208Z" fill="#555A63" fill-opacity="0.06"/>
<path d="M511.697 336.479C511.055 342.792 507.521 347.526 501.097 348.158C493.71 348.789 488.892 344.37 488.249 337.426C487.928 330.797 492.104 326.378 498.528 325.747C506.237 324.8 510.412 329.219 511.697 336.479Z" fill="#555A63" fill-opacity="0.06"/>
<path d="M580.112 381.616C587.821 382.879 592.639 386.982 592.318 394.242C591.997 401.186 587.179 405.921 579.791 405.605C572.725 405.29 567.907 400.555 568.228 393.295C568.549 386.035 574.01 382.563 580.112 381.616Z" fill="#555A63" fill-opacity="0.06"/>
<path d="M618.656 435.276C626.365 436.538 631.183 440.642 630.862 447.902C630.541 455.162 625.402 459.581 618.014 458.949C611.59 458.634 607.093 453.899 607.093 447.586C607.093 440.326 612.232 436.538 618.656 435.276Z" fill="#555A63" fill-opacity="0.06"/>
<path d="M556.665 343.423C555.701 350.367 551.847 354.471 545.102 354.471C537.714 354.471 533.217 349.421 533.86 342.161C534.502 335.848 539.32 331.744 546.065 332.06C552.489 332.376 556.022 336.795 556.665 343.423Z" fill="#555A63" fill-opacity="0.06"/>
<path d="M371.333 526.498C379.042 528.076 384.181 531.864 383.86 539.124C383.539 546.068 378.721 550.803 371.333 550.487C364.267 550.171 359.449 545.437 359.77 538.177C359.77 531.233 365.23 527.761 371.333 526.498Z" fill="#555A63" fill-opacity="0.06"/>
<path d="M373.903 257.567C380.969 258.199 384.823 261.355 384.502 267.668C384.181 273.981 380.326 277.137 374.224 276.822C368.763 276.506 365.551 273.35 365.23 267.668C364.909 261.355 368.763 258.514 373.903 257.567Z" fill="#555A63" fill-opacity="0.06"/>
<path d="M753.881 513.872C752.918 519.869 749.706 523.341 743.282 523.026C737.821 522.71 734.288 518.922 734.609 513.556C734.931 507.243 738.785 503.771 744.888 504.403C750.669 504.718 753.56 508.19 753.881 513.872Z" fill="#555A63" fill-opacity="0.06"/>
<path d="M282.682 533.126C275.616 532.811 271.761 529.654 271.761 523.341C271.761 516.397 275.616 512.609 282.682 512.925C289.106 513.241 292.318 517.028 291.997 523.341C291.676 529.97 287.821 532.495 282.682 533.126Z" fill="#555A63" fill-opacity="0.06"/>
<path d="M246.708 517.344C245.744 523.342 242.211 526.814 236.108 526.498C229.684 525.867 226.793 521.763 227.436 515.766C228.078 510.4 231.611 507.244 237.072 507.559C243.175 507.559 246.065 511.031 246.708 517.344Z" fill="#555A63" fill-opacity="0.06"/>
<path d="M339.534 261.671C338.249 267.352 334.716 271.14 328.613 270.193C323.474 269.562 319.941 265.774 320.583 260.408C321.226 254.411 325.08 250.939 331.504 251.886C336.322 252.517 339.213 256.305 339.534 261.671Z" fill="#555A63" fill-opacity="0.06"/>
<path d="M660.733 270.509C659.77 276.191 656.879 280.294 650.455 279.978C644.995 279.663 641.461 276.191 641.461 270.825C641.461 264.827 645.316 261.04 651.419 261.355C657.2 261.355 660.091 265.143 660.733 270.509Z" fill="#555A63" fill-opacity="0.06"/>
<path d="M653.988 487.042C660.733 487.358 664.909 490.83 664.909 497.774C664.909 503.771 661.376 507.875 655.273 508.19C648.528 508.822 643.71 505.349 643.389 498.405C643.068 491.777 646.922 487.989 653.988 487.042Z" fill="#555A63" fill-opacity="0.06"/>
<path d="M462.232 293.236C455.808 293.236 451.954 290.395 451.312 284.082C450.99 277.138 454.202 273.034 461.59 273.034C468.014 273.034 471.547 276.506 471.547 282.819C471.868 289.132 468.656 292.604 462.232 293.236Z" fill="#555A63" fill-opacity="0.06"/>
<path d="M699.599 517.344C693.496 517.344 689.641 514.503 689.32 508.19C688.999 501.246 692.532 497.458 699.599 497.458C706.022 497.458 709.234 501.246 709.234 507.243C709.234 513.556 706.022 516.713 699.599 517.344Z" fill="#555A63" fill-opacity="0.06"/>
<path d="M616.087 264.827C615.123 270.824 611.269 274.296 605.166 273.665C599.063 273.034 595.851 268.93 596.815 262.618C597.457 257.252 601.312 254.411 606.772 254.726C612.875 255.042 615.766 258.83 616.087 264.827Z" fill="#555A63" fill-opacity="0.06"/>
<path d="M417.586 267.037C424.01 267.668 427.222 271.456 426.579 277.769C426.258 284.082 422.082 287.238 415.98 286.922C409.556 286.607 406.344 282.503 406.665 276.506C406.986 269.562 411.162 267.037 417.586 267.037Z" fill="#555A63" fill-opacity="0.06"/>
<path d="M680.648 408.446C680.648 415.075 677.436 419.178 671.012 419.494C663.945 419.809 659.77 416.337 660.091 409.078C660.091 402.765 663.945 399.292 670.369 399.292C676.793 399.292 680.005 402.765 680.648 408.446Z" fill="#555A63" fill-opacity="0.06"/>
<path d="M725.294 418.547C724.973 424.544 722.082 428.332 715.658 428.332C709.556 428.332 705.701 425.176 705.701 418.863C705.701 412.865 708.913 409.078 715.337 409.078C721.44 409.078 724.652 412.55 725.294 418.547Z" fill="#555A63" fill-opacity="0.06"/>
<path d="M314.481 394.242C313.838 400.555 310.305 404.027 303.881 403.711C296.494 403.396 293.282 399.292 293.924 392.348C294.566 386.035 298.742 383.194 305.166 383.51C311.59 384.141 314.481 387.929 314.481 394.242Z" fill="#555A63" fill-opacity="0.06"/>
<path d="M269.192 383.826C268.549 389.823 265.658 393.611 259.234 393.611C253.774 393.611 250.241 390.454 249.598 385.088C248.956 379.091 252.168 374.988 258.592 374.672C265.016 374.357 268.228 377.829 269.192 383.826Z" fill="#555A63" fill-opacity="0.06"/>
<path d="M252.489 418.547C258.592 418.863 262.446 421.703 262.446 428.016C262.446 434.014 259.234 437.801 252.81 437.801C246.708 437.801 242.853 434.645 242.853 428.332C242.853 422.335 246.386 419.178 252.489 418.547Z" fill="#555A63" fill-opacity="0.06"/>
<path d="M734.609 374.357C734.288 379.723 731.397 383.51 725.937 384.142C719.834 384.773 715.658 381.301 715.337 375.304C715.016 368.991 718.87 365.519 725.294 365.519C731.076 365.519 733.967 368.991 734.609 374.357Z" fill="#555A63" fill-opacity="0.06"/>
<path d="M308.057 437.801C307.736 444.43 304.202 448.218 297.136 447.902C291.033 447.586 287.5 444.114 287.5 437.801C287.5 430.857 291.354 427.069 298.421 427.385C304.524 428.016 307.736 431.488 308.057 437.801Z" fill="#555A63" fill-opacity="0.06"/>
<path d="M689.962 365.203C689.641 371.2 686.75 374.988 680.326 374.988C673.902 374.988 670.369 371.831 670.048 365.518C670.048 359.205 673.26 355.733 679.684 355.417C686.108 355.417 689.32 358.89 689.962 365.203Z" fill="#555A63" fill-opacity="0.06"/>
<path d="M634.716 348.789C641.461 349.105 645.316 352.261 645.316 359.205C645.316 365.203 641.783 368.99 635.68 369.306C628.613 369.622 624.759 365.834 624.759 358.89C624.759 352.577 628.292 349.42 634.716 348.789Z" fill="#555A63" fill-opacity="0.06"/>
<path d="M369.406 355.733C368.763 362.677 364.909 366.465 357.843 366.15C350.776 365.834 347.564 361.415 347.885 354.786C348.207 348.789 352.382 345.317 358.485 345.317C365.551 345.317 369.085 349.42 369.406 355.733Z" fill="#555A63" fill-opacity="0.06"/>
<path d="M601.311 351.946C600.348 359.205 596.815 363.309 590.07 363.309C583.324 363.309 579.149 359.205 579.47 352.577C579.47 345.948 583.646 341.845 590.391 342.161C597.136 341.845 600.348 346.264 601.311 351.946Z" fill="#555A63" fill-opacity="0.06"/>
<path d="M674.545 452.952C674.224 459.581 671.012 464 664.267 464C657.521 464.316 653.346 460.212 653.346 453.584C653.346 447.586 656.879 443.799 662.661 443.167C669.727 442.536 673.581 446.008 674.545 452.952Z" fill="#555A63" fill-opacity="0.06"/>
<path d="M314.16 359.521C307.093 358.89 303.56 355.418 303.56 349.42C303.56 342.161 308.057 339.004 314.802 339.635C321.226 340.267 324.117 344.37 323.474 350.367C323.474 356.68 319.299 359.205 314.16 359.521Z" fill="#555A63" fill-opacity="0.06"/>
<path d="M278.506 340.582C277.222 346.58 273.688 350.052 267.586 349.105C261.483 348.473 258.271 344.37 259.234 338.373C259.877 333.322 263.41 330.166 269.192 330.482C275.294 330.797 278.185 334.585 278.506 340.582Z" fill="#555A63" fill-opacity="0.06"/>
<path d="M718.871 464C718.228 470.313 714.374 473.469 707.95 472.838C701.526 472.523 698.314 468.419 698.635 462.422C698.956 456.109 703.132 452.952 709.235 453.268C716.301 453.584 718.871 457.687 718.871 464Z" fill="#555A63" fill-opacity="0.06"/>
<path d="M696.387 324.169C695.102 330.797 691.569 334.269 685.466 333.638C679.363 333.007 676.151 328.903 677.115 322.906C677.757 317.856 681.29 314.699 687.072 315.015C693.175 315.015 695.744 319.118 696.387 324.169Z" fill="#555A63" fill-opacity="0.06"/>
<path d="M763.517 469.05C763.196 474.416 760.305 478.204 755.166 478.835C749.063 479.466 744.887 475.994 744.566 469.997C744.245 464 748.099 460.212 754.202 460.212C759.663 460.212 762.553 463.684 763.517 469.05Z" fill="#555A63" fill-opacity="0.06"/>
<path d="M409.877 310.596C417.586 311.543 421.119 315.33 420.798 322.275C420.155 329.219 415.658 332.375 408.913 331.744C402.811 331.113 399.599 327.325 399.599 321.328C399.599 314.068 404.095 310.911 409.877 310.596Z" fill="#555A63" fill-opacity="0.06"/>
<path d="M253.132 472.207C252.81 478.204 249.598 481.992 243.174 481.992C236.75 481.992 233.217 478.204 233.538 471.891C233.86 466.525 237.072 463.053 242.532 462.737C248.956 462.737 252.168 466.209 253.132 472.207Z" fill="#555A63" fill-opacity="0.06"/>
<path d="M640.498 304.914C646.922 304.914 650.776 307.755 651.419 314.068C651.74 320.065 648.849 324.168 642.425 324.484C636.322 324.8 632.147 321.959 631.825 315.646C631.183 309.333 634.395 305.861 640.498 304.914Z" fill="#555A63" fill-opacity="0.06"/>
<path d="M365.23 301.442C371.333 301.758 375.187 304.598 375.508 310.911C375.83 317.855 371.975 321.643 364.588 321.328C358.164 321.012 354.952 317.224 354.952 311.227C355.273 304.914 358.806 301.758 365.23 301.442Z" fill="#555A63" fill-opacity="0.06"/>
<path d="M606.772 308.386C606.451 314.699 603.239 318.171 596.815 318.171C589.748 318.171 585.894 314.384 586.536 307.439C586.858 301.127 591.033 297.97 597.136 298.286C603.239 298.601 606.451 302.389 606.772 308.386Z" fill="#555A63" fill-opacity="0.06"/>
<path d="M320.262 315.015C313.838 314.383 310.305 311.227 310.626 304.914C310.948 298.601 314.802 295.445 321.226 295.76C326.686 296.076 329.898 299.548 330.22 304.914C330.22 311.227 326.365 314.383 320.262 315.015Z" fill="#555A63" fill-opacity="0.06"/>
<path d="M288.785 471.891C295.209 472.522 298.421 476.31 298.1 482.307C297.778 489.567 293.282 492.724 286.215 491.777C279.791 491.146 276.9 486.726 277.543 480.729C278.506 474.416 282.682 471.891 288.785 471.891Z" fill="#555A63" fill-opacity="0.06"/>
<path d="M551.526 288.816C558.271 289.132 562.125 292.604 561.804 299.548C561.483 305.546 557.95 309.018 551.526 309.018C544.459 309.018 540.605 305.23 540.926 298.286C541.247 292.289 545.102 289.132 551.526 288.816Z" fill="#555A63" fill-opacity="0.06"/>
<path d="M516.836 292.92C516.194 299.864 512.339 303.336 505.273 303.021C499.17 302.705 495.637 298.602 495.958 292.604C496.279 285.66 500.455 282.188 507.2 282.819C513.945 282.819 516.836 286.923 516.836 292.92Z" fill="#555A63" fill-opacity="0.06"/>
<path d="M320.584 620.245C319.941 627.504 316.729 630.977 310.305 630.661C303.881 630.661 300.669 626.873 300.669 620.56C300.669 614.247 304.524 611.091 310.948 611.091C317.372 611.091 319.941 615.194 320.584 620.245Z" fill="#555A63" fill-opacity="0.06"/>
<path d="M586.215 613.616C593.281 613.932 597.457 617.404 597.457 624.348C597.457 630.345 593.924 634.133 587.821 634.765C581.076 635.396 576.579 631.924 576.258 624.979C575.937 618.035 579.791 614.248 586.215 613.616Z" fill="#555A63" fill-opacity="0.06"/>
<path d="M365.873 627.82C365.23 634.133 361.697 637.605 355.273 637.289C347.885 636.974 344.673 632.87 345.316 625.926C345.958 619.613 350.134 616.772 356.558 617.088C362.982 617.719 365.873 621.507 365.873 627.82Z" fill="#555A63" fill-opacity="0.06"/>
<path d="M633.431 640.446C626.365 640.446 622.189 637.606 621.868 631.608C621.547 624.664 624.759 620.561 632.147 620.876C638.571 620.876 641.783 624.348 642.104 630.346C642.104 636.343 638.571 639.499 633.431 640.446Z" fill="#555A63" fill-opacity="0.06"/>
<path d="M400.562 626.242C407.628 626.873 411.483 630.661 411.162 637.605C410.84 644.55 406.344 647.706 399.598 647.391C393.496 647.075 389.963 642.971 389.963 636.974C389.963 630.03 394.138 626.558 400.562 626.242Z" fill="#555A63" fill-opacity="0.06"/>
<path d="M677.115 630.03C683.217 630.977 687.072 634.133 686.429 640.446C686.108 646.759 681.933 649.915 675.83 649.284C670.369 648.653 667.157 645.496 667.157 639.815C667.157 633.818 671.012 630.661 677.115 630.03Z" fill="#555A63" fill-opacity="0.06"/>
<path d="M446.172 653.703C439.427 653.388 435.252 650.231 434.93 643.287C434.609 636.343 438.785 632.555 445.851 632.239C451.954 632.239 456.13 635.711 456.451 641.709C456.772 648.653 453.239 652.756 446.172 653.703Z" fill="#555A63" fill-opacity="0.06"/>
<path d="M490.177 663.173C483.11 662.226 479.577 658.438 479.898 651.81C480.541 644.865 485.037 641.709 491.783 642.34C497.885 642.971 501.097 646.759 501.097 652.756C500.776 659.385 496.922 662.857 490.177 663.173Z" fill="#555A63" fill-opacity="0.06"/>
<path d="M546.065 658.753C545.744 665.382 541.89 669.17 534.823 668.854C528.399 668.538 524.866 665.066 524.866 658.753C524.866 651.809 528.721 648.021 535.787 648.337C542.211 648.653 545.423 652.441 546.065 658.753Z" fill="#555A63" fill-opacity="0.06"/>
<path d="M301.311 674.536C295.209 674.221 291.354 671.064 291.354 664.751C291.354 659.385 294.887 655.913 300.348 655.597C306.772 655.282 310.305 659.07 310.305 665.067C310.626 670.748 306.772 673.589 301.311 674.536Z" fill="#555A63" fill-opacity="0.06"/>
<path d="M587.179 669.17C586.536 675.167 583.003 678.324 576.579 678.324C569.192 678.008 566.301 673.589 566.943 666.961C567.586 660.648 572.083 658.122 578.185 658.754C584.609 659.069 587.5 662.857 587.179 669.17Z" fill="#555A63" fill-opacity="0.06"/>
<path d="M355.915 672.326C354.952 678.324 351.097 681.796 344.995 681.165C338.571 680.533 335.68 676.114 336.322 670.117C336.965 664.751 340.819 661.91 346.279 661.91C352.703 662.226 355.594 666.014 355.915 672.326Z" fill="#555A63" fill-opacity="0.06"/>
<path d="M620.583 664.751C627.971 665.067 631.825 667.907 631.825 674.22C632.146 680.533 628.292 684.005 621.868 684.005C616.408 684.005 612.875 680.849 612.232 675.483C611.911 669.486 615.444 666.014 620.583 664.751Z" fill="#555A63" fill-opacity="0.06"/>
<path d="M391.89 690.634C385.466 690.634 381.611 687.793 380.969 681.48C380.648 675.483 383.538 671.379 389.962 671.064C396.065 670.748 400.241 673.589 400.562 679.902C401.204 686.215 397.992 690.002 391.89 690.634Z" fill="#555A63" fill-opacity="0.06"/>
<path d="M676.793 681.165C675.83 686.846 672.618 690.634 666.194 690.319C661.055 690.003 657.521 686.215 657.521 680.849C657.843 674.852 661.697 671.064 667.8 671.695C673.26 672.011 676.151 675.799 676.793 681.165Z" fill="#555A63" fill-opacity="0.06"/>
<path d="M434.93 677.061C441.997 677.377 445.53 680.217 445.851 686.53C446.172 692.528 442.96 696.631 436.858 696.947C429.791 697.262 425.937 693.79 425.937 686.846C425.937 680.533 429.791 677.692 434.93 677.061Z" fill="#555A63" fill-opacity="0.06"/>
<path d="M480.862 686.846C487.286 687.477 490.819 690.634 490.498 696.947C490.498 703.26 486.643 706.732 480.219 706.416C473.795 706.416 470.262 702.629 470.583 696.316C470.905 690.003 474.759 687.162 480.862 686.846Z" fill="#555A63" fill-opacity="0.06"/>
<path d="M526.151 712.729C520.048 712.414 516.194 709.573 515.873 703.26C515.873 696.947 519.085 693.475 525.509 693.159C531.933 693.159 535.466 696.316 535.787 702.629C535.787 708.941 532.254 712.414 526.151 712.729Z" fill="#555A63" fill-opacity="0.06"/>
<path d="M571.44 719.042C565.337 718.726 561.162 715.57 561.162 709.573C561.162 703.26 564.695 699.788 571.119 700.103C576.579 700.103 580.112 703.26 580.434 708.626C581.076 714.623 577.543 718.095 571.44 719.042Z" fill="#555A63" fill-opacity="0.06"/>
<path d="M374.866 725.671C375.187 720.305 378.078 716.517 383.217 715.886C389.32 715.254 393.496 718.726 393.817 724.724C394.138 730.721 390.284 734.509 384.181 734.509C378.72 734.193 375.83 730.721 374.866 725.671Z" fill="#555A63" fill-opacity="0.06"/>
<path d="M429.791 740.822C423.688 740.506 419.834 737.35 419.834 731.037C419.834 725.671 423.367 722.199 428.828 721.883C435.252 721.567 438.785 725.355 438.785 731.352C439.106 737.034 435.252 739.875 429.791 740.822Z" fill="#555A63" fill-opacity="0.06"/>
<path d="M484.074 737.665C483.11 743.662 479.898 747.45 473.795 746.819C468.335 746.503 464.802 743.031 465.123 737.665C465.123 731.352 468.978 727.88 475.401 728.196C480.541 728.511 483.431 732.299 484.074 737.665Z" fill="#555A63" fill-opacity="0.06"/>
<path d="M529.042 746.503C529.042 751.869 526.151 755.657 521.012 756.604C514.909 757.551 510.733 754.079 510.091 748.081C509.449 742.084 513.303 738.296 519.727 737.981C524.866 737.665 527.757 741.453 529.042 746.503Z" fill="#555A63" fill-opacity="0.06"/>
<path d="M747.457 557.116C747.136 563.113 743.924 567.216 737.5 567.216C732.04 567.216 728.506 564.06 728.185 558.694C727.864 552.381 731.397 548.593 737.821 548.593C743.603 548.277 746.494 551.75 747.457 557.116Z" fill="#555A63" fill-opacity="0.06"/>
<path d="M239.962 561.535C238.678 567.216 235.466 571.004 229.042 570.373C223.903 569.741 220.369 566.269 220.691 560.903C221.012 554.906 225.187 551.434 231.29 552.065C236.75 552.381 239.641 555.853 239.962 561.535Z" fill="#555A63" fill-opacity="0.06"/>
<path d="M282.04 566.269C281.718 573.213 278.828 576.686 272.404 577.001C265.98 577.001 262.446 573.845 262.125 567.532C262.125 561.219 265.337 557.747 271.761 557.431C278.185 557.431 281.397 560.903 282.04 566.269Z" fill="#555A63" fill-opacity="0.06"/>
<path d="M702.81 551.749C702.168 558.062 698.956 561.534 692.532 561.219C686.108 561.219 682.575 557.431 682.896 551.118C682.896 544.805 686.751 541.333 693.174 541.649C699.598 541.649 702.489 545.436 702.81 551.749Z" fill="#555A63" fill-opacity="0.06"/>
<path d="M560.198 244.941C566.622 244.941 570.476 248.098 570.798 254.411C571.119 260.724 567.265 264.196 560.841 264.196C555.38 264.196 551.847 261.039 551.205 255.673C550.883 249.676 554.095 245.888 560.198 244.941Z" fill="#555A63" fill-opacity="0.06"/>
<path d="M526.151 247.782C525.509 254.727 522.297 258.199 515.873 258.199C509.449 258.199 506.237 254.411 506.237 248.414C506.237 242.101 510.091 238.944 516.194 238.944C522.939 238.944 525.509 242.732 526.151 247.782Z" fill="#555A63" fill-opacity="0.06"/>
<path d="M316.408 587.102C309.342 586.471 306.13 582.052 306.772 575.423C307.414 569.426 311.59 566.269 317.693 566.585C324.759 566.901 327.971 571.32 327.329 577.948C326.686 584.261 322.511 587.102 316.408 587.102Z" fill="#555A63" fill-opacity="0.06"/>
<path d="M647.243 531.232C653.988 531.548 658.164 534.705 658.485 541.649C658.806 548.593 654.63 552.381 647.564 552.381C641.461 552.381 637.286 548.909 636.964 542.911C636.643 536.283 640.176 532.179 647.243 531.232Z" fill="#555A63" fill-opacity="0.06"/>
<path d="M416.622 232C417.907 226.003 421.44 222.53 427.543 223.477C433.646 224.109 436.858 228.212 435.894 234.209C435.252 239.26 431.718 242.416 425.937 242.1C419.834 241.785 416.622 237.997 416.622 232Z" fill="#555A63" fill-opacity="0.06"/>
<path d="M648.849 586.471C648.207 593.415 644.352 596.887 637.286 596.571C631.183 596.256 627.65 592.152 627.971 586.155C628.292 579.211 632.468 575.739 639.534 576.054C645.637 576.37 648.528 580.158 648.849 586.471Z" fill="#555A63" fill-opacity="0.06"/>
<path d="M693.174 596.571C692.211 602.569 688.678 605.725 682.254 605.409C675.83 605.094 672.618 600.99 673.26 594.993C673.581 588.68 677.757 585.524 683.86 586.155C690.284 586.471 693.174 590.258 693.174 596.571Z" fill="#555A63" fill-opacity="0.06"/>
<path d="M737.821 602.253C736.857 607.935 733.324 611.722 727.221 611.091C722.082 610.46 718.549 606.988 718.87 601.622C719.192 595.624 723.046 591.837 729.47 592.468C734.609 593.099 737.5 596.887 737.821 602.253Z" fill="#555A63" fill-opacity="0.06"/>
<path d="M481.183 239.575C480.219 245.888 476.686 249.045 470.583 248.729C464.159 248.098 461.269 243.994 461.911 237.997C462.553 232.631 466.087 229.475 471.547 229.79C477.65 229.475 480.862 233.262 481.183 239.575Z" fill="#555A63" fill-opacity="0.06"/>
<path d="M275.294 610.775C274.973 616.773 271.761 620.56 265.658 620.876C260.198 621.192 256.665 617.72 256.022 612.669C255.38 606.672 258.592 602.569 264.695 601.937C271.119 601.306 274.331 605.094 275.294 610.775Z" fill="#555A63" fill-opacity="0.06"/>
<path d="M337.928 531.864C337.286 538.808 333.753 542.911 327.007 543.227C320.262 543.227 316.087 539.439 316.087 532.811C316.087 526.182 319.941 522.079 326.686 522.079C333.431 521.763 336.643 525.866 337.928 531.864Z" fill="#555A63" fill-opacity="0.06"/>
<path d="M705.701 726.302C710.519 726.933 713.731 729.458 713.731 734.193C713.731 739.559 710.198 743.031 704.738 742.4C700.241 742.084 697.029 738.612 697.35 733.877C697.993 729.458 700.883 726.933 705.701 726.302Z" fill="#555A63" fill-opacity="0.06"/>
<path d="M789.213 531.864C784.074 530.917 780.219 528.076 780.219 522.71C780.219 517.975 783.753 514.819 787.928 514.188C793.389 513.556 797.243 517.028 797.564 522.394C798.528 527.76 794.352 530.917 789.213 531.864Z" fill="#555A63" fill-opacity="0.06"/>
<path d="M296.494 753.447C296.172 757.551 293.924 760.707 289.106 761.339C284.288 761.97 280.755 759.129 280.112 754.71C279.47 749.344 282.682 745.872 288.142 745.556C292.639 745.241 295.53 748.397 296.494 753.447Z" fill="#555A63" fill-opacity="0.06"/>
<path d="M669.727 724.724C669.085 730.09 666.194 733.562 660.733 733.877C655.915 734.193 652.382 730.721 651.74 726.302C650.776 720.936 654.631 717.148 659.77 716.201C665.23 715.57 668.442 719.358 669.727 724.724Z" fill="#555A63" fill-opacity="0.06"/>
<path d="M573.688 752.501C573.046 758.498 570.155 762.286 564.695 762.601C559.234 762.917 555.38 759.445 555.059 754.079C554.738 748.713 558.271 745.241 563.731 744.609C569.834 743.978 572.082 748.397 573.688 752.501Z" fill="#555A63" fill-opacity="0.06"/>
<path d="M769.62 425.491C768.656 430.542 765.765 434.329 760.305 434.329C754.202 434.329 750.348 430.226 750.99 424.229C751.633 419.178 755.166 415.706 760.626 416.022C766.087 416.653 768.977 420.125 769.62 425.491Z" fill="#555A63" fill-opacity="0.06"/>
<path d="M338.571 759.76C337.928 764.495 335.359 767.967 330.862 768.283C325.401 768.914 321.868 765.442 321.547 760.076C321.226 755.341 324.759 752.185 329.256 751.553C334.395 750.922 337.607 754.394 338.571 759.76Z" fill="#555A63" fill-opacity="0.06"/>
<path d="M615.123 762.285C613.838 767.967 610.948 771.439 605.487 771.439C600.99 771.439 597.457 767.967 597.136 763.548C596.815 758.182 600.348 754.394 605.487 754.079C611.269 754.079 613.838 758.182 615.123 762.285Z" fill="#555A63" fill-opacity="0.06"/>
<path d="M374.866 775.227C369.084 773.649 365.23 770.492 366.194 765.126C367.157 760.076 370.69 756.604 376.472 757.551C380.969 758.498 384.181 761.654 383.86 766.389C383.217 771.755 379.363 773.965 374.866 775.227Z" fill="#555A63" fill-opacity="0.06"/>
<path d="M208.164 431.173C202.703 430.541 198.849 427.7 198.849 422.334C198.528 416.968 202.061 413.181 207.521 412.865C212.982 412.549 216.836 416.022 217.157 421.388C217.157 427.069 213.303 429.91 208.164 431.173Z" fill="#555A63" fill-opacity="0.06"/>
<path d="M659.449 768.914C659.127 773.964 656.237 776.805 651.74 777.121C646.922 777.437 643.71 774.596 643.067 769.861C642.746 764.495 645.958 761.023 651.419 761.023C656.237 761.339 658.806 764.495 659.449 768.914Z" fill="#555A63" fill-opacity="0.06"/>
<path d="M418.87 766.705C424.331 767.336 428.185 770.177 428.506 775.227C428.828 779.962 425.616 783.118 421.119 784.065C415.658 785.328 411.804 781.54 410.84 776.805C410.198 771.439 414.052 768.283 418.87 766.705Z" fill="#555A63" fill-opacity="0.06"/>
<path d="M464.481 773.018C469.62 773.649 473.474 776.49 473.795 781.856C474.117 786.59 470.583 789.747 466.408 790.378C460.947 791.325 457.093 787.537 456.451 782.803C455.166 777.437 459.341 774.28 464.481 773.018Z" fill="#555A63" fill-opacity="0.06"/>
<path d="M509.449 782.803C514.267 783.118 517.8 785.959 518.442 790.378C519.085 795.744 515.551 799.532 510.091 799.848C505.273 800.163 501.74 796.691 501.097 792.588C500.455 786.906 504.309 784.065 509.449 782.803Z" fill="#555A63" fill-opacity="0.06"/>
<path d="M554.738 789.431C559.556 790.062 562.768 792.588 563.089 797.322C563.41 802.057 560.198 805.529 555.701 805.845C550.241 806.476 546.386 802.688 546.386 797.322C546.386 792.588 549.92 790.062 554.738 789.431Z" fill="#555A63" fill-opacity="0.06"/>
<path d="M171.547 412.55C170.905 417.284 168.335 420.441 163.517 420.756C158.699 421.072 155.166 417.916 154.845 413.496C154.202 408.131 158.057 404.343 163.517 404.343C168.014 404.343 170.583 407.815 171.547 412.55Z" fill="#555A63" fill-opacity="0.06"/>
<path d="M795.958 469.997C801.097 471.26 804.952 474.416 804.309 479.466C803.667 484.517 799.813 487.989 794.352 487.358C789.855 486.726 786.643 483.57 786.643 478.835C786.965 473.469 790.819 470.628 795.958 469.997Z" fill="#555A63" fill-opacity="0.06"/>
<path d="M781.826 607.619C781.504 612.354 778.935 615.826 774.438 616.773C768.656 617.72 765.123 614.248 764.481 609.197C763.838 604.463 767.05 600.99 771.547 600.044C777.329 598.781 780.22 602.569 781.826 607.619Z" fill="#555A63" fill-opacity="0.06"/>
<path d="M230.005 604.778C228.399 610.46 225.509 614.248 220.048 613.932C214.909 613.616 211.055 610.144 211.376 604.778C211.697 599.728 215.23 595.94 220.691 596.256C226.472 596.571 229.042 600.675 230.005 604.778Z" fill="#555A63" fill-opacity="0.06"/>
<path d="M184.395 595.624C183.753 600.359 181.183 603.515 176.365 603.831C171.547 604.147 168.014 600.99 167.693 596.571C167.05 591.205 170.905 587.417 176.365 587.417C180.862 587.417 183.431 590.89 184.395 595.624Z" fill="#555A63" fill-opacity="0.06"/>
<path d="M722.725 655.282C716.622 654.65 712.768 651.81 712.768 646.444C712.446 641.078 715.98 637.606 721.44 637.29C726.9 636.974 730.434 640.446 730.755 645.812C731.076 651.494 726.9 653.704 722.725 655.282Z" fill="#555A63" fill-opacity="0.06"/>
<path d="M197.885 457.056C203.346 457.687 207.2 460.528 207.521 465.894C207.843 471.26 204.309 475.048 198.849 475.363C193.389 475.679 189.534 472.207 189.213 466.841C188.571 461.159 192.425 458.318 197.885 457.056Z" fill="#555A63" fill-opacity="0.06"/>
<path d="M213.303 640.762C218.442 641.077 221.654 643.603 222.618 648.022C223.581 653.388 220.048 657.175 214.909 657.807C210.091 658.438 206.879 655.281 205.915 650.862C204.952 645.181 208.485 642.34 213.303 640.762Z" fill="#555A63" fill-opacity="0.06"/>
<path d="M775.402 652.441C774.759 657.175 771.868 660.648 767.05 660.648C761.59 660.648 758.057 656.86 758.378 651.494C758.699 647.075 762.233 643.603 767.05 644.234C771.868 644.55 774.759 647.706 775.402 652.441Z" fill="#555A63" fill-opacity="0.06"/>
<path d="M258.592 646.128C264.695 647.391 268.549 650.547 268.228 655.913C267.907 661.279 264.374 664.751 258.592 664.435C253.132 664.12 249.598 660.648 249.92 654.966C250.241 649.6 254.416 647.391 258.592 646.128Z" fill="#555A63" fill-opacity="0.06"/>
<path d="M783.431 576.37C777.65 575.107 774.117 572.267 774.117 566.901C774.117 562.481 777.65 559.009 782.147 558.694C787.607 558.378 791.461 561.85 791.783 566.901C792.104 572.267 787.607 574.792 783.431 576.37Z" fill="#555A63" fill-opacity="0.06"/>
<path d="M146.815 492.724C151.633 493.355 154.845 495.88 154.845 500.615C154.845 505.981 151.311 509.453 145.851 508.822C141.354 508.506 138.142 505.034 138.464 500.299C139.106 495.88 141.997 493.355 146.815 492.724Z" fill="#555A63" fill-opacity="0.06"/>
<path d="M156.13 448.533C160.626 448.849 164.16 451.374 164.802 455.793C165.444 460.528 162.554 464 157.736 464.947C151.954 465.894 148.421 462.422 148.1 457.056C147.778 452.321 150.99 449.48 156.13 448.533Z" fill="#555A63" fill-opacity="0.06"/>
<path d="M191.461 501.246C196.922 501.877 200.455 504.718 200.776 510.084C201.097 515.45 197.564 518.922 192.104 519.238C186.643 519.554 183.11 516.081 182.789 510.715C182.468 505.349 186.322 502.509 191.461 501.246Z" fill="#555A63" fill-opacity="0.06"/>
<path d="M185.037 560.272C179.898 559.009 176.044 555.853 176.686 550.487C177.329 545.436 181.183 541.964 186.643 542.596C191.14 543.227 194.352 546.383 194.352 551.118C194.031 556.8 190.177 559.64 185.037 560.272Z" fill="#555A63" fill-opacity="0.06"/>
<path d="M721.119 690.003C720.476 695.053 717.586 698.841 712.125 699.156C707.307 699.472 704.095 696 703.453 691.897C702.489 686.531 706.344 682.743 711.162 682.112C716.622 681.165 719.834 684.952 721.119 690.003Z" fill="#555A63" fill-opacity="0.06"/>
<path d="M249.277 708.626C243.817 707.048 239.963 703.891 241.247 698.525C242.211 694.106 245.423 690.95 250.241 691.581C255.38 692.212 258.913 695.684 257.95 701.366C256.986 705.785 253.453 707.995 249.277 708.626Z" fill="#555A63" fill-opacity="0.06"/>
<path d="M293.924 718.411C288.785 716.832 284.609 713.676 285.573 708.31C286.536 703.26 290.07 699.472 295.851 700.734C300.348 701.681 303.881 704.838 303.239 709.573C302.918 714.939 299.384 717.779 293.924 718.411Z" fill="#555A63" fill-opacity="0.06"/>
<path d="M339.213 706.416C344.673 707.047 348.528 709.888 348.528 715.254C348.849 721.251 344.995 725.039 338.571 724.724C333.431 724.408 329.898 720.936 329.898 715.57C330.541 710.204 334.074 707.363 339.213 706.416Z" fill="#555A63" fill-opacity="0.06"/>
<path d="M813.945 434.645C812.339 440.327 809.449 443.799 803.667 442.852C799.17 442.22 795.958 438.748 796.601 434.014C797.243 428.963 800.776 425.491 806.558 426.438C811.055 427.069 813.303 430.857 813.945 434.645Z" fill="#555A63" fill-opacity="0.06"/>
<path d="M615.444 709.573C620.905 710.204 624.759 713.045 625.08 718.095C625.401 724.092 621.547 727.88 615.444 727.88C609.984 727.565 606.772 724.092 606.772 718.726C606.451 713.36 610.305 710.52 615.444 709.573Z" fill="#555A63" fill-opacity="0.06"/>
<path d="M731.076 321.328C736.536 321.959 740.391 324.8 740.391 330.166C740.712 335.532 737.179 339.319 731.718 339.635C726.258 339.951 722.404 336.479 722.082 331.113C721.761 325.431 725.616 322.59 731.076 321.328Z" fill="#555A63" fill-opacity="0.06"/>
<path d="M179.256 315.962C184.074 316.593 187.286 319.434 186.965 323.853C186.965 329.219 183.11 332.376 177.65 331.744C173.153 331.113 170.262 327.956 170.583 323.222C171.226 318.803 174.438 316.278 179.256 315.962Z" fill="#555A63" fill-opacity="0.06"/>
<path d="M274.973 286.607C280.434 287.238 284.288 290.079 284.609 295.129C284.93 301.127 281.076 304.914 274.973 304.914C269.513 304.599 266.301 301.127 266.301 295.761C265.98 290.395 269.834 287.554 274.973 286.607Z" fill="#555A63" fill-opacity="0.06"/>
<path d="M239.32 289.132C238.999 293.867 236.108 297.339 231.611 297.97C226.151 298.601 222.297 295.129 221.975 289.763C221.654 285.029 225.187 281.557 229.363 280.925C234.823 280.294 237.714 284.082 239.32 289.132Z" fill="#555A63" fill-opacity="0.06"/>
<path d="M737.821 295.129C732.04 293.551 728.185 290.395 729.149 285.029C729.791 280.61 733.324 277.137 738.142 277.769C743.603 278.4 747.136 281.872 746.172 287.554C745.851 291.973 741.997 294.498 737.821 295.129Z" fill="#555A63" fill-opacity="0.06"/>
<path d="M702.168 280.294C700.883 285.344 697.992 289.132 692.532 288.816C687.393 288.5 683.538 285.028 683.86 279.662C684.181 274.612 687.714 270.824 693.174 271.14C698.635 271.456 701.526 275.243 702.168 280.294Z" fill="#555A63" fill-opacity="0.06"/>
<path d="M293.924 251.57C292.96 256.62 290.07 260.408 284.609 260.092C280.112 260.092 276.579 256.62 276.258 252.201C275.937 246.835 279.47 243.048 284.609 242.732C290.07 242.732 292.96 246.52 293.924 251.57Z" fill="#555A63" fill-opacity="0.06"/>
<path d="M248.314 245.257C247.992 249.992 245.423 253.148 240.605 253.464C235.787 253.779 232.575 250.939 231.932 246.204C231.611 240.838 234.823 237.366 240.284 237.366C245.102 237.366 247.671 240.522 248.314 245.257Z" fill="#555A63" fill-opacity="0.06"/>
<path d="M702.168 227.265C706.986 227.581 710.198 230.422 710.84 234.841C711.483 239.575 708.271 243.047 703.774 243.679C698.314 244.626 694.459 241.154 694.138 235.788C693.817 231.053 697.35 228.528 702.168 227.265Z" fill="#555A63" fill-opacity="0.06"/>
<path d="M657.521 217.48C662.661 218.743 666.515 221.584 666.194 226.95C665.551 232 662.018 235.472 656.558 234.841C652.061 234.21 648.849 231.053 648.849 226.319C648.849 221.268 652.382 218.427 657.521 217.48Z" fill="#555A63" fill-opacity="0.06"/>
<path d="M380.969 214.008C386.429 214.64 390.284 217.48 390.605 222.531C390.926 228.528 387.072 232.316 380.969 232.316C375.509 232 372.297 228.528 372.297 223.162C371.975 217.796 375.83 214.955 380.969 214.008Z" fill="#555A63" fill-opacity="0.06"/>
<path d="M612.232 210.852C617.693 211.483 621.226 214.324 621.547 219.69C621.868 225.056 618.335 228.528 612.875 228.843C607.414 229.159 603.881 225.687 603.56 220.321C603.239 214.955 607.093 212.114 612.232 210.852Z" fill="#555A63" fill-opacity="0.06"/>
<path d="M336.322 225.687C331.183 224.74 327.329 221.899 327.329 216.533C327.329 211.799 330.862 208.642 335.037 208.011C340.498 207.38 344.352 210.852 344.673 216.218C345.637 221.584 341.461 224.74 336.322 225.687Z" fill="#555A63" fill-opacity="0.06"/>
<path d="M567.264 219.69C562.125 218.427 558.271 215.587 558.592 210.221C558.913 204.855 562.446 201.382 568.228 201.698C573.688 202.014 577.222 205.486 576.9 211.167C576.579 216.218 572.725 219.059 567.264 219.69Z" fill="#555A63" fill-opacity="0.06"/>
<path d="M291.676 219.058C286.215 217.796 282.682 215.271 283.003 210.536C283.324 205.17 287.179 201.698 292.639 202.645C297.136 203.276 300.348 206.748 299.705 211.798C299.063 216.217 295.53 218.427 291.676 219.058Z" fill="#555A63" fill-opacity="0.06"/>
<path d="M531.932 203.908C531.29 209.273 528.399 213.061 522.939 213.377C517.479 213.693 513.624 210.22 513.303 204.854C512.982 199.488 516.515 195.701 521.975 195.385C527.757 195.069 530.648 198.857 531.932 203.908Z" fill="#555A63" fill-opacity="0.06"/>
<path d="M486.965 194.438C486.322 199.804 483.431 203.592 477.971 203.592C472.511 203.908 468.656 200.435 468.335 195.069C468.014 189.703 471.547 185.916 477.007 185.6C482.789 185.6 485.68 189.388 486.965 194.438Z" fill="#555A63" fill-opacity="0.06"/>
<path d="M432.682 179.603C437.821 180.865 441.997 183.706 441.354 189.072C441.033 194.438 437.179 197.91 431.718 197.279C427.222 196.963 423.688 193.491 423.688 188.756C423.688 183.39 427.543 180.549 432.682 179.603Z" fill="#555A63" fill-opacity="0.06"/>
<path d="M396.708 181.812C395.423 187.494 392.211 191.282 386.75 190.65C382.254 190.019 378.72 186.863 379.042 182.128C379.363 176.762 383.217 173.29 388.678 173.921C393.174 174.237 395.744 177.709 396.708 181.812Z" fill="#555A63" fill-opacity="0.06"/>
<path d="M630.541 176.131C629.577 180.865 627.007 184.022 622.189 183.706C616.729 183.39 613.517 179.918 614.159 174.552C614.802 169.818 618.335 167.292 623.153 167.924C627.65 168.555 630.219 171.712 630.541 176.131Z" fill="#555A63" fill-opacity="0.06"/>
<path d="M354.309 172.343C353.988 176.762 351.74 179.918 346.922 180.55C342.104 181.181 338.571 178.34 337.928 173.921C337.286 168.555 340.498 165.083 345.958 164.767C350.455 164.452 353.346 167.608 354.309 172.343Z" fill="#555A63" fill-opacity="0.06"/>
<path d="M585.894 166.977C584.609 171.712 582.04 175.184 576.901 174.552C571.44 174.237 567.907 170.449 568.871 164.767C569.834 160.348 573.367 157.192 578.185 158.139C582.682 158.77 585.573 162.242 585.894 166.977Z" fill="#555A63" fill-opacity="0.06"/>
<path d="M540.926 159.401C540.605 164.136 538.035 167.292 533.539 168.239C528.078 169.186 524.545 165.714 523.581 160.664C522.939 155.929 526.151 152.457 530.648 151.826C536.429 150.879 539.32 154.351 540.926 159.401Z" fill="#555A63" fill-opacity="0.06"/>
<path d="M450.669 143.935C449.705 149.301 447.136 152.457 442.318 152.142C436.858 151.826 433.646 148.354 434.288 142.988C434.93 138.253 438.464 135.728 443.282 136.359C448.099 136.675 450.027 140.147 450.669 143.935Z" fill="#555A63" fill-opacity="0.06"/>
<path d="M495.958 150.879C494.995 155.613 492.104 159.086 487.286 158.77C481.825 158.454 478.292 154.667 479.256 149.301C479.898 144.881 483.431 141.725 488.571 142.356C492.746 142.988 495.637 146.144 495.958 150.879Z" fill="#555A63" fill-opacity="0.06"/>
<path d="M223.26 324.8C228.721 325.431 232.254 328.272 232.896 333.638C233.217 338.373 229.684 341.845 225.509 342.476C219.727 343.423 215.873 339.951 215.23 334.9C214.267 329.219 218.121 326.062 223.26 324.8Z" fill="#555A63" fill-opacity="0.06"/>
<path d="M168.977 376.882C164.16 375.935 160.626 373.409 160.948 368.675C160.948 363.309 164.802 359.837 170.262 360.468C174.759 361.099 177.971 364.571 177.65 369.306C177.007 373.725 173.795 376.25 168.977 376.882Z" fill="#555A63" fill-opacity="0.06"/>
<path d="M223.581 378.144C222.296 383.194 219.406 386.982 213.945 386.666C208.485 386.351 204.952 382.879 205.273 377.197C205.594 371.831 209.127 368.359 214.909 368.675C220.048 369.306 222.939 372.778 223.581 378.144Z" fill="#555A63" fill-opacity="0.06"/>
<path d="M811.697 398.661C806.879 398.345 803.667 395.82 803.346 391.086C803.025 386.351 805.915 383.194 810.733 382.563C816.194 382.247 819.727 385.404 819.727 390.77C819.727 395.505 816.515 398.03 811.697 398.661Z" fill="#555A63" fill-opacity="0.06"/>
<path d="M775.723 380.354C775.08 385.72 772.189 389.192 766.729 389.823C761.911 390.139 758.378 386.667 757.736 382.563C756.772 376.882 760.305 373.094 765.444 372.463C771.226 371.516 774.438 375.303 775.723 380.354Z" fill="#555A63" fill-opacity="0.06"/>
<path d="M775.723 328.272C780.541 328.588 783.753 331.113 784.716 335.216C785.68 340.582 782.147 344.37 777.007 345.001C772.189 345.633 768.656 342.476 768.014 338.057C767.05 332.691 770.583 329.85 775.723 328.272Z" fill="#555A63" fill-opacity="0.06"/>
<path d="M823.903 566.27C828.399 566.27 831.29 568.163 831.933 572.582C832.575 577.317 830.005 580.789 824.866 581.105C820.369 581.421 817.479 579.211 816.836 575.108C816.515 570.057 818.763 566.901 823.903 566.27Z" fill="#555A63" fill-opacity="0.06"/>
<path d="M246.386 194.123C250.562 194.438 253.132 196.332 253.453 200.751C253.774 205.801 250.562 208.327 245.744 208.011C241.247 207.695 239.32 204.855 239.641 200.751C239.641 196.332 242.211 194.438 246.386 194.123Z" fill="#555A63" fill-opacity="0.06"/>
<path d="M204.952 738.296C204.309 742.716 201.74 744.609 197.564 744.294C193.067 743.978 191.14 741.137 191.461 737.034C191.783 732.615 194.673 730.721 198.849 731.037C203.346 731.352 204.952 734.193 204.952 738.296Z" fill="#555A63" fill-opacity="0.06"/>
<path d="M420.798 819.418C420.798 823.521 418.87 826.678 414.695 826.993C409.877 827.625 406.665 825.415 406.022 820.365C405.701 816.261 407.95 813.421 412.125 812.789C416.943 812.158 420.155 814.368 420.798 819.418Z" fill="#555A63" fill-opacity="0.06"/>
<path d="M757.736 741.453C757.414 745.556 754.845 748.081 750.669 747.766C745.209 747.766 743.282 744.294 743.603 739.559C743.924 735.14 747.136 733.562 751.312 733.877C755.808 734.509 757.736 737.034 757.736 741.453Z" fill="#555A63" fill-opacity="0.06"/>
<path d="M863.731 396.452C863.089 401.818 860.519 403.711 856.023 403.396C851.526 403.08 849.599 400.239 849.92 396.136C850.241 391.717 853.132 389.823 857.307 390.139C861.804 390.454 863.41 393.295 863.731 396.452Z" fill="#555A63" fill-opacity="0.06"/>
<path d="M243.174 737.034C247.671 737.349 250.241 739.559 250.241 743.662C250.562 749.028 247.35 751.238 242.211 750.922C237.714 750.606 235.787 747.766 235.787 743.347C236.108 739.243 238.678 737.034 243.174 737.034Z" fill="#555A63" fill-opacity="0.06"/>
<path d="M583.324 115.211C587.5 115.211 590.391 117.42 590.391 121.524C590.712 125.627 588.785 128.468 584.288 129.099C579.47 129.415 576.258 127.205 576.258 122.155C576.579 117.736 579.149 115.527 583.324 115.211Z" fill="#555A63" fill-opacity="0.06"/>
<path d="M134.609 362.046C134.288 366.149 132.361 368.675 127.864 368.99C122.725 369.306 120.155 366.149 120.476 361.415C120.798 356.996 123.688 355.102 127.864 355.417C132.361 355.417 134.288 357.943 134.609 362.046Z" fill="#555A63" fill-opacity="0.06"/>
<path d="M465.765 825.731C465.765 830.15 463.838 832.675 459.341 833.306C454.523 833.937 451.311 831.412 450.99 826.362C450.669 822.258 452.917 819.418 457.093 818.786C462.232 818.471 465.123 820.68 465.765 825.731Z" fill="#555A63" fill-opacity="0.06"/>
<path d="M232.896 781.54C237.393 781.54 240.284 783.75 240.284 788.169C240.284 792.588 237.714 794.797 233.217 794.797C229.684 794.797 227.115 792.588 226.793 789.116C226.472 784.696 228.721 782.171 232.896 781.54Z" fill="#555A63" fill-opacity="0.06"/>
<path d="M873.046 353.208C872.404 357.627 869.834 359.837 865.337 359.205C860.841 358.574 858.913 355.418 859.556 351.314C860.198 347.842 862.447 345.948 866.301 345.948C870.798 346.264 873.046 348.789 873.046 353.208Z" fill="#555A63" fill-opacity="0.06"/>
<path d="M131.076 632.871C131.076 636.974 129.149 639.815 124.973 640.131C120.798 640.446 117.907 638.237 117.586 634.133C117.264 630.03 119.192 627.189 123.688 626.873C128.185 626.558 130.434 628.767 131.076 632.871Z" fill="#555A63" fill-opacity="0.06"/>
<path d="M147.778 545.752C147.136 550.803 143.924 553.328 138.785 552.381C134.609 551.75 132.361 548.909 132.682 544.49C133.003 539.439 136.536 536.914 141.354 537.546C145.851 538.492 148.099 541.333 147.778 545.752Z" fill="#555A63" fill-opacity="0.06"/>
<path d="M495.958 835.831C495.958 831.412 498.207 828.887 502.703 828.571C506.879 828.256 510.091 830.15 510.412 834.569C510.733 839.619 508.485 842.775 503.025 842.46C498.849 842.46 496.601 839.935 495.958 835.831Z" fill="#555A63" fill-opacity="0.06"/>
<path d="M817.8 624.979C812.661 624.348 810.412 621.507 811.055 616.773C811.376 612.669 814.267 610.46 818.763 610.775C823.903 611.091 826.151 614.247 825.83 618.982C824.866 623.086 821.975 624.979 817.8 624.979Z" fill="#555A63" fill-opacity="0.06"/>
<path d="M300.669 173.605C296.172 173.29 293.924 170.764 293.924 166.345C293.924 160.979 297.457 158.77 302.275 159.401C306.772 160.032 308.699 163.189 308.057 167.292C307.736 171.711 304.845 173.605 300.669 173.605Z" fill="#555A63" fill-opacity="0.06"/>
<path d="M396.065 130.678C401.526 130.678 404.095 132.887 404.416 136.991C404.738 141.725 402.489 144.882 397.35 145.197C393.174 145.197 390.284 142.988 389.962 138.885C389.641 133.834 392.211 131.309 396.065 130.678Z" fill="#555A63" fill-opacity="0.06"/>
<path d="M285.573 794.482C285.573 798.585 283.324 801.11 278.828 801.426C274.331 801.426 271.761 799.216 271.761 794.797C271.761 790.378 274.01 787.853 278.506 787.853C282.682 787.537 284.93 790.063 285.573 794.482Z" fill="#555A63" fill-opacity="0.06"/>
<path d="M627.971 124.996C632.468 124.996 635.037 126.89 635.358 131.309C635.68 135.728 633.431 138.253 628.934 138.569C624.438 138.885 621.868 136.991 621.547 132.256C621.547 127.837 623.474 125.312 627.971 124.996Z" fill="#555A63" fill-opacity="0.06"/>
<path d="M680.326 138.253C680.005 142.672 677.757 144.882 673.26 144.882C668.763 144.882 666.515 142.356 666.836 137.937C666.836 133.518 669.406 131.309 673.902 131.624C678.078 131.624 680.326 133.834 680.326 138.253Z" fill="#555A63" fill-opacity="0.06"/>
<path d="M812.339 654.966C816.515 655.597 819.084 657.807 818.763 662.226C818.442 667.592 815.23 669.486 810.412 668.854C805.915 668.223 804.309 665.066 804.952 660.963C805.273 656.544 808.164 654.966 812.339 654.966Z" fill="#555A63" fill-opacity="0.06"/>
<path d="M671.654 180.865C671.654 186.231 669.406 189.072 665.23 189.388C660.412 190.019 656.879 187.494 656.558 182.443C656.237 178.024 658.806 175.499 662.982 174.868C667.8 174.237 670.691 177.077 671.654 180.865Z" fill="#555A63" fill-opacity="0.06"/>
<path d="M322.832 811.211C318.335 810.58 316.087 808.054 316.408 803.635C316.729 799.216 318.977 797.007 323.474 797.007C328.935 797.007 331.183 800.163 330.541 805.214C330.219 809.633 327.007 811.211 322.832 811.211Z" fill="#555A63" fill-opacity="0.06"/>
<path d="M599.063 799.848C603.56 799.848 606.451 801.742 607.093 806.161C607.736 810.895 605.166 814.367 600.027 814.683C595.53 814.999 592.639 812.789 591.997 808.686C591.676 803.635 593.924 800.479 599.063 799.848Z" fill="#555A63" fill-opacity="0.06"/>
<path d="M367.8 817.524C362.661 816.892 360.412 813.736 361.055 809.001C361.697 804.898 364.588 802.688 368.763 803.004C373.903 803.32 376.151 806.792 375.509 811.526C375.187 815.63 372.297 817.524 367.8 817.524Z" fill="#555A63" fill-opacity="0.06"/>
<path d="M137.821 589.627C137.5 593.731 135.252 596.256 130.755 596.256C125.294 596.256 123.367 593.099 123.688 588.365C124.01 583.946 127.222 582.367 131.397 582.683C135.894 582.683 137.821 585.524 137.821 589.627Z" fill="#555A63" fill-opacity="0.06"/>
<path d="M716.301 191.597C715.658 196.647 713.089 198.857 708.913 198.541C703.453 198.226 701.204 195.069 702.168 190.019C702.81 185.6 706.022 184.022 710.198 184.337C714.374 184.969 715.98 188.125 716.301 191.597Z" fill="#555A63" fill-opacity="0.06"/>
<path d="M644.352 820.364C639.534 819.733 637.286 817.208 637.607 813.105C637.928 809.001 640.177 806.476 644.673 806.476C650.134 806.476 652.061 809.633 651.74 814.367C651.097 819.102 647.885 820.364 644.352 820.364Z" fill="#555A63" fill-opacity="0.06"/>
<path d="M869.191 573.213C873.367 573.213 875.937 575.423 875.937 579.842C875.937 584.261 873.367 586.471 868.87 586.471C865.337 586.471 862.767 584.261 862.446 580.789C862.446 576.37 864.695 573.845 869.191 573.213Z" fill="#555A63" fill-opacity="0.06"/>
<path d="M352.382 135.412C347.885 135.412 345.637 133.203 345.316 128.784C345.316 124.365 347.564 121.839 352.061 121.839C356.558 121.839 359.127 124.049 359.127 128.468C359.449 132.571 356.879 135.097 352.382 135.412Z" fill="#555A63" fill-opacity="0.06"/>
<path d="M760.626 197.91C760.626 202.014 758.378 204.539 753.881 204.539C749.384 204.539 747.136 202.329 746.815 198.226C746.815 193.807 749.063 191.597 753.239 191.282C758.057 191.282 760.305 193.491 760.626 197.91Z" fill="#555A63" fill-opacity="0.06"/>
<path d="M166.729 684.321C166.408 688.74 164.159 690.95 159.663 690.95C155.166 690.95 152.917 688.425 152.917 684.005C152.917 679.586 155.487 677.377 159.984 677.377C164.481 677.377 166.408 679.902 166.729 684.321Z" fill="#555A63" fill-opacity="0.06"/>
<path d="M441.997 869.605C442.639 865.186 445.53 863.292 449.705 863.608C454.202 864.239 455.808 867.396 455.166 871.499C454.523 874.971 451.954 876.865 448.421 876.549C443.924 876.549 441.997 874.024 441.997 869.605Z" fill="#555A63" fill-opacity="0.06"/>
<path d="M828.721 346.264C828.078 351.314 825.509 353.523 821.333 353.208C815.873 352.892 813.624 349.736 814.588 344.685C815.23 340.266 818.442 338.688 822.618 339.004C826.793 339.635 828.399 342.792 828.721 346.264Z" fill="#555A63" fill-opacity="0.06"/>
<path d="M192.425 280.294C192.104 284.713 189.534 286.922 185.359 286.922C179.898 286.922 177.65 283.766 178.292 278.716C178.613 274.297 181.825 272.403 186.001 272.718C190.498 273.35 192.425 276.19 192.425 280.294Z" fill="#555A63" fill-opacity="0.06"/>
<path d="M885.573 487.989C890.07 488.305 892.639 490.83 892.318 494.933C891.997 499.353 889.106 501.246 884.93 500.931C881.397 500.615 879.149 498.406 879.149 494.618C878.828 490.514 881.076 488.305 885.573 487.989Z" fill="#555A63" fill-opacity="0.06"/>
<path d="M410.519 93.7467C410.198 98.1658 407.629 100.691 403.132 100.06C398.635 99.744 396.708 96.5875 397.029 92.4841C397.35 89.012 399.92 87.1182 403.453 87.1182C408.271 87.1182 410.198 89.6433 410.519 93.7467Z" fill="#555A63" fill-opacity="0.06"/>
<path d="M108.592 495.249C107.95 499.668 105.38 501.562 101.204 501.246C96.7077 500.93 94.7805 498.089 95.1017 493.986C95.4229 489.567 98.3137 487.673 102.489 487.989C106.986 488.304 108.913 490.83 108.592 495.249Z" fill="#555A63" fill-opacity="0.06"/>
<path d="M168.977 647.075C163.838 646.443 161.59 643.603 162.232 638.868C162.554 634.764 165.444 632.555 169.941 632.871C175.08 633.186 177.329 636.343 177.007 641.077C176.044 645.181 173.153 647.075 168.977 647.075Z" fill="#555A63" fill-opacity="0.06"/>
<path d="M847.992 485.464C847.671 490.514 844.78 492.723 839.641 492.408C835.466 492.092 833.217 489.251 833.217 485.148C833.538 480.098 836.429 477.572 841.568 478.204C845.744 478.519 847.992 481.045 847.992 485.464Z" fill="#555A63" fill-opacity="0.06"/>
<path d="M703.132 779.33C702.81 783.434 700.241 785.959 696.065 785.643C690.605 785.643 688.678 782.171 688.999 777.436C689.32 773.017 692.532 771.439 696.708 771.755C701.204 772.386 703.132 774.911 703.132 779.33Z" fill="#555A63" fill-opacity="0.06"/>
<path d="M790.498 296.076C789.856 301.127 786.965 303.652 782.147 303.02C777.971 302.705 775.402 299.864 775.723 295.445C776.044 290.395 779.256 287.869 784.074 288.185C787.928 288.816 790.177 291.657 790.498 296.076Z" fill="#555A63" fill-opacity="0.06"/>
<path d="M500.776 110.16C500.455 114.264 497.885 116.789 493.71 116.473C488.249 116.473 486.322 113.001 486.643 108.266C486.965 103.847 490.177 102.269 494.352 102.585C498.849 103.216 500.776 105.741 500.776 110.16Z" fill="#555A63" fill-opacity="0.06"/>
<path d="M212.018 694.106C211.376 699.156 208.164 701.366 203.346 700.419C199.17 699.788 196.922 696.631 197.564 692.528C198.207 687.477 201.419 685.268 206.237 685.899C210.091 686.846 212.018 690.003 212.018 694.106Z" fill="#555A63" fill-opacity="0.06"/>
<path d="M834.502 302.389C834.181 306.808 831.932 309.018 827.436 309.018C822.939 309.018 820.69 306.493 821.012 302.074C821.012 297.655 823.581 295.445 828.078 295.761C832.254 295.761 834.502 297.97 834.502 302.389Z" fill="#555A63" fill-opacity="0.06"/>
<path d="M117.586 399.292C121.761 399.292 124.652 401.502 124.652 405.605C124.973 409.709 123.046 412.55 118.549 413.181C113.731 413.497 110.519 411.287 110.519 406.237C110.84 401.818 113.41 399.608 117.586 399.292Z" fill="#555A63" fill-opacity="0.06"/>
<path d="M140.712 317.856C140.391 322.275 138.142 324.484 133.646 324.484C129.149 324.484 126.9 321.959 127.222 317.54C127.222 313.121 129.791 310.911 134.288 311.227C138.464 311.543 140.712 313.752 140.712 317.856Z" fill="#555A63" fill-opacity="0.06"/>
<path d="M756.451 704.207C751.312 703.26 749.063 700.104 749.706 695.369C750.348 691.265 753.56 689.056 757.736 689.372C762.875 690.003 765.123 693.475 764.481 698.21C763.838 702.313 760.626 704.207 756.451 704.207Z" fill="#555A63" fill-opacity="0.06"/>
<path d="M455.487 99.4284C455.487 103.532 453.56 106.373 449.384 106.688C445.209 107.004 442.318 104.794 441.997 100.691C441.676 96.5876 443.603 93.7468 448.099 93.4311C452.596 93.1155 454.845 95.325 455.487 99.4284Z" fill="#555A63" fill-opacity="0.06"/>
<path d="M885.894 538.177C885.894 542.596 883.646 545.437 879.149 545.437C874.652 545.437 872.404 542.912 872.404 538.493C872.404 535.02 874.652 532.495 878.185 532.18C882.682 531.864 885.252 534.074 885.894 538.177Z" fill="#555A63" fill-opacity="0.06"/>
<path d="M262.768 157.507C262.125 161.926 259.234 163.82 255.059 163.189C250.562 162.558 248.956 159.401 249.598 155.298C250.241 151.826 252.81 149.932 256.344 150.247C260.84 150.563 262.768 153.404 262.768 157.507Z" fill="#555A63" fill-opacity="0.06"/>
<path d="M102.168 538.808C102.168 542.912 99.9196 545.437 95.4228 545.437C90.926 545.437 88.6776 543.227 88.3564 539.124C88.3564 534.705 90.6048 532.495 94.7804 532.18C99.5984 532.18 101.847 534.389 102.168 538.808Z" fill="#555A63" fill-opacity="0.06"/>
<path d="M849.92 434.014C854.416 434.014 856.986 436.223 857.307 440.642C857.628 444.746 855.701 447.902 851.204 448.218C846.065 448.533 842.853 446.324 843.174 440.958C843.174 436.539 845.744 434.329 849.92 434.014Z" fill="#555A63" fill-opacity="0.06"/>
<path d="M841.89 529.654C841.247 534.705 838.356 537.23 833.538 536.599C829.363 536.283 826.793 533.442 827.114 529.023C827.436 523.973 830.648 521.448 835.466 521.763C839.32 522.394 841.568 525.235 841.89 529.654Z" fill="#555A63" fill-opacity="0.06"/>
<path d="M187.928 238.944C188.249 234.525 190.498 232 194.995 232.316C199.491 232.316 201.74 234.841 201.74 239.26C201.74 243.679 199.17 245.888 194.673 245.888C190.177 245.573 188.249 243.047 187.928 238.944Z" fill="#555A63" fill-opacity="0.06"/>
<path d="M808.806 706.732C808.164 711.151 805.594 713.045 801.419 712.729C796.922 712.414 794.995 709.573 795.316 705.469C795.637 701.05 798.528 699.157 802.703 699.472C807.2 699.788 808.806 702.629 808.806 706.732Z" fill="#555A63" fill-opacity="0.06"/>
<path d="M545.744 115.842C545.423 119.945 543.496 122.471 538.999 122.786C533.86 123.102 531.29 119.945 531.611 115.211C531.932 110.792 534.823 108.898 538.999 109.213C543.496 109.213 545.423 111.739 545.744 115.842Z" fill="#555A63" fill-opacity="0.06"/>
<path d="M547.992 848.773C543.817 848.457 541.247 845.932 541.568 841.829C541.568 836.463 545.102 834.569 549.92 834.884C554.416 835.2 556.022 838.357 555.701 842.46C554.738 846.879 552.168 848.773 547.992 848.773Z" fill="#555A63" fill-opacity="0.06"/>
<path d="M747.778 249.361C741.676 248.729 739.427 245.888 740.07 240.838C740.391 236.735 743.282 234.525 747.778 234.841C752.918 235.156 755.166 238.313 754.845 243.048C754.202 247.467 751.312 249.361 747.778 249.361Z" fill="#555A63" fill-opacity="0.06"/>
<path d="M110.519 443.483C115.98 443.799 118.549 446.008 118.549 450.111C118.87 455.162 115.658 457.687 110.84 457.371C106.344 457.056 104.416 454.215 104.738 450.111C104.738 445.692 107.307 443.799 110.519 443.483Z" fill="#555A63" fill-opacity="0.06"/>
<path d="M792.104 244.626C797.564 245.257 799.491 247.782 799.17 252.201C798.849 256.621 795.958 258.514 791.783 258.199C787.286 257.883 785.359 255.042 785.68 250.939C785.68 246.52 788.892 244.942 792.104 244.626Z" fill="#555A63" fill-opacity="0.06"/>
<path d="M747.778 785.644C747.136 790.063 744.566 792.272 740.069 791.641C735.573 791.01 733.646 787.853 734.288 783.75C734.93 780.278 737.179 778.384 741.033 778.384C745.53 778.699 747.778 781.225 747.778 785.644Z" fill="#555A63" fill-opacity="0.06"/>
<path d="M600.027 851.929C599.384 856.348 596.815 858.242 592.639 857.927C588.142 857.611 586.215 854.77 586.536 850.667C586.857 846.248 589.748 844.354 593.924 844.669C598.421 844.985 600.027 847.826 600.027 851.929Z" fill="#555A63" fill-opacity="0.06"/>
<path d="M365.551 853.823C365.551 858.558 363.303 861.083 358.806 861.083C354.309 861.083 352.061 858.558 352.061 854.139C352.382 850.667 354.309 848.457 357.843 848.142C362.661 847.51 364.909 850.035 365.551 853.823Z" fill="#555A63" fill-opacity="0.06"/>
<path d="M410.519 863.608C410.519 867.711 408.271 870.237 403.774 870.237C399.277 870.237 397.029 867.711 397.029 863.292C397.029 859.82 399.277 857.295 402.81 856.979C407.307 856.979 409.877 859.189 410.519 863.608Z" fill="#555A63" fill-opacity="0.06"/>
<path d="M147.136 273.665C146.815 278.084 144.245 280.609 140.07 280.294C135.573 279.978 133.646 277.137 133.967 273.034C134.288 269.562 136.536 267.352 140.391 267.352C144.566 267.037 146.815 269.562 147.136 273.665Z" fill="#555A63" fill-opacity="0.06"/>
<path d="M548.956 77.9644C543.817 77.0175 541.568 74.808 542.211 70.3889C542.853 67.2325 545.102 65.0229 548.635 65.3386C553.132 65.6542 555.059 68.495 554.738 72.5984C554.095 76.0706 551.204 77.6488 548.956 77.9644Z" fill="#555A63" fill-opacity="0.06"/>
<path d="M152.918 721.883C157.093 722.83 159.341 724.724 159.341 728.196C159.341 732.615 156.772 734.824 152.275 734.509C148.742 734.193 146.815 731.984 146.494 728.511C146.815 723.777 150.027 722.514 152.918 721.883Z" fill="#555A63" fill-opacity="0.06"/>
<path d="M554.095 21.7793C557.628 22.0949 559.877 23.9888 560.198 27.4609C560.519 30.6174 558.271 32.5113 555.701 33.1426C552.168 34.0895 549.598 31.5643 548.635 28.4079C548.314 24.9358 550.883 23.0419 554.095 21.7793Z" fill="#555A63" fill-opacity="0.06"/>
<path d="M271.119 62.498C275.616 63.7606 278.185 65.6545 277.543 69.1266C277.222 72.2831 274.652 74.8083 270.798 74.177C268.228 73.8613 265.98 71.6518 265.98 68.811C265.98 65.0232 269.513 64.0763 271.119 62.498Z" fill="#555A63" fill-opacity="0.06"/>
<path d="M509.77 65.023C509.77 69.1264 507.521 71.6516 503.346 71.6516C499.813 71.6516 497.564 69.442 497.243 66.2856C496.922 62.1822 499.17 59.657 503.667 59.3414C506.879 59.0257 509.127 61.2352 509.77 65.023Z" fill="#555A63" fill-opacity="0.06"/>
<path d="M142.318 766.389C146.815 766.705 149.063 768.599 149.384 772.071C149.705 775.543 147.136 777.752 143.924 778.068C140.391 778.384 138.142 775.859 137.821 772.702C137.179 768.914 140.391 767.967 142.318 766.389Z" fill="#555A63" fill-opacity="0.06"/>
<path d="M464.802 54.9225C464.481 59.3416 462.554 61.8667 458.699 61.8667C454.202 62.1824 451.633 59.3416 452.275 55.2382C452.596 51.7661 455.166 49.5565 458.699 49.8722C462.554 49.8722 463.838 52.713 464.802 54.9225Z" fill="#555A63" fill-opacity="0.06"/>
<path d="M328.935 33.4582C328.935 36.6147 327.007 38.5086 324.759 39.1399C321.226 40.0868 318.977 37.5616 318.335 34.4052C317.693 31.5644 320.262 29.3548 322.511 28.7235C325.723 27.7766 327.971 30.3018 328.935 33.4582Z" fill="#555A63" fill-opacity="0.06"/>
<path d="M104.095 766.705C102.81 769.545 100.883 772.386 97.35 771.124C94.7804 770.492 92.5321 768.283 93.4957 765.442C94.1381 762.286 96.7076 759.76 100.241 761.023C102.489 761.654 104.095 763.864 104.095 766.705Z" fill="#555A63" fill-opacity="0.06"/>
<path d="M605.487 37.2463C604.524 40.4028 602.596 43.2436 598.742 42.6123C595.53 41.981 592.96 39.4558 593.603 35.9837C594.245 33.4585 596.172 31.249 599.384 31.249C603.239 31.5647 605.166 33.7742 605.487 37.2463Z" fill="#555A63" fill-opacity="0.06"/>
<path d="M374.224 40.7181C372.939 43.8745 371.012 46.7154 367.157 45.7684C363.945 45.1371 361.376 42.612 362.661 38.8242C363.303 36.299 365.551 34.0895 368.442 34.4052C371.975 35.0364 374.224 37.246 374.224 40.7181Z" fill="#555A63" fill-opacity="0.06"/>
<path d="M840.284 762.601C837.072 761.654 834.181 759.76 834.823 756.288C835.145 753.132 837.393 750.607 840.926 750.922C844.138 751.238 846.708 753.447 846.387 756.92C846.065 760.392 843.817 762.286 840.284 762.601Z" fill="#555A63" fill-opacity="0.06"/>
<path d="M695.423 53.0285C694.138 56.185 692.211 58.7102 688.999 58.0789C685.787 57.4476 683.217 54.9224 684.181 51.4503C684.823 49.2408 686.751 46.7156 689.641 47.0313C693.175 47.6626 695.102 49.8721 695.423 53.0285Z" fill="#555A63" fill-opacity="0.06"/>
<path d="M650.455 43.2433C649.491 46.3997 647.564 48.9249 644.031 48.6093C640.819 48.2936 638.249 45.7684 639.213 42.2963C639.855 40.4025 642.425 38.1929 644.352 37.8773C647.885 37.5616 649.813 40.0868 650.455 43.2433Z" fill="#555A63" fill-opacity="0.06"/>
<path d="M802.061 750.291C801.74 754.394 799.492 756.604 794.995 756.288C791.462 755.972 789.213 753.763 789.534 750.291C789.534 745.872 792.104 743.662 796.601 743.978C799.813 744.294 801.74 746.819 802.061 750.291Z" fill="#555A63" fill-opacity="0.06"/>
<path d="M413.731 55.5535C410.198 55.2378 407.628 53.344 407.307 49.8718C406.986 46.3997 409.556 43.8746 412.768 43.5589C416.301 43.2433 418.87 45.7684 419.192 48.9249C419.834 53.0283 417.264 54.6065 413.731 55.5535Z" fill="#555A63" fill-opacity="0.06"/>
<path d="M222.939 876.234C222.939 879.391 221.012 881.284 218.442 881.916C214.909 882.547 212.661 880.337 212.018 876.865C211.697 874.025 213.945 871.815 216.515 871.499C220.048 870.552 221.975 873.078 222.939 876.234Z" fill="#555A63" fill-opacity="0.06"/>
<path d="M500.134 879.39C500.134 883.494 498.207 886.019 493.71 886.019C490.177 886.019 487.607 883.809 487.607 880.337C487.286 875.918 489.534 873.393 494.031 873.393C497.564 873.393 499.491 875.603 500.134 879.39Z" fill="#555A63" fill-opacity="0.06"/>
<path d="M268.228 882.862C267.586 886.335 265.658 888.544 262.125 888.86C259.234 888.86 256.986 886.65 256.665 884.125C256.022 880.653 258.592 878.128 261.804 877.496C265.337 876.865 267.264 879.39 268.228 882.862Z" fill="#555A63" fill-opacity="0.06"/>
<path d="M545.102 885.388C544.138 890.438 541.89 892.648 537.393 892.016C534.181 891.385 531.932 889.175 532.254 885.703C532.575 881.284 535.466 879.39 539.641 879.706C543.174 880.337 544.459 883.178 545.102 885.388Z" fill="#555A63" fill-opacity="0.06"/>
<path d="M307.735 886.334C310.947 887.281 313.517 889.175 313.196 892.647C312.875 895.804 310.626 898.329 307.093 898.013C303.881 897.698 301.311 895.488 301.633 892.016C301.954 888.86 304.202 886.65 307.735 886.334Z" fill="#555A63" fill-opacity="0.06"/>
<path d="M584.288 901.486C580.755 901.486 578.185 899.592 577.543 896.435C576.9 892.332 579.149 889.491 583.646 889.491C587.179 889.491 589.427 891.701 589.748 895.173C590.07 898.961 587.5 900.539 584.288 901.486Z" fill="#555A63" fill-opacity="0.06"/>
<path d="M358.485 897.382C358.164 901.801 356.237 904.011 352.703 904.326C349.17 904.642 346.601 902.117 346.279 898.96C345.958 895.488 348.528 892.963 351.74 892.647C355.915 892.332 357.2 895.488 358.485 897.382Z" fill="#555A63" fill-opacity="0.06"/>
<path d="M634.716 901.485C634.395 904.958 632.468 907.167 628.935 907.483C625.401 907.798 623.153 905.273 622.832 902.117C622.511 898.645 625.08 896.435 628.292 896.119C631.825 895.804 633.753 898.329 634.716 901.485Z" fill="#555A63" fill-opacity="0.06"/>
<path d="M397.671 914.112C394.138 913.796 391.568 911.902 391.247 908.43C390.926 904.958 393.496 902.433 396.708 902.117C400.241 901.801 402.81 904.327 403.132 907.483C403.774 911.586 401.204 913.165 397.671 914.112Z" fill="#555A63" fill-opacity="0.06"/>
<path d="M673.902 917.268C670.048 915.69 667.157 913.796 668.121 910.324C668.763 907.483 671.333 904.958 674.866 905.905C677.114 906.536 679.363 908.43 679.042 911.586C678.72 915.058 675.83 916.005 673.902 917.268Z" fill="#555A63" fill-opacity="0.06"/>
<path d="M442.639 908.43C446.172 909.377 448.742 911.271 448.421 914.743C448.1 918.215 445.851 920.424 441.997 920.109C438.464 919.793 436.215 917.583 436.536 913.796C436.536 910.639 439.106 908.745 442.639 908.43Z" fill="#555A63" fill-opacity="0.06"/>
<path d="M493.71 923.265C492.425 927.368 490.498 929.894 486.965 929.578C483.753 929.262 481.183 927.053 481.504 923.581C481.825 920.424 484.074 917.899 487.607 918.215C491.14 918.215 492.425 921.371 493.71 923.265Z" fill="#555A63" fill-opacity="0.06"/>
<path d="M538.357 929.894C538.035 933.366 536.108 935.575 532.575 935.891C529.042 936.207 526.793 933.681 526.472 930.525C526.151 927.053 528.721 924.843 531.933 924.528C535.466 924.212 537.393 926.737 538.357 929.894Z" fill="#555A63" fill-opacity="0.06"/>
<path d="M576.579 933.997C580.112 933.997 582.361 936.207 582.682 939.363C583.003 942.204 580.755 944.098 578.506 945.045C574.973 946.307 572.404 943.466 571.44 940.626C570.798 937.469 573.367 935.26 576.579 933.997Z" fill="#555A63" fill-opacity="0.06"/>
<path d="M346.922 948.517C343.067 948.201 340.819 946.307 340.498 943.782C339.855 940.31 342.104 938.101 345.637 937.785C348.528 937.469 350.455 939.679 351.097 942.204C352.061 945.676 348.849 947.254 346.922 948.517Z" fill="#555A63" fill-opacity="0.06"/>
<path d="M388.357 957.671C385.466 957.671 383.217 956.092 382.575 953.567C381.29 950.095 383.86 947.57 387.072 946.939C389.963 946.307 392.211 948.517 392.853 950.726C394.138 954.514 391.247 956.408 388.357 957.671Z" fill="#555A63" fill-opacity="0.06"/>
<path d="M438.142 957.986C438.142 960.827 436.536 963.036 433.967 963.668C430.434 964.93 427.864 962.405 427.222 959.249C426.579 956.408 428.828 954.198 431.076 953.567C434.93 952.305 436.858 955.145 438.142 957.986Z" fill="#555A63" fill-opacity="0.06"/>
<path d="M509.127 27.1455C505.915 25.8829 503.024 23.989 503.988 20.2013C504.63 17.0448 507.2 14.5196 511.054 15.7822C513.624 16.4135 515.872 18.623 515.551 21.4639C515.23 24.936 512.66 26.8298 509.127 27.1455Z" fill="#555A63" fill-opacity="0.06"/>
<path d="M194.995 781.856C194.673 785.328 192.746 787.853 189.213 787.853C184.716 788.169 182.147 785.328 182.789 781.224C183.11 777.752 185.68 775.543 189.213 775.859C192.425 776.174 194.352 778.384 194.995 781.856Z" fill="#555A63" fill-opacity="0.06"/>
<path d="M470.583 11.9943C469.62 15.1508 467.693 17.676 464.159 17.0447C460.947 16.4134 458.378 13.8882 459.341 10.4161C459.984 8.52224 462.875 6.31272 464.802 5.99707C468.014 5.99707 470.262 8.52224 470.583 11.9943Z" fill="#555A63" fill-opacity="0.06"/>
<path d="M419.192 0C422.404 0 424.331 1.89388 424.973 4.1034C425.937 7.57551 423.367 9.78503 420.155 10.4163C417.264 11.0476 415.016 8.52245 414.374 6.31292C413.731 3.15646 415.98 0.946939 419.192 0Z" fill="#555A63" fill-opacity="0.06"/>
<path d="M792.104 794.797C791.462 798.269 789.534 800.479 786.001 800.479C781.825 800.479 779.256 797.638 779.898 793.534C780.541 790.378 783.11 788.168 786.643 788.484C790.177 789.115 792.104 791.325 792.104 794.797Z" fill="#555A63" fill-opacity="0.06"/>
<path d="M837.072 800.479C835.466 804.267 833.538 807.108 830.005 806.161C827.114 805.529 824.545 803.004 825.508 799.532C826.151 797.323 828.078 795.113 831.29 795.429C834.823 795.744 835.787 798.585 837.072 800.479Z" fill="#555A63" fill-opacity="0.06"/>
<path d="M142.639 817.208C141.354 820.364 139.427 822.89 135.894 821.943C133.646 821.311 131.076 819.417 131.718 816.261C132.361 813.105 134.609 810.579 138.464 811.526C140.712 812.158 142.639 814.051 142.639 817.208Z" fill="#555A63" fill-opacity="0.06"/>
<path d="M690.284 816.577C694.138 817.208 696.065 819.102 696.065 822.89C696.065 827.309 693.496 829.518 688.999 829.203C685.466 828.887 683.217 826.677 683.217 823.205C683.217 818.47 685.787 816.577 690.284 816.577Z" fill="#555A63" fill-opacity="0.06"/>
<path d="M181.504 820.364C185.037 820.364 187.286 822.574 187.928 825.73C188.571 828.887 186.001 830.781 183.753 831.412C179.898 832.674 177.329 829.834 176.686 826.993C175.402 823.521 178.292 821.627 181.504 820.364Z" fill="#555A63" fill-opacity="0.06"/>
<path d="M740.712 827.94C740.712 832.359 738.785 834.884 735.251 835.2C731.076 835.831 728.185 833.306 728.185 828.887C728.185 825.415 730.755 823.205 734.288 823.205C738.142 822.89 739.748 825.73 740.712 827.94Z" fill="#555A63" fill-opacity="0.06"/>
<path d="M233.217 832.044C232.896 835.516 230.969 838.041 227.436 838.357C223.902 838.672 221.333 836.147 221.012 832.991C220.69 829.518 223.26 826.993 226.472 826.678C230.326 826.046 232.254 828.572 233.217 832.044Z" fill="#555A63" fill-opacity="0.06"/>
<path d="M278.185 839.303C277.222 842.46 275.294 844.985 271.761 844.669C267.264 844.353 265.016 841.513 265.98 837.094C266.622 833.937 269.513 831.728 273.046 832.359C276.579 833.306 278.506 835.831 278.185 839.303Z" fill="#555A63" fill-opacity="0.06"/>
<path d="M785.359 838.357C785.037 841.829 783.11 844.038 779.577 844.354C776.365 844.67 774.438 842.46 773.795 839.935C772.832 836.463 775.401 833.938 778.613 832.991C782.147 832.359 784.395 834.884 785.359 838.357Z" fill="#555A63" fill-opacity="0.06"/>
<path d="M317.05 854.454C312.875 854.139 310.305 851.929 310.626 847.51C310.948 844.038 313.196 841.829 316.729 841.829C321.226 841.829 323.474 844.354 323.153 848.773C323.153 852.561 320.905 854.139 317.05 854.454Z" fill="#555A63" fill-opacity="0.06"/>
<path d="M634.716 863.924C631.183 863.608 628.935 861.714 628.613 857.926C628.292 853.507 630.862 850.982 635.359 851.298C639.855 851.614 642.104 854.454 641.461 858.558C640.819 862.03 638.571 863.924 634.716 863.924Z" fill="#555A63" fill-opacity="0.06"/>
<path d="M686.108 867.08C685.787 870.552 683.86 873.077 680.326 873.077C676.151 873.393 673.581 870.552 673.902 866.449C674.224 863.292 676.793 860.767 680.326 861.083C683.86 861.398 685.787 863.608 686.108 867.08Z" fill="#555A63" fill-opacity="0.06"/>
<path d="M730.755 873.709C729.791 876.865 727.864 879.706 724.01 879.075C720.798 878.443 718.228 875.918 718.871 872.446C719.513 869.921 721.44 867.711 724.652 867.711C728.507 868.027 730.434 870.237 730.755 873.709Z" fill="#555A63" fill-opacity="0.06"/>
<path d="M57.5214 491.461C53.0246 490.514 50.455 488.62 50.7762 485.148C50.7762 480.729 53.667 478.52 58.1638 479.151C61.3758 479.782 63.6242 482.307 63.303 485.78C62.6606 489.567 59.7698 490.83 57.5214 491.461Z" fill="#555A63" fill-opacity="0.06"/>
<path d="M936.644 501.246C935.68 504.718 933.753 507.243 930.22 506.928C926.686 506.612 924.438 504.402 924.759 500.615C925.08 497.143 927.329 494.933 931.183 495.249C934.395 495.249 936.322 497.774 936.644 501.246Z" fill="#555A63" fill-opacity="0.06"/>
<path d="M927.971 268.299C930.862 269.562 933.753 271.456 932.468 274.928C931.825 277.453 929.577 279.663 926.686 278.716C923.474 278.084 920.905 275.559 922.189 272.087C922.832 269.878 925.08 268.299 927.971 268.299Z" fill="#555A63" fill-opacity="0.06"/>
<path d="M888.464 267.037C888.142 270.509 886.215 272.718 882.682 273.034C879.149 273.35 876.9 270.824 876.579 267.668C876.258 264.196 878.828 261.986 882.04 261.671C885.573 261.355 887.5 263.88 888.464 267.037Z" fill="#555A63" fill-opacity="0.06"/>
<path d="M98.956 261.355C102.489 262.302 105.059 264.196 104.738 267.668C104.416 271.14 102.168 273.665 98.3136 273.034C94.7804 272.718 92.532 270.509 92.8532 266.721C92.8532 263.564 95.4228 261.671 98.956 261.355Z" fill="#555A63" fill-opacity="0.06"/>
<path d="M838.035 264.196C832.896 263.249 830.648 261.039 831.29 256.62C831.933 253.464 834.181 251.254 837.714 251.57C842.211 251.886 844.138 254.726 843.817 258.83C843.175 262.302 840.284 263.88 838.035 264.196Z" fill="#555A63" fill-opacity="0.06"/>
<path d="M53.3457 263.249C50.1337 262.302 47.5642 260.408 48.5278 256.936C49.1702 254.726 51.0973 252.201 53.9881 252.832C57.5213 253.464 59.7697 255.673 59.1273 259.145C58.4849 261.355 56.2365 263.249 53.3457 263.249Z" fill="#555A63" fill-opacity="0.06"/>
<path d="M10.9476 523.341C9.98403 526.498 8.05684 529.023 4.52364 528.076C2.27525 527.445 -0.294343 525.551 0.0268563 522.71C0.669255 519.238 2.91765 517.028 6.45084 517.66C9.02043 518.291 10.9476 520.501 10.9476 523.341Z" fill="#555A63" fill-opacity="0.06"/>
<path d="M56.879 529.339C55.5942 533.126 53.9882 535.652 50.1338 535.336C45.9582 535.02 43.3886 532.179 44.3522 528.076C44.9946 524.92 47.8854 522.71 51.4186 523.341C54.6306 523.973 56.5578 526.498 56.879 529.339Z" fill="#555A63" fill-opacity="0.06"/>
<path d="M156.451 229.791C155.808 233.894 153.239 236.104 149.063 235.472C145.851 234.841 143.603 232.631 143.924 229.159C144.245 224.74 147.136 222.846 151.312 223.478C154.524 223.793 156.451 226.319 156.451 229.791Z" fill="#555A63" fill-opacity="0.06"/>
<path d="M888.142 228.843C884.93 227.581 882.361 225.687 883.003 222.215C883.646 219.374 886.215 216.849 889.748 217.796C891.997 218.427 894.566 220.321 893.924 223.477C893.924 226.634 891.676 228.528 888.142 228.843Z" fill="#555A63" fill-opacity="0.06"/>
<path d="M925.401 551.434C920.905 551.118 918.656 549.224 918.335 545.752C918.014 542.28 920.583 539.755 923.795 539.439C927.329 539.124 929.898 541.649 930.219 544.805C930.541 548.593 927.329 549.856 925.401 551.434Z" fill="#555A63" fill-opacity="0.06"/>
<path d="M104.738 229.159C101.526 228.212 98.6348 226.318 99.2772 222.846C99.5984 219.69 101.847 217.165 105.38 217.48C108.592 217.796 111.162 220.005 110.84 223.478C110.519 226.95 108.271 228.844 104.738 229.159Z" fill="#555A63" fill-opacity="0.06"/>
<path d="M849.92 214.008C848.956 217.48 847.029 220.005 843.496 219.69C839.963 219.374 837.714 217.165 838.035 213.377C838.357 209.905 840.605 207.695 844.459 208.011C847.671 208.011 849.599 210.536 849.92 214.008Z" fill="#555A63" fill-opacity="0.06"/>
<path d="M805.273 206.433C804.952 210.852 803.025 213.692 798.849 213.692C795.316 213.692 793.067 211.483 792.746 208.326C792.425 204.223 794.673 201.698 799.17 201.382C802.703 201.067 804.309 203.592 805.273 206.433Z" fill="#555A63" fill-opacity="0.06"/>
<path d="M908.057 405.605C907.093 410.024 905.166 412.549 901.633 412.234C897.136 412.234 894.887 409.393 895.53 404.974C896.172 401.817 898.742 399.608 902.275 399.924C906.129 400.555 907.414 403.396 908.057 405.605Z" fill="#555A63" fill-opacity="0.06"/>
<path d="M952.703 411.603C951.419 416.022 949.491 418.547 945.958 417.915C942.746 417.6 940.177 415.075 940.819 411.287C941.14 408.762 943.389 406.552 946.279 406.552C950.134 406.868 951.097 410.024 952.703 411.603Z" fill="#555A63" fill-opacity="0.06"/>
<path d="M79.3629 395.82C79.0417 400.239 77.1145 403.08 72.9389 403.08C69.4057 403.08 67.1573 400.871 66.8361 397.714C66.5149 393.611 68.7633 391.086 73.2601 390.77C76.7933 390.454 78.3993 392.979 79.3629 395.82Z" fill="#555A63" fill-opacity="0.06"/>
<path d="M34.0738 389.507C32.789 393.926 30.8618 396.452 27.3286 395.82C24.1166 395.505 21.547 392.979 22.1894 389.192C22.5106 386.667 24.759 384.457 27.6498 384.457C31.5042 384.773 32.4678 387.929 34.0738 389.507Z" fill="#555A63" fill-opacity="0.06"/>
<path d="M950.776 368.675C950.776 365.518 952.704 363.625 955.273 362.993C958.806 362.362 961.055 364.571 961.697 368.044C962.018 370.884 959.77 373.094 957.2 373.41C953.667 374.357 951.74 371.831 950.776 368.675Z" fill="#555A63" fill-opacity="0.06"/>
<path d="M27.3286 434.013C27.3286 437.485 25.0802 439.695 21.8682 440.326C18.6562 440.957 16.729 438.432 16.0866 436.223C14.8018 432.435 17.6926 429.91 20.5834 429.279C24.1166 428.016 26.0438 430.857 27.3286 434.013Z" fill="#555A63" fill-opacity="0.06"/>
<path d="M917.693 361.415C916.408 365.834 914.481 368.359 910.947 368.043C907.414 367.728 905.166 365.518 905.487 361.73C905.808 358.258 908.057 356.049 911.911 356.049C915.444 356.364 916.408 359.521 917.693 361.415Z" fill="#555A63" fill-opacity="0.06"/>
<path d="M72.9389 441.274C72.2965 445.377 69.7269 447.587 65.5513 446.955C62.3393 446.324 60.0909 444.114 60.4121 440.642C60.7333 436.223 63.6241 434.329 67.7997 434.961C71.0117 435.276 72.9389 437.801 72.9389 441.274Z" fill="#555A63" fill-opacity="0.06"/>
<path d="M88.9988 352.577C88.6776 356.049 86.7504 358.574 83.2172 358.574C78.7204 358.89 76.1508 356.049 76.7932 351.946C77.1144 348.474 79.684 346.264 83.2172 346.58C86.4292 346.895 88.3564 349.105 88.9988 352.577Z" fill="#555A63" fill-opacity="0.06"/>
<path d="M894.888 456.74C891.354 456.425 889.106 454.531 888.785 450.743C888.464 446.324 891.033 443.799 895.53 444.114C900.027 444.43 902.275 447.271 901.633 451.374C900.99 454.846 898.742 456.74 894.888 456.74Z" fill="#555A63" fill-opacity="0.06"/>
<path d="M43.7098 345.632C42.425 350.051 40.4978 352.577 36.6434 351.945C33.4314 351.314 30.8619 348.789 31.5042 345.317C32.1466 342.792 34.0738 340.582 37.2858 340.582C41.4614 340.582 42.425 343.738 43.7098 345.632Z" fill="#555A63" fill-opacity="0.06"/>
<path d="M939.534 450.427C943.71 451.69 946.279 453.584 945.958 457.056C945.637 460.212 943.389 462.737 939.856 462.422C936.644 462.106 934.074 459.897 934.395 456.425C934.395 452.952 937.607 451.69 939.534 450.427Z" fill="#555A63" fill-opacity="0.06"/>
<path d="M917.05 312.174C920.584 312.489 922.832 314.383 923.153 317.855C923.474 321.012 921.226 322.906 918.656 323.537C915.123 324.484 912.554 321.959 911.59 318.802C911.269 315.33 913.838 313.436 917.05 312.174Z" fill="#555A63" fill-opacity="0.06"/>
<path d="M879.149 307.755C878.185 312.174 876.258 314.699 872.725 314.384C868.228 314.384 865.98 311.543 866.622 307.124C867.265 303.967 869.834 301.758 873.367 302.073C877.222 302.705 878.507 305.546 879.149 307.755Z" fill="#555A63" fill-opacity="0.06"/>
<path d="M87.714 302.389C92.2108 302.705 94.7804 304.599 94.7804 308.071C95.1016 312.174 92.532 315.015 88.3564 314.699C84.8232 314.384 82.5748 312.174 82.896 308.702C82.896 304.599 85.7868 303.336 87.714 302.389Z" fill="#555A63" fill-opacity="0.06"/>
<path d="M12.2323 484.832C8.37787 483.254 5.48708 481.36 6.45068 477.888C7.09307 475.047 9.66267 472.522 13.1959 473.469C15.4443 474.1 17.6926 475.994 17.3714 479.151C17.0502 482.623 14.1595 483.57 12.2323 484.832Z" fill="#555A63" fill-opacity="0.06"/>
<path d="M42.7462 296.392C46.9218 296.707 48.849 298.601 49.4914 301.758C49.8126 304.598 47.5642 306.492 45.3158 307.439C41.7826 308.702 39.213 305.861 38.5706 303.02C37.2858 299.548 40.4978 297.97 42.7462 296.392Z" fill="#555A63" fill-opacity="0.06"/>
<path d="M853.132 661.91C856.986 662.226 859.877 664.12 859.556 668.539C859.556 672.011 857.307 674.22 853.774 674.536C849.598 674.852 847.029 672.326 847.029 668.223C847.35 664.435 849.598 662.541 853.132 661.91Z" fill="#555A63" fill-opacity="0.06"/>
<path d="M306.772 128.468C303.239 127.837 300.99 125.943 300.99 122.471C300.99 118.052 303.56 115.842 307.736 115.842C312.232 116.158 314.16 119.314 313.517 123.418C313.196 126.89 310.626 128.784 306.772 128.468Z" fill="#555A63" fill-opacity="0.06"/>
<path d="M114.374 684.005C110.198 683.374 107.95 680.849 108.592 676.745C109.234 673.589 111.483 671.379 115.016 671.695C119.513 672.011 121.44 674.852 120.798 678.955C120.476 682.111 117.907 684.005 114.374 684.005Z" fill="#555A63" fill-opacity="0.06"/>
<path d="M262.125 106.373C266.301 107.319 268.87 109.213 268.549 112.685C268.228 116.789 265.337 119.314 261.162 118.683C257.95 118.051 255.701 115.526 256.344 112.054C256.986 108.582 259.556 107.004 262.125 106.373Z" fill="#555A63" fill-opacity="0.06"/>
<path d="M899.063 684.005C894.888 682.743 892.318 680.849 892.639 677.377C892.96 674.22 895.209 671.695 898.742 672.011C901.954 672.326 904.524 674.536 904.202 678.008C904.202 681.796 900.99 682.743 899.063 684.005Z" fill="#555A63" fill-opacity="0.06"/>
<path d="M769.941 115.211C766.729 114.58 764.159 112.686 764.159 109.529C764.159 106.688 766.408 104.794 768.656 104.163C772.189 103.532 774.759 106.057 775.08 108.898C776.044 112.37 773.474 114.264 769.941 115.211Z" fill="#555A63" fill-opacity="0.06"/>
<path d="M216.836 112.37C213.624 111.108 210.733 109.214 211.697 105.426C212.339 102.269 214.909 99.7443 218.763 101.007C221.333 101.638 223.581 103.848 223.26 106.688C222.939 110.161 220.369 112.054 216.836 112.37Z" fill="#555A63" fill-opacity="0.06"/>
<path d="M731.076 103.532C730.113 106.688 728.185 109.213 724.652 108.898C721.44 108.582 718.871 106.373 719.192 102.9C719.513 99.744 721.761 97.2189 725.295 97.5345C728.828 97.8502 730.755 100.06 731.076 103.532Z" fill="#555A63" fill-opacity="0.06"/>
<path d="M679.042 87.4341C683.539 88.0654 685.787 89.9592 686.108 93.1157C686.429 97.2191 683.539 99.7443 679.363 99.4286C676.151 99.113 673.903 96.5878 673.903 93.1157C673.903 89.9592 676.793 88.6967 679.042 87.4341Z" fill="#555A63" fill-opacity="0.06"/>
<path d="M68.7633 712.729C67.7997 715.886 65.8725 718.411 62.3393 717.464C60.0909 716.832 57.5213 714.939 57.8425 712.098C58.4849 708.626 60.7333 706.416 64.2665 707.047C66.8361 707.679 68.7633 709.888 68.7633 712.729Z" fill="#555A63" fill-opacity="0.06"/>
<path d="M635.037 93.7471C631.504 93.1158 628.935 91.5376 628.935 87.7498C628.935 83.3308 631.825 81.1212 636.001 81.4369C639.534 81.7525 641.783 84.2777 641.14 88.0655C640.819 91.5376 638.571 93.4315 635.037 93.7471Z" fill="#555A63" fill-opacity="0.06"/>
<path d="M846.708 718.727C843.174 718.095 840.926 716.201 840.926 712.729C840.926 708.626 843.817 706.101 847.992 706.732C851.204 707.363 853.453 709.889 853.132 713.361C852.489 716.517 850.241 718.411 846.708 718.727Z" fill="#555A63" fill-opacity="0.06"/>
<path d="M365.23 84.2775C364.909 88.0653 362.982 90.2748 359.448 90.5904C355.273 90.9061 352.703 88.6966 352.382 84.2775C352.382 80.8054 354.63 78.5959 357.842 78.2802C362.339 77.9646 364.588 80.1741 365.23 84.2775Z" fill="#555A63" fill-opacity="0.06"/>
<path d="M107.95 727.88C104.416 726.933 101.847 725.039 102.168 721.567C102.489 718.095 104.738 715.886 108.592 716.201C112.125 716.517 114.374 718.726 114.052 722.514C114.052 725.671 111.483 727.88 107.95 727.88Z" fill="#555A63" fill-opacity="0.06"/>
<path d="M593.282 74.8081C597.136 75.1238 599.384 77.0176 599.706 80.4897C600.027 84.5931 597.778 87.1183 593.282 87.434C589.748 87.434 587.5 85.2244 587.179 82.068C586.536 77.6489 589.106 75.4394 593.282 74.8081Z" fill="#555A63" fill-opacity="0.06"/>
<path d="M317.693 84.2774C313.196 83.0148 310.626 81.1209 310.948 77.6488C311.269 74.1767 313.517 71.9672 317.372 72.2828C320.905 72.5985 323.153 74.808 323.153 78.5958C322.832 82.0679 319.62 83.0148 317.693 84.2774Z" fill="#555A63" fill-opacity="0.06"/>
<path d="M897.778 722.198C896.494 725.355 894.566 727.88 891.354 727.249C888.142 726.618 885.573 724.092 886.536 720.62C887.179 718.411 889.106 715.886 891.997 716.201C895.53 716.832 897.457 719.042 897.778 722.198Z" fill="#555A63" fill-opacity="0.06"/>
<path d="M40.4978 579.526C37.2858 578.58 34.395 576.686 35.0374 573.214C35.3586 570.057 37.607 567.532 41.1402 567.847C44.3522 568.163 46.9218 570.373 46.6006 573.845C46.2794 577.317 44.031 579.211 40.4978 579.526Z" fill="#555A63" fill-opacity="0.06"/>
<path d="M92.2109 580.158C91.5685 583.946 89.6413 586.155 86.1081 586.155C81.6113 586.155 79.3629 583.63 79.3629 579.527C79.3629 576.054 81.9325 573.845 85.4657 573.845C89.9625 573.529 91.8897 576.054 92.2109 580.158Z" fill="#555A63" fill-opacity="0.06"/>
<path d="M207.843 194.438C207.521 198.541 205.594 201.067 201.097 201.067C197.564 201.067 195.316 198.857 194.995 195.385C194.673 190.966 197.243 188.441 201.74 188.756C205.273 188.756 207.2 190.65 207.843 194.438Z" fill="#555A63" fill-opacity="0.06"/>
<path d="M920.584 589.627C919.62 593.099 917.693 595.624 914.16 595.308C910.626 594.993 908.378 592.783 908.699 588.996C909.02 585.523 911.269 583.314 915.123 583.63C918.335 583.63 920.262 586.155 920.584 589.627Z" fill="#555A63" fill-opacity="0.06"/>
<path d="M162.554 184.969C162.232 188.441 160.305 190.966 156.772 191.282C153.239 191.597 150.669 189.072 150.348 185.916C150.027 182.444 152.596 179.919 155.808 179.603C159.663 178.972 161.59 181.497 162.554 184.969Z" fill="#555A63" fill-opacity="0.06"/>
<path d="M964.909 596.256C963.624 599.097 961.697 601.937 958.164 600.675C955.594 600.044 953.346 597.834 954.31 594.993C954.952 591.837 957.522 589.312 961.055 590.574C963.303 591.206 964.909 593.415 964.909 596.256Z" fill="#555A63" fill-opacity="0.06"/>
<path d="M116.943 178.971C116.301 182.443 114.052 184.653 110.519 184.337C107.95 184.022 105.701 181.812 106.022 178.971C106.344 175.499 108.592 173.29 112.125 173.921C114.695 174.237 116.622 176.13 116.943 178.971Z" fill="#555A63" fill-opacity="0.06"/>
<path d="M858.913 168.555C858.913 172.343 856.986 174.236 854.416 174.868C850.883 175.499 848.635 173.29 847.992 169.817C847.671 166.977 849.92 164.767 852.489 164.451C856.022 163.505 857.628 166.345 858.913 168.555Z" fill="#555A63" fill-opacity="0.06"/>
<path d="M34.0739 623.402C30.8619 622.139 28.2923 620.245 28.9347 617.089C29.5771 613.932 32.1467 611.407 35.6799 612.354C37.9282 612.985 40.4978 614.879 40.1766 617.72C39.5342 621.192 37.2858 623.086 34.0739 623.402Z" fill="#555A63" fill-opacity="0.06"/>
<path d="M814.909 162.558C813.624 166.661 811.697 169.187 808.164 168.871C804.952 168.555 802.382 166.346 802.703 162.874C803.025 159.717 805.273 157.192 808.806 157.508C812.339 157.508 813.624 160.664 814.909 162.558Z" fill="#555A63" fill-opacity="0.06"/>
<path d="M79.363 618.035C82.8961 618.351 85.4657 620.245 85.4657 623.717C85.7869 628.136 82.8961 630.661 78.7206 630.03C75.1874 629.714 72.939 627.189 73.2602 623.717C73.2602 620.245 75.8298 618.351 79.363 618.035Z" fill="#555A63" fill-opacity="0.06"/>
<path d="M869.513 624.033C869.192 627.82 867.265 630.03 863.731 630.345C859.235 630.661 856.665 628.452 856.665 624.033C856.665 620.56 858.913 618.035 862.447 618.035C866.622 617.404 869.192 619.929 869.513 624.033Z" fill="#555A63" fill-opacity="0.06"/>
<path d="M914.159 633.818C913.196 637.29 911.269 639.815 907.735 639.499C904.202 639.184 901.633 636.974 902.275 633.186C902.596 629.714 904.845 627.505 908.699 627.82C911.911 627.82 913.838 630.346 914.159 633.818Z" fill="#555A63" fill-opacity="0.06"/>
<path d="M769.62 154.035C768.978 157.507 767.05 159.717 763.517 159.717C759.342 159.717 756.772 156.876 757.414 152.773C758.057 149.616 760.626 147.407 764.16 147.722C767.693 148.354 769.62 150.563 769.62 154.035Z" fill="#555A63" fill-opacity="0.06"/>
<path d="M211.055 144.566C214.588 144.882 217.157 146.775 217.157 150.248C217.478 154.351 214.588 156.876 210.412 156.56C207.2 156.245 204.631 153.72 204.952 150.248C205.273 146.775 207.521 144.882 211.055 144.566Z" fill="#555A63" fill-opacity="0.06"/>
<path d="M718.228 153.72C714.695 153.404 712.446 151.51 712.125 147.722C711.804 143.303 714.373 140.778 718.87 141.094C723.367 141.409 725.615 144.25 724.973 148.354C724.331 151.826 722.082 153.72 718.228 153.72Z" fill="#555A63" fill-opacity="0.06"/>
<path d="M165.444 147.091C162.232 145.829 159.341 143.935 160.305 140.147C160.947 136.991 163.517 134.465 167.371 135.728C169.941 136.359 172.189 138.569 171.868 141.41C171.547 144.882 168.977 146.776 165.444 147.091Z" fill="#555A63" fill-opacity="0.06"/>
<path d="M70.0482 662.226C73.2602 663.173 75.8297 665.066 75.5085 668.539C75.1873 671.695 72.939 674.22 69.4058 673.904C66.1938 673.589 63.6242 671.379 63.9454 667.907C64.2666 664.751 66.515 662.541 70.0482 662.226Z" fill="#555A63" fill-opacity="0.06"/>
</g>
</svg>
