<svg width="73" height="75" viewBox="0 0 73 75" fill="none" xmlns="http://www.w3.org/2000/svg">
<g clip-path="url(#clip0_634_7684)">
<path d="M8.18427 17.2848C17.1842 22.9849 26.1315 28.6557 35.2836 34.4553V2.32754C31.9199 2.28656 28.6762 2.78133 25.6752 4.0285C22.5076 5.34593 19.5183 7.10543 16.4735 8.70977C15.7832 9.0728 15.1163 9.76079 14.4407 8.89129C13.7007 7.93981 14.5138 7.41284 15.1953 6.90636C35.8978 -8.48419 66.6942 3.20583 72.1112 28.5298C74.2317 38.4428 72.5411 47.6999 67.2032 56.3013C66.9546 56.7024 66.7176 57.1093 66.3608 57.7036C67.0306 57.7036 67.5044 57.6773 67.9695 57.7095C69.3325 57.8032 70.2948 58.661 70.3124 60.034C70.365 64.2293 70.3709 68.4246 70.3124 72.6199C70.2919 74.1511 69.2506 75.003 67.5629 74.9767C63.4827 74.9152 59.4024 74.7366 55.3193 74.7307C51.6777 74.7278 48.0362 74.9415 44.3918 74.9767C39.3492 75.0235 34.3067 74.9913 29.2641 74.9884C27.0178 74.9884 26.4825 74.4614 26.0701 72.3037C25.9853 71.8675 25.3447 71.3786 24.8563 71.2029C15.8417 67.9943 8.94474 62.262 4.36433 53.8538C-3.06203 40.2198 -0.842018 23.0903 9.73739 11.7282C10.0036 11.4442 10.2346 11.0285 10.5622 10.9201C11.0829 10.7503 11.6708 10.7884 12.2294 10.7386C12.1885 11.3037 12.3523 12.0239 12.0656 12.4074C10.998 13.8536 9.77834 15.1886 8.623 16.5734C8.47383 16.752 8.37438 16.9686 8.18134 17.2848H8.18427ZM37.603 2.18116V4.04606C37.603 13.1217 37.761 22.2003 37.5211 31.2672C37.4334 34.6251 37.9745 37.1195 41.3762 38.3257C41.5107 38.3725 41.695 38.4516 41.736 38.5599C41.9465 39.1161 42.1191 39.687 42.3063 40.2521C41.7067 40.2901 41.0106 40.5419 40.525 40.3223C39.513 39.8685 38.5653 39.2274 37.682 38.5452C36.8484 37.9012 36.2313 38.0124 35.383 38.5804C26.8043 44.3332 18.1933 50.0391 9.59407 55.7626C9.28111 55.9705 8.98862 56.2106 8.69613 56.4301C11.9633 61.8902 21.7763 68.9604 26.1228 68.9633C26.1228 64.6246 26.1198 60.2858 26.1228 55.9471C26.1228 53.3415 26.7867 52.6857 29.4162 52.6828C32.9173 52.6798 36.4155 52.6828 40.0483 52.6828C40.0775 52.0387 40.1185 51.5176 40.1214 50.9935C40.1302 49.0408 40.0951 47.091 40.1389 45.1383C40.177 43.5368 40.9842 42.6293 42.5579 42.6059C46.3105 42.5444 50.0632 42.5473 53.8158 42.6029C55.3807 42.6264 56.4512 43.5895 56.2611 45.0856C55.9774 47.3047 56.9601 48.4377 58.7823 49.3892C60.6748 50.3787 62.4209 51.6493 64.2315 52.7969C64.8281 53.1746 65.4277 53.5435 66.1444 53.9885C72.237 42.3307 72.6611 30.7812 66.159 19.4717C59.9406 8.66001 50.2504 3.12386 37.5972 2.18409L37.603 2.18116ZM32.6541 35.3863C23.8735 29.8268 15.4615 24.4985 7.05525 19.1731C4.31753 23.0171 1.9191 31.3608 2.37246 35.3863H32.6541ZM7.12252 54.7702C15.1514 49.4272 22.8118 44.3302 30.4692 39.2332C30.4253 39.1542 30.3844 39.0751 30.3405 38.9961C21.3347 40.9459 12.3318 42.8957 2.96329 44.9216C4.38773 48.2913 5.70101 51.4063 7.12252 54.7702ZM28.3135 62.5986H39.981V59.8789C39.2556 59.8789 38.6765 59.8789 38.0944 59.8789C37.293 59.8818 36.4653 59.6886 36.632 58.743C36.7051 58.3243 37.5182 57.8969 38.0681 57.7417C38.6736 57.569 39.3697 57.7036 39.9956 57.7036V54.9458H28.372V57.7036C29.7818 57.7036 31.0893 57.7183 32.3967 57.6978C33.1864 57.6861 33.982 57.7856 34.023 58.7342C34.0698 59.8203 33.1894 59.8818 32.3704 59.8818C31.0278 59.8818 29.6853 59.8818 28.3106 59.8818V62.6016L28.3135 62.5986ZM24.8709 37.9334C24.8709 37.8748 24.8738 37.8133 24.8767 37.7548H2.15017C2.35199 39.4557 2.53918 41.0249 2.73808 42.7113C10.2668 41.0864 17.5674 39.5084 24.8709 37.9334ZM56.3781 57.7007C58.291 57.7007 60.0459 57.5895 61.7833 57.7329C63.3511 57.8617 64.2344 57.2147 64.7784 55.7392C62.0319 54.0031 59.2708 52.2553 56.3781 50.4256V57.7007ZM28.3983 70.0612V72.6843H40.0424V70.0612H28.3983ZM42.3648 47.5594H54.006V44.8894H42.3648V47.5594ZM42.4028 49.8898V52.5891H54.0118V49.8898H42.4028ZM42.3677 54.896V57.5983H53.9855V54.896H42.3677ZM42.3619 62.6367H54.0089V59.9638H42.3619V62.6367ZM68.0368 59.996H56.4336V62.6133H68.0368V59.996ZM54.0498 70.0875H42.3677V72.6638H54.0498V70.0875ZM68.0339 70.0758H56.3751V72.6755H68.0339V70.0758ZM40.0395 65.0432H28.3866V67.6517H40.0395V65.0432ZM54.0557 65.0666H42.3736V67.6254H54.0557V65.0666ZM56.3605 67.6459H67.9812V65.0725H56.3605V67.6459Z" fill="url(#paint0_linear_634_7684)"/>
</g>
<defs>
<linearGradient id="paint0_linear_634_7684" x1="36.4998" y1="-0.000488281" x2="36.4998" y2="75.0019" gradientUnits="userSpaceOnUse">
<stop stop-color="#7263D8"/>
<stop offset="1" stop-color="#CDB9FD"/>
</linearGradient>
<clipPath id="clip0_634_7684">
<rect width="73" height="75" fill="white"/>
</clipPath>
</defs>
</svg>
